<svg xmlns="http://www.w3.org/2000/svg" width="28" height="28" viewBox="0 0 28 28">
  <path fill="#E14B57" d="M12.5 3C12.7761719 3 13 2.80791152 13 2.57090177L13 .429098226C13 .192088481 12.7761719 0 12.5 0 12.2240235 0 12 .192088481 12 .429098226L12 2.57090177C12 2.80791152 12.2240235 3 12.5 3zM8.04203016 4.83569759C8.15165023 4.94537878 8.29525248 5 8.43863557 5 8.5824571 5 8.72605942 4.94515938 8.83567949 4.83547824 9.05491964 4.61611585 9.05470035 4.26052939 8.83546021 4.041167L6.95788764 2.16430243C6.73864749 1.94515945 6.38325917 1.94515945 6.16423825 2.16474119 5.94521738 2.38410357 5.94521738 2.73968998 6.16445753 2.95883302L8.04203016 4.83569759zM4.49970715 2C4.6277571 2 4.75541663 1.95117781 4.85301573 1.85372877L4.85379647 1.85294767C5.04899456 1.65765902 5.04860419 1.3414867 4.8534061 1.14619806 4.65840319.951104693 4.34159667.95129997 4.14639857 1.14658861 3.95120048 1.34187725 3.95120048 1.65844013 4.14639857 1.85372877 4.24399767 1.95117781 4.37185238 2 4.49970715 2zM16.5398488 5C16.6782052 5 16.8163508 4.94709296 16.9218055 4.84170032L18.8419235 2.92102581C19.0528328 2.71024064 19.0526218 2.36855788 18.8417125 2.15798353 18.6308033 1.94719836 18.2889193 1.94740913 18.0780101 2.15819431L16.1578921 4.07886881C15.9471937 4.28965399 15.9474046 4.63133674 16.1583139 4.84191115 16.2637685 4.94730373 16.4017032 5 16.5398488 5zM12.5 22C12.2240235 22 12 22.1920885 12 22.4290982L12 24.5709018C12 24.8079115 12.2240235 25 12.5 25 12.7761719 25 13 24.8079115 13 24.5709018L13 22.4290982C13 22.1920885 12.7761719 22 12.5 22zM8.04199518 20.1644061L6.16457324 22.0412021C5.94532508 22.2605564 5.94510585 22.6159105 6.16413471 22.8352649 6.27375884 22.9451614 6.41758563 23 6.56119313 23 6.70480068 23 6.84840824 22.9451614 6.95781308 22.8357036L8.8354542 20.9589077C9.05470235 20.7395533 9.05492164 20.3841992 8.83567349 20.1646255 8.61664457 19.9452711 8.26124333 19.9450518 8.04199518 20.1644061L8.04199518 20.1644061zM16.9218541 20.1582054C16.7111446 19.9474055 16.3692426 19.9471946 16.1583222 20.1579946 15.9474018 20.3685838 15.9471909 20.7102906 16.1579004 20.9210905L18.0781197 22.8419C18.1835798 22.9473 18.3219436 23 18.4600965 23 18.5982493 23 18.7364022 22.9473 18.8418624 22.8421108 19.0525719 22.6315216 19.0527828 22.2898149 18.8420733 22.0790149L16.9218541 20.1582054zM20.1468594 23.1464272L20.1460785 23.1472081C19.9510471 23.3424443 19.9514375 23.6585318 20.146469 23.8537681 20.2440823 23.951191 20.3719558 24 20.499634 24 20.6278979 24 20.7559666 23.9509957 20.85358 23.8533776 21.0488067 23.6581414 21.0488067 23.3416634 20.85358 23.1464272 20.6585485 22.9511909 20.3420861 22.9511909 20.1468594 23.1464272L20.1468594 23.1464272zM24.9200347 12.7318279C23.8574548 11.106548 22.5139236 9.73395773 20.9766064 8.66069575L22.5583647 7.74531703C22.792014 7.61037085 22.8719316 7.31104255 22.7370825 7.07708482 22.6022335 6.84293596 22.3037346 6.76265635 22.0700853 6.89798484L20.0523088 8.06528865C17.8022183 6.7315002 15.2061359 6 12.5 6 7.47892389 6 2.83588281 8.51657475.0799652956 12.7318279-.0266550985 12.8946808-.0266550985 13.1053192.0799652956 13.2681721 1.14254518 14.8936432 2.48607638 16.2662334 4.02339356 17.3394954L2.44144462 18.254683C2.20798604 18.3898203 2.1278777 18.6891486 2.26272674 18.9231063 2.35332542 19.0800338 2.51735683 19.167768 2.68615653 19.167768 2.76893512 19.167768 2.85304891 19.1467424 2.92972401 19.1022063L4.94750044 17.9347113C7.19778175 19.2686909 9.79386408 20 12.5 20 17.5210761 20 22.1641172 17.4834252 24.9200347 13.2681721 25.0266551 13.1053192 25.0266551 12.8946808 24.9200347 12.7318279zM19.0704095 8.63355362L18.2883996 9.08598659C17.9628164 8.60411773 17.5788686 8.16506472 17.1470465 7.77857575 17.8098476 8.01444487 18.4528124 8.30039321 19.0704095 8.63355362zM18.5085068 13C18.5085068 16.3201354 15.8132427 19.0213533 12.5 19.0213533 10.4549486 19.0213533 8.64564459 17.9918628 7.55998588 16.4233521L9.30424954 15.4141227C10.035715 16.384168 11.1959507 17.0124515 12.5 17.0124515 14.7077476 17.0124515 16.503891 15.2124679 16.503891 13 16.503891 12.4441593 16.3904042 11.9143138 16.1855557 11.4326361L17.9298194 10.4234067C18.3006065 11.2049861 18.5085068 12.0785047 18.5085068 13zM9.4726678 13C9.4726678 11.3271258 10.8306948 9.96619519 12.5 9.96619519 13.4429896 9.96619519 14.2864159 10.4006608 14.8420245 11.0799793L9.66893321 14.0730709C9.54247652 13.7391459 9.4726678 13.3776965 9.4726678 13L9.4726678 13zM15.3312575 11.9269291C15.4575235 12.2608541 15.5273322 12.6223035 15.5273322 13 15.5273322 14.6728742 14.1693052 16.0338048 12.5 16.0338048 11.5572012 16.0338048 10.7137748 15.5995303 10.1581663 14.9200207L15.3312575 11.9269291zM15.6957505 10.5860685C14.964285 9.61583204 13.8040493 8.98754848 12.5 8.98754848 10.2922524 8.98754848 8.49610902 10.7875321 8.49610902 13 8.49610902 13.5558407 8.60959585 14.0856862 8.81444428 14.5673639L7.07018062 15.5765933C6.69939346 14.7950139 6.49149323 13.9214953 6.49149323 13 6.49149323 9.6798646 9.18694809 6.97864671 12.5 6.97864671 14.5450514 6.97864671 16.3545461 8.0081372 17.4402048 9.57683908L15.6957505 10.5860685zM1.07655114 13C2.75958916 10.5495604 5.13823458 8.74460707 7.85314424 7.77876688 6.41920503 9.06152042 5.51493446 10.9268745 5.51493446 13 5.51493446 14.0994484 5.76956454 15.1404074 6.22217668 16.0672547L4.96504798 16.7945497C3.45519656 15.8141827 2.12978506 14.5333406 1.07655114 13zM5.92978121 17.3664464L6.71160045 16.9140134C7.03718363 17.3960734 7.42113143 17.8349353 7.85314424 18.2214243 7.19015238 17.9855551 6.54737837 17.6996068 5.92978121 17.3664464zM17.1470465 18.2214243C18.580795 16.9384796 19.4850655 15.0733166 19.4850655 13 19.4850655 11.9005516 19.2304355 10.8595926 18.7778233 9.93274534L20.0351427 9.20545029C21.5449942 10.1860084 22.8704057 11.4666594 23.9236396 13 22.2404108 15.4504396 19.8617654 17.2553929 17.1470465 18.2214243z" transform="translate(1 1)"/>
</svg>
