<svg xmlns="http://www.w3.org/2000/svg" width="23" height="23" viewBox="0 0 23 23">
  <g fill="#FFF">
    <path d="M6.48329064,14.394129 C6.87298293,14.2318198 7.34065538,14.3530353 7.54806384,14.6700804 L9.0200436,16.9201191 C9.13346928,17.093487 9.37507225,17.18101 9.60645856,17.1328164 C9.83784488,17.0845367 10,16.9126749 10,16.7156405 L10,13.430257 C9.99990391,13.1926453 9.76653682,13 9.47864616,13 C9.19075551,13 8.95738842,13.1926883 8.95738842,13.4303 L8.95738842,15.0133737 L8.4653211,14.2612093 C7.98774475,13.5312914 6.91077412,13.2520697 6.01368953,13.6258283 C5.24592899,13.9455843 4.85055499,14.650846 5.05222961,15.3409181 L6.00649617,18.6060776 C6.22954236,19.3693437 6.6272099,20.0777896 7.18839599,20.7117506 L9.05783478,22.823534 C9.15989705,22.9388544 9.31841153,23 9.4791153,23 C9.58581676,23 9.69350861,22.9730202 9.78624036,22.9170812 C10.0186692,22.7768464 10.0694397,22.5076077 9.8995618,22.3157369 L8.03012301,20.2039536 C7.55046163,19.6621198 7.21060157,19.0566447 7.01997761,18.4042669 L6.06571105,15.1390644 C5.97808763,14.8393174 6.14984205,14.5330298 6.48329064,14.394129 Z"/>
    <path d="M16.3968732 12.0459566C16.118996 12.0459566 15.8574119 12.1141775 15.6293087 12.2339592 15.3982388 11.6568579 14.8145602 11.2459521 14.1322754 11.2459521 13.8380109 11.2459521 13.5622528 11.3227063 13.324967 11.4558974 13.0713411 10.9268352 12.5137502 10.5583247 11.8677246 10.5583247 11.6319458 10.5583247 11.4081277 10.6077635 11.2063477 10.6957599L11.2063477 8.53711574C11.2063477 7.68956877 10.4871916 7 9.60317386 7 8.71915615 7 8 7.68952362 8 8.53711574L8 9.31973768C8 9.56905338 8.21082125 9.77123298 8.47089847 9.77123298 8.7309757 9.77123298 8.94179695 9.56905338 8.94179695 9.31973768L8.94179695 8.53716088C8.94179695 8.18752293 9.23851008 7.90303574 9.60317386 7.90303574 9.96783763 7.90303574 10.2645508 8.18752293 10.2645508 8.53716088L10.2645508 14.9080756C10.2645508 15.1573913 10.475372 15.3595709 10.7354492 15.3595709 10.9955265 15.3595709 11.2063477 15.1573913 11.2063477 14.9080756L11.2063477 12.0953953C11.2063477 11.7457574 11.5030138 11.4612702 11.8677246 11.4612702 12.2324355 11.4612702 12.5291015 11.7457574 12.5291015 12.0953953L12.5291015 14.9080756C12.5291015 15.1573913 12.7399228 15.3595709 13 15.3595709 13.2600772 15.3595709 13.4708985 15.1573913 13.4708985 14.9080756L13.4708985 12.7830678C13.4708985 12.4333847 13.7675645 12.1488975 14.1322754 12.1488975 14.4969862 12.1488975 14.7936523 12.4333847 14.7936523 12.7830678L14.7936523 14.9080756C14.7936523 15.1573913 15.0044735 15.3595709 15.2645508 15.3595709 15.524628 15.3595709 15.7354492 15.1573913 15.7354492 14.9080756L15.7354492 13.582982C15.7354492 13.2333441 16.0321624 12.9488569 16.3968261 12.9488569 16.7614899 12.9488569 17.0582031 13.2333441 17.0582031 13.582982L17.0582031 17.3926542C17.0582031 18.4077962 16.8975325 19.4137277 16.580712 20.3823657L15.9164626 22.4132819C15.8386702 22.6512199 15.9767376 22.904599 16.2249011 22.9791861 16.2718026 22.9933179 16.3192221 23 16.3659352 23 16.5662554 23 16.7520249 22.8764257 16.8151253 22.6834566L17.4793746 20.6525405C17.8248258 19.5963124 18 18.4994949 18 17.3926542L18 13.582982C18 12.7355253 17.2808909 12.0459566 16.3968732 12.0459566zM22.9659737 2.2387228C22.884889 1.97955292 22.6732808 1.79426272 22.4137368 1.7551276L21.1694774 1.56764211 20.6127313.396037235C20.4966697.151727729 20.261703 0 19.9995591 0 19.9995184 0 19.9994372 0 19.9993966 0 19.7371308 0 19.502164.151938814 19.3861837.396374971L18.830047 1.56823315 17.5858688 1.75647854C17.3263654 1.79574031 17.1148385 1.98115717 17.0339163 2.24041147 16.9529535 2.49962357 17.0193731 2.77876206 17.2071759 2.96890721L18.1077599 3.88070896 17.8955423 5.16857933C17.8513032 5.4372058 17.9556246 5.70355256 18.1678015 5.86363924 18.287641 5.95411017 18.427833 6 18.5689593 6 18.6777086 6 18.7870266 5.97272785 18.8880168 5.91755029L20.0007371 5.309204 21.1137824 5.91695925C21.3459055 6.04377898 21.6219021 6.02292381 21.8339978 5.86262604 22.0460935 5.70237048 22.1502929 5.43602373 22.1058507 5.16739725L21.8929832 3.87965354 22.7930797 2.9673874C22.9808013 2.77707338 23.0470583 2.49785045 22.9659737 2.2387228zM21.2773736 3.32420509C21.1161386 3.48754248 21.0426912 3.72277534 21.0808367 3.95336434L21.2610429 5.04353271 20.3188197 4.52907693C20.1194799 4.42015719 19.881507 4.42028384 19.6822483 4.52920358L18.7402689 5.04420819 18.919947 3.95387094C18.9578894 3.72328195 18.8843201 3.48817574 18.7230445 3.32488056L17.9606213 2.55298579 19.0139905 2.39365901C19.2367296 2.35992767 19.4292041 2.21453248 19.5287725 2.00467201L19.9995997 1.01265805 20.4709144 2.00437649C20.5706046 2.21419475 20.7631198 2.35946328 20.9859807 2.39311019L22.0393499 2.55188815 21.2773736 3.32420509zM13.9659737 2.23873855C13.884889 1.97956685 13.6733214 1.79423312 13.4137774 1.75513995L12.169518 1.56765314 11.6127719.396040022C11.4966697.151728796 11.2617436 0 10.9995591 0 10.9995184 0 10.9994372 0 10.9993559 0 10.7371308 0 10.502164.151939883 10.3861837.39637776L9.830047 1.56824418 8.58586881 1.7564909C8.32636542 1.79575294 8.11483847 1.98117111 8.03391631 2.24042724 7.95295353 2.49964115 8.01937307 2.77878161 8.20717586 2.9689281L9.10771924 3.88069405 8.89550169 5.16857348C8.85126262 5.43720184 8.95558395 5.70355047 9.16776088 5.86363828 9.28760042 5.95410985 9.42779237 6 9.56891867 6 9.67766798 6 9.78698601 5.97272766 9.88797622 5.91754971L11.0007371 5.30924136 12.1137824 5.91695867C12.3459055 6.04377929 12.6219021 6.02292397 12.8339978 5.86262507 13.0460935 5.70236839 13.1502929 5.43601976 13.1058507 5.1673914L12.8929832 3.87963862 13.7930797 2.96736607C13.9808013 2.77709292 14.0470583 2.49791025 13.9659737 2.23873855zM12.2774142 3.32422848C12.1162199 3.4875248 12.0427724 3.7227171 12.0808773 3.95339216L12.2610835 5.0435682 11.3188604 4.52910879C11.1194799 4.42023051 10.8814663 4.42027272 10.682289 4.52923545L9.7402689 5.04424368 9.91994697 3.95389876C9.95788939 3.72326593 9.8843201 3.48815806 9.72304451 3.32490396L8.9606619 2.55300376 10.0139905 2.39367586C10.2367296 2.35994427 10.4292041 2.21454806 10.5288131 2.00468611L10.9996403 1.01262296 11.470955 2.00439059C11.5706046 2.21416811 11.7631198 2.35947988 11.9860213 2.39312703L13.0393906 2.55190611 12.2774142 3.32422848zM5.96597284 2.23872279C5.8848884 1.97955291 5.67328076 1.79426271 5.41373742 1.75512759L4.16948124 1.56764211 3.61277725.396037233C3.49667538.151727728 3.26174987 0 2.99956601 0 2.99952539 0 2.99944414 0 2.99936289 0 2.73713841 0 2.50217228.151938813 2.38619228.396374969L1.83005701 1.56823314.585882078 1.75647853C.326379369 1.7957403.114893599 1.98115716.0339310283 2.24036925-.047031542 2.49958134.0193065801 2.77871983.207149493 2.9689072L1.10773114 3.88070894.895514146 5.1685793C.85127519 5.43720577.955596254 5.70355253 1.16777262 5.86368143 1.28765248 5.95411014 1.42780344 6 1.56896999 6 1.67771901 6 1.78703676 5.97272782 1.8880267 5.91755026L3.00078471 5.30924619 4.11382709 5.91695922C4.34599021 6.04369452 4.62194542 6.02288156 4.83404055 5.86266822 5.04613567 5.70237045 5.15029424 5.43593927 5.10589279 5.16735501L4.89302582 3.8796113 5.79311999 2.96734517C5.9808004 2.77707337 6.04705728 2.49789266 5.96597284 2.23872279zM4.2774178 3.32416286C4.11618326 3.48745803 4.0426954 3.72269089 4.08084084 3.95336432L4.26104654 5.04353269 3.31886646 4.5290769C3.11952711 4.42019938 2.88151421 4.4202416 2.68229673 4.52920356L1.74023852 5.04425038 1.9198755 3.95399757C1.95789906 3.72340858 1.88432996 3.48826015 1.72301417 3.32492276L.960674187 2.55298578 2.01400007 2.393659C2.23673854 2.35992766 2.42921253 2.21453247 2.52878065 2.004672L2.99960663 1.01261583 3.4709201 2.00437648C3.57056947 2.21415252 3.76308408 2.35946327 3.98598504 2.39311018L5.03939217 2.55188814 4.2774178 3.32416286z"/>
    <path d="M9.8535,11.1465 C9.7605,11.05345 9.63155,11 9.5,11 C9.3685,11 9.2395,11.05345 9.1465,11.1465 C9.0535,11.23955 9,11.36845 9,11.5 C9,11.6315 9.0535,11.7605 9.1465,11.85345 C9.2395,11.94645 9.3685,12 9.5,12 C9.6315,12 9.7605,11.9465 9.8535,11.85345 C9.9465,11.7605 10,11.6315 10,11.5 C10,11.3684 9.9465,11.23945 9.8535,11.1465 Z"/>
  </g>
</svg>
