<svg xmlns="http://www.w3.org/2000/svg" width="22" height="22" viewBox="0 0 22 22">
  <g fill="#FFF">
    <path d="M21.5703125,0 L2.578125,0 C2.34080859,0 2.1484375,0.192413311 2.1484375,0.429685822 L2.1484375,14.9531955 L0.966796875,14.9531955 C0.433683594,14.9531955 0,15.3869204 0,15.9199886 L0,21.0331639 C0,21.5662322 0.433683594,22 0.966796875,22 L2.81445312,22 C3.11046484,22 3.37566797,21.8660669 3.55317187,21.6559076 L3.75125781,21.7335948 C4.202,21.9103675 4.67603125,22 5.16016016,22 L7.67426172,22 L8.49058203,22 L9.06636328,22 C9.72975781,22 10.2694883,21.4602716 10.2694883,20.7968797 C10.2694883,20.6347592 10.2370898,20.4801153 10.1786953,20.3388776 C10.5871992,20.1463354 10.870707,19.7307862 10.870707,19.2500537 C10.870707,19.0812731 10.8356445,18.9206136 10.7726094,18.7746923 C11.162207,18.5753181 11.4296445,18.1700384 11.4296445,17.7031848 C11.4296445,17.216007 11.1384023,16.7958602 10.7210039,16.6068414 C10.7774648,16.4675802 10.808875,16.3155574 10.808875,16.1562728 C10.808875,15.4929239 10.2691445,14.9531955 9.60575,14.9531955 L7.47939844,14.9531955 L7.74176562,14.174261 C7.82104297,13.9388362 7.85047656,13.6954192 7.83126953,13.4557834 L14.8671875,13.4557834 C15.1045039,13.4557834 15.296875,13.2633701 15.296875,13.0260976 L15.296875,10.4822286 C15.296875,8.97312901 14.0691289,7.74538771 12.5600234,7.74538771 L11.0883437,7.74538771 L11.0883437,7.72325889 C11.5546406,7.3077527 11.8490625,6.70322772 11.8490625,6.03098425 L11.8490625,4.72224718 C12.2527109,4.39336565 12.511082,3.89265276 12.511082,3.33260026 L12.511082,2.14842911 C12.511082,1.9111566 12.3187109,1.71874329 12.0813945,1.71874329 L9.64760156,1.71874329 C8.36141797,1.71874329 7.31504297,2.76515717 7.31504297,4.05129277 L7.31504297,4.69504807 L7.31504297,6.03094129 C7.31504297,6.70318475 7.60942187,7.30770974 8.07576172,7.72321592 L8.07576172,7.74534474 L6.60408203,7.74534474 C5.09497656,7.74534474 3.86723047,8.97308604 3.86723047,10.4821856 L3.86723047,13.0260546 C3.86723047,13.2633271 4.05960156,13.4557404 4.29691797,13.4557404 L5.08969141,13.4557404 L4.95360937,13.8318014 C4.78285156,14.3037254 4.4460625,14.6957707 4.00528906,14.9357932 L3.48145703,15.2210616 C3.35229297,15.0977418 3.1893125,15.0095703 3.00785547,14.9725743 L3.00785547,0.859371643 L21.140668,0.859371643 L21.140668,17.1874329 L14.442957,17.1874329 C14.2056406,17.1874329 14.0132695,17.3798462 14.0132695,17.6171187 C14.0132695,17.8543912 14.2056406,18.0468045 14.442957,18.0468045 L21.5703125,18.0468045 C21.8076289,18.0468045 22,17.8543912 22,17.6171187 L22,0.429685822 C22,0.192413311 21.8076289,0 21.5703125,0 Z M2.92183203,21.0331639 C2.92183203,21.0923746 2.87362109,21.1405424 2.81441016,21.1405424 L0.966753906,21.1405424 C0.907542969,21.1405424 0.859332031,21.0923746 0.859332031,21.0331639 L0.859332031,15.9199886 C0.859332031,15.8607349 0.907542969,15.8125671 0.966753906,15.8125671 L2.81441016,15.8125671 C2.87362109,15.8125671 2.92183203,15.8607349 2.92183203,15.9199886 L2.92183203,21.0331639 Z M7.15837891,8.65060683 C7.16228906,8.63531002 7.16521094,8.6200132 7.16740234,8.60475936 L8.07576172,8.60475936 L8.07576172,12.2342725 L6.68744141,10.4920684 L7.15837891,8.65060683 Z M10.2289688,12.5964117 L8.93513672,12.5964117 L8.93513672,8.2034328 C9.14026953,8.26462006 9.35730469,8.29800665 9.58207422,8.29800665 C9.80684375,8.29800665 10.0238789,8.26466303 10.2290117,8.2034328 L10.2290117,12.5964117 L10.2289688,12.5964117 Z M14.4375,10.4822286 L14.4375,12.5964117 L11.8919883,12.5964117 L13.2753242,10.860438 C13.3592422,10.755165 13.3889336,10.6166343 13.3555469,10.4862247 L12.8815156,8.63286081 C13.7640508,8.78587193 14.4375,9.55664236 14.4375,10.4822286 Z M11.990043,8.60475936 C11.9922344,8.6200132 11.9951562,8.63535299 11.9990664,8.65060683 L12.4700039,10.4920254 L11.0883437,12.2259366 L11.0883437,8.60471639 L11.990043,8.60471639 L11.990043,8.60475936 Z M10.9896445,5.12477686 L10.9896445,6.03098425 C10.9896445,6.80712575 10.3581758,7.43863501 9.58203125,7.43863501 C8.80588672,7.43863501 8.17441797,6.80716872 8.17441797,6.03098425 L8.17441797,5.12477686 L10.7188984,5.12477686 L10.9896445,5.12477686 Z M8.17441797,4.05129277 C8.17441797,3.23897172 8.83527734,2.57811493 9.64760156,2.57811493 L11.651707,2.57811493 L11.651707,3.33260026 C11.651707,3.84697716 11.2332344,4.26540521 10.7188984,4.26540521 L8.17441797,4.26540521 L8.17441797,4.05129277 L8.17441797,4.05129277 Z M4.7265625,12.5964117 L4.7265625,10.4822286 C4.7265625,9.55909157 5.39648828,8.78995395 6.27558594,8.6341069 L5.80189844,10.4862247 C5.76855469,10.6166343 5.79824609,10.755165 5.88212109,10.860438 L6.74639453,11.945008 C6.68559375,11.919055 6.62316016,11.8959379 6.55892188,11.8763872 L6.14036328,11.7491143 C5.92173828,11.6826848 5.68914844,11.7990438 5.61128906,12.0140156 L5.40057031,12.5964117 L4.7265625,12.5964117 Z M4.41624219,15.6905793 C5.04156641,15.3500963 5.51937891,14.793825 5.76167969,14.1242456 L6.28061328,12.6899973 L6.30892969,12.698591 C6.554625,12.7732704 6.75464453,12.9401604 6.87216406,13.1684954 C6.98968359,13.3967875 7.00927734,13.6565756 6.92733594,13.8999066 L6.47405859,15.2456826 C6.42988672,15.3768227 6.45158594,15.5211972 6.53228125,15.6335171 C6.61297656,15.7458799 6.74287109,15.8125242 6.88127344,15.8125242 L9.60579297,15.8125242 C9.79532812,15.8125242 9.94954297,15.9667384 9.94954297,16.1562728 C9.94954297,16.3458072 9.79537109,16.4999785 9.60579297,16.4999785 L8.71642578,16.4999785 C8.47910937,16.4999785 8.28673828,16.6923918 8.28673828,16.9296643 C8.28673828,17.1669368 8.47910937,17.3593502 8.71642578,17.3593502 L8.83278516,17.3593502 C8.83334375,17.3593502 8.83385937,17.3594361 8.83446094,17.3594361 L10.2265195,17.3594361 C10.4160547,17.3594361 10.5702695,17.5136074 10.5702695,17.7031418 C10.5702695,17.8926762 10.4160977,18.0468904 10.2265195,18.0468904 L9.66758203,18.0468904 L8.83433203,18.0468904 L8.71633984,18.0468904 C8.47902344,18.0468904 8.28665234,18.2393038 8.28665234,18.4765763 C8.28665234,18.7138488 8.47902344,18.9062621 8.71633984,18.9062621 L8.83433203,18.9062621 L9.66758203,18.9062621 C9.85711719,18.9062621 10.011332,19.0604763 10.011332,19.2500107 C10.011332,19.4395452 9.85716016,19.5937164 9.66758203,19.5937164 L9.06636328,19.5937164 L8.79763672,19.5937164 L8.71638281,19.5937164 C8.47906641,19.5937164 8.28669531,19.7861297 8.28669531,20.0234023 C8.28669531,20.2606748 8.47906641,20.4530881 8.71638281,20.4530881 L8.79763672,20.4530881 L9.06636328,20.4530881 C9.25589844,20.4530881 9.41011328,20.6073023 9.41011328,20.7968367 C9.41011328,20.9863711 9.25589844,21.1405854 9.06636328,21.1405854 L8.49058203,21.1405854 L7.67421875,21.1405854 L5.16011719,21.1405854 C4.78383984,21.1405854 4.41538281,21.0709333 4.06501562,20.9335198 L3.78120703,20.8222741 L3.78120703,16.0364335 L4.41624219,15.6905793 Z"/>
    <path d="M17.4411765 13L19.5588235 13C19.8024853 13 20 12.7761 20 12.5 20 12.2239 19.8024853 12 19.5588235 12L17.4411765 12C17.1975147 12 17 12.2239 17 12.5 17 12.7761 17.1975147 13 17.4411765 13zM19.5588235 11L17.4411765 11C17.1975147 11 17 11.2239 17 11.5 17 11.7761 17.1975147 12 17.4411765 12L19.5588235 12C19.8024853 12 20 11.7761 20 11.5 20 11.2239 19.8024853 11 19.5588235 11zM19.5588235 9L17.4411765 9C17.1975147 9 17 9.2239 17 9.5 17 9.7761 17.1975147 10 17.4411765 10L19.5588235 10C19.8024853 10 20 9.7761 20 9.5 20 9.2239 19.8024853 9 19.5588235 9zM15.7922888 6.82937864C15.8810595 6.94308738 15.9973751 7 16.1136906 7 16.2300061 7 16.3463671 6.94308738 16.4350924 6.82937864L17.866878 4.99442718C18.044374 4.76695146 18.044374 4.39809709 17.866878 4.17056311 17.6893821 3.94314563 17.4015704 3.94314563 17.224029 4.17056311L16.1136451 5.59361165 15.775971 5.16085437C15.598475 4.93343689 15.3106634 4.93343689 15.133122 5.16085437 14.955626 5.3883301 14.955626 5.75718447 15.133122 5.98471845L15.7922888 6.82937864z"/>
    <path d="M19.5454545 2L14.4545455 2C14.2035 2 14 2.20354545 14 2.45454545L14 7.54545455C14 7.79645455 14.2035 8 14.4545455 8L19.5454545 8C19.7965 8 20 7.79645455 20 7.54545455L20 2.45454545C20 2.20354545 19.7965 2 19.5454545 2zM19.0909091 7.09090909L14.9090909 7.09090909 14.9090909 2.90909091 19.0909091 2.90909091 19.0909091 7.09090909zM12.5 16C12.3685 16 12.2395 16.053 12.1465 16.1465 12.053 16.2395 12 16.3685 12 16.5 12 16.6315 12.053 16.7605 12.1465 16.8535 12.2395 16.94645 12.3685 17 12.5 17 12.6315 17 12.7605 16.9465 12.8535 16.8535 12.9465 16.7605 13 16.6315 13 16.5 13 16.3685 12.9465 16.2395 12.8535 16.1465 12.7605 16.053 12.6315 16 12.5 16z"/>
  </g>
</svg>
