<svg xmlns="http://www.w3.org/2000/svg" width="27" height="27" viewBox="0 0 27 27">
  <g fill="#E55561">
    <path d="M14.0557015,7.00586453 C11.3907659,6.88907282 9.02811024,8.52500305 8.03608479,11.1710123 C7.93156566,11.4492389 8.06186215,11.7638572 8.32668422,11.8734552 C8.59150628,11.9830532 8.89096662,11.8463731 8.99528438,11.5679349 C9.82438885,9.3569324 11.7933358,7.99161195 14.0158271,8.08830362 C14.0176397,8.08830362 14.0196535,8.08851524 14.0214659,8.08851524 C16.7494352,8.17526268 18.9689058,10.6031338 18.9689058,13.5002875 C18.9689058,16.4869393 16.6561936,18.9167146 13.8134346,18.9167146 C11.6878097,18.9167146 9.7524942,17.5188109 8.99749963,15.4381413 C8.8960013,15.1586452 8.59815199,15.0183682 8.33212164,15.1250041 C8.06609123,15.23164 7.93257263,15.5445656 8.03407096,15.8240617 C8.96870148,18.4000383 11.3094062,20 13.8134346,20 C17.2247052,20 20,17.0842273 20,13.5002875 C20,9.86704982 17.2128234,7.10805728 14.0557015,7.00586453 L14.0557015,7.00586453 Z"/>
    <path d="M13.5,0 C6.22718814,0 0,6.20700073 0,13.5 C0,20.7779617 6.21276855,27 13.5,27 C20.7767258,27 27,20.7884674 27,13.5 C27,6.22718814 20.7929993,0 13.5,0 Z M25.9327469,12.9726563 L23.1349411,12.9726563 C22.8603516,8.15013884 18.8498612,4.13964844 14.0273438,3.86505891 L14.0273438,1.0672531 C20.3653564,1.34699251 25.6530075,6.63464355 25.9327469,12.9726563 Z M13.5,22.0957031 C8.84062956,22.0957031 4.90429687,18.1593704 4.90429687,13.5 C4.90429687,8.84062956 8.84062956,4.90429688 13.5,4.90429688 C18.1593704,4.90429688 22.0957031,8.84062956 22.0957031,13.5 C22.0957031,18.1286774 18.1834717,22.0957031 13.5,22.0957031 Z M12.9726562,1.0672531 L12.9726562,3.86505891 C8.15013884,4.13964844 4.13964844,8.15013884 3.86505891,12.9726562 L1.0672531,12.9726562 C1.34699251,6.63464355 6.63464355,1.34699251 12.9726562,1.0672531 Z M1.0672531,14.0273438 L3.86505891,14.0273438 C4.13964844,18.8498612 8.15013884,22.8603516 12.9726562,23.1349411 L12.9726562,25.9327469 C6.63464355,25.6530075 1.34699251,20.3653564 1.0672531,14.0273438 Z M14.0273438,25.9323349 L14.0273438,23.1351471 C16.194603,23.0136108 18.2489777,22.1457596 19.9053726,20.6510697 L21.8536606,22.5995636 C19.6744538,24.6073837 16.8727341,25.8004989 14.0273438,25.9323349 Z M22.5995636,21.8536606 L20.6510697,19.9053726 C22.1457596,18.2489777 23.0136108,16.194191 23.1351471,14.0267258 L25.9323349,14.0267258 C25.8004989,16.8721161 24.6073837,19.6744538 22.5995636,21.8536606 L22.5995636,21.8536606 Z"/>
    <path d="M7.5230469,13.999414 C7.78847655,13.9875 8,13.7679687 8,13.5 C8,13.2320312 7.78847655,13.013086 7.5234375,13.0005859 C7.5160156,13 7.5080078,13 7.5,13 C7.22402345,13 7,13.2240234 7,13.5 C7,13.7759765 7.22402345,14 7.5,14 C7.5080078,14 7.5154297,14 7.5230469,13.999414 Z"/>
  </g>
</svg>
