<svg xmlns="http://www.w3.org/2000/svg" width="25" height="25" viewBox="0 0 25 25">
  <g fill="#FFF">
    <path d="M7.07989721,3.31010817 L6.01717089,3.31010817 C6.17702371,2.37377248 6.83138652,2.32673158 7.13251957,2.30505949 C7.43336059,2.28338741 7.66364911,2.08385637 7.66364911,1.84486272 L7.66364911,0.462054365 C7.66364911,0.335025454 7.59753533,0.213541638 7.48084336,0.126252583 C7.36415138,0.0389635274 7.20704357,-0.00627521554 7.04684032,0.000702363807 C5.20067749,0.0828622053 3,0.820359995 3,3.86729792 L3,6.27202129 C3,6.67344004 3.41274384,7 3.92010279,7 L7.07995561,7 C7.58731457,7 8.0000584,6.67339384 8,6.27197508 L8,4.03808688 C8,3.63666813 7.58725616,3.31010817 7.07989721,3.31010817 Z M6.83197056,6.0757711 L4.16808784,6.0757711 L4.16808784,3.86729792 C4.16808784,1.74121563 5.36310011,1.14742825 6.49556127,0.979827719 L6.49556127,1.46567056 C5.71346805,1.65401899 4.81333956,2.21028456 4.81333956,3.77219952 C4.81333956,4.02741257 5.07481603,4.23429087 5.39738348,4.23429087 L6.83197056,4.23429087 L6.83197056,6.0757711 Z"/>
    <path d="M11.079908 3.31010817L10.0171356 3.31010817C10.1769866 2.37377248 10.8313418 2.32673158 11.1324713 2.30505949 11.4333088 2.28338741 11.6635946 2.08385637 11.6635946 1.84486272L11.6635946.462054365C11.6635946.335025454 11.5974816.213541638 11.480791.126252583 11.3641004.0389635274 11.2068776-.00627521554 11.0467931.000702363807 9.20065179.0828622053 7 .820359995 7 3.86729792L7 6.27202129C7 6.67344004 7.41273902 7 7.92009204 7L11.079908 7C11.587261 7 12.0000584 6.67339384 12 6.27192887L12 4.03808688C12 3.63666813 11.587261 3.31010817 11.079908 3.31010817zM10.8319258 6.07581731L8.1680742 6.07581731 8.1680742 3.86729792C8.1680742 1.74121563 9.3630725 1.14742825 10.4955204.979827719L10.4955204 1.46567056C9.71343636 1.65401899 8.81331838 2.21028456 8.81331838 3.77219952 8.81331838 4.02741257 9.07479179 4.23429087 9.39735548 4.23429087L10.8319258 4.23429087 10.8319258 6.07581731zM13.8535 4.1465C13.7605 4.0535 13.6315 4 13.5 4 13.3685 4 13.2395 4.0535 13.1465 4.1465 13.0535 4.2395 13 4.3685 13 4.5 13 4.6315 13.0535 4.7605 13.1465 4.8535 13.2395 4.9465 13.3685 5 13.5 5 13.6315 5 13.7605 4.9465 13.8535 4.8535 13.9465 4.7605 14 4.6315 14 4.5 14 4.3685 13.9465 4.2395 13.8535 4.1465z"/>
    <path d="M16.3216309,4 L15.7063477,4 C15.4366699,4 15.2180664,4.21656366 15.2180664,4.48372496 C15.2180664,4.75088625 15.4366699,4.96744992 15.7063477,4.96744992 L16.3216309,4.96744992 C20.5684082,4.96744992 24.0234375,8.39023935 24.0234375,12.5973888 C24.0234375,16.1881759 21.4527344,19.3285184 17.910791,20.0644091 C17.684668,20.1114272 17.5227539,20.3089805 17.5227539,20.5378307 L17.5227539,23.3484662 L14.5152344,20.3690107 C14.4236816,20.2783123 14.2994629,20.2273277 14.1699707,20.2273277 L8.67836914,20.2273277 C4.4315918,20.2273277 0.9765625,16.8045383 0.9765625,12.5973888 C0.9765625,11.3007641 1.31069336,10.0203925 1.94287109,8.89457099 C2.07402344,8.66112533 1.98920898,8.3665852 1.75356445,8.23670505 C1.51787109,8.10677653 1.22055664,8.19079955 1.08950195,8.42424522 C0.376708984,9.69349114 0,11.1365394 0,12.5973888 C0,17.3380385 3.89306641,21.1947776 8.67836914,21.1947776 L13.9677246,21.1947776 L17.6657715,24.858317 C17.7591797,24.9508535 17.8840332,25 18.0111328,25 C18.0740234,25 18.1375,24.9879552 18.1979004,24.9631402 C18.3803223,24.8883079 18.4993164,24.7119418 18.4993164,24.516275 L18.4993164,20.9211828 C20.2660645,20.4676423 21.8635742,19.4584469 23.0309082,18.0506138 C24.3006836,16.5192857 25,14.5826444 25,12.5973888 C25,7.85678747 21.1069336,4 16.3216309,4 Z"/>
    <path d="M18.5115114 8L6.48848858 8C6.21869634 8 6 8.22385 6 8.5 6 8.77615 6.21869634 9 6.48848858 9L18.5114626 9C18.7812548 9 19 8.77615 19 8.5 19 8.22385 18.7813037 8 18.5115114 8zM18.5115114 11L6.48848858 11C6.21869634 11 6 11.22385 6 11.5 6 11.77615 6.21869634 12 6.48848858 12L18.5114626 12C18.7812548 12 19 11.77615 19 11.5 19 11.22385 18.7813037 11 18.5115114 11zM18.5115114 14L6.48848858 14C6.21869634 14 6 14.2239 6 14.5 6 14.7761 6.21869634 15 6.48848858 15L18.5114626 15C18.7812548 15 19 14.7761 19 14.5 19 14.2239 18.7813037 14 18.5115114 14zM18.5370125 17L12.4629875 17C12.2072795 17 12 17.2239 12 17.5 12 17.7761 12.2072795 18 12.4629875 18L18.5370125 18C18.7927205 18 19 17.7761 19 17.5 19 17.2239 18.7927205 17 18.5370125 17zM9.50399286 17L9.49600714 17C9.2220624 17 9 17.2239 9 17.5 9 17.7761 9.2220624 18 9.49600714 18L9.50399286 18C9.7779376 18 10 17.7761 10 17.5 10 17.2239 9.7779376 17 9.50399286 17z"/>
  </g>
</svg>
