<svg xmlns="http://www.w3.org/2000/svg" width="23" height="23" viewBox="0 0 23 23">
  <g fill="#E55561">
    <path d="M15.5505618,14.4349112 C15.302382,14.4349112 15.1011236,14.6335947 15.1011236,14.8786982 L15.1011236,17.9408284 C15.1011236,19.1643491 14.0930337,20.1597633 12.8539326,20.1597633 L8.0014382,20.1597633 C7.75330337,20.1597633 7.55217978,20.3582692 7.552,20.6032396 L7.55137079,21.4855769 L6.47865169,20.4263905 C6.40921348,20.2689793 6.25029213,20.1597633 6.06647191,20.1597633 L3.14606742,20.1597633 C1.90696629,20.1597633 0.898876404,19.1643491 0.898876404,17.9408284 L0.898876404,11.1065089 C0.898876404,9.88298817 1.90696629,8.88757396 3.14606742,8.88757396 L7.68539326,8.88757396 C7.93357303,8.88757396 8.13483146,8.68889053 8.13483146,8.44378698 C8.13483146,8.19868343 7.93357303,8 7.68539326,8 L3.14606742,8 C1.41132584,8 0,9.39357988 0,11.1065089 L0,17.9408284 C0,19.6537574 1.41132584,21.0473373 3.14606742,21.0473373 L5.83631461,21.0473373 L7.68220225,22.8700148 C7.76817978,22.9549112 7.88310112,23 8.00008989,23 C8.05793258,23 8.11631461,22.9889497 8.17182022,22.9662722 C8.33977528,22.8976627 8.44930337,22.7359467 8.4494382,22.5565237 L8.45051685,21.0473373 L12.8539326,21.0473373 C14.5886742,21.0473373 16,19.6537574 16,17.9408284 L16,14.8786982 C16,14.6335947 15.7987416,14.4349112 15.5505618,14.4349112 Z"/>
    <path d="M16.5606646,0 L15.4393797,0 C11.8886962,0 9,2.79789735 9,6.23697415 C9,9.67605094 11.8886962,12.4739054 15.4393354,12.4739054 L16.5606203,12.4739054 C17.1148165,12.4739054 17.6633418,12.4057195 18.1949873,12.2709782 L19.8513734,13.8743989 C19.9361266,13.9564022 20.0493671,14 20.1646456,14 C20.2217532,14 20.2793481,13.9893151 20.3341519,13.9673017 C20.4996709,13.9008751 20.6075949,13.7444208 20.6075949,13.5708878 L20.6075949,11.0882163 C21.3088797,10.5381373 21.8914304,9.84327597 22.3002658,9.067012 C22.7646139,8.18535808 23,7.23320102 23,6.23697415 C23,2.79789735 20.1113038,0 16.5606646,0 Z M19.897981,10.5362063 C19.7869114,10.6172656 19.721519,10.744197 19.721519,10.8789812 L19.721519,12.5353542 L18.6373608,11.4858316 C18.5530063,11.4042145 18.4398544,11.3602305 18.3241329,11.3602305 C18.2807152,11.3602305 18.2368544,11.3664526 18.194057,11.3791973 C17.6667089,11.5361665 17.1171646,11.6157239 16.5606646,11.6157239 L15.4393797,11.6157239 C12.3772342,11.6157239 9.88607595,9.20282601 9.88607595,6.23697415 C9.88607595,3.27112228 12.3772785,0.858224395 15.4393797,0.858224395 L16.5606646,0.858224395 C19.6227658,0.858224395 22.1139241,3.27112228 22.1139241,6.23697415 C22.1139241,7.94187982 21.3062658,9.50891174 19.897981,10.5362063 Z"/>
    <path d="M17.9950769 5.68612622C17.9269106 4.78925153 17.1296997 4.06626814 16.1406972 4.00444869 15.5800609 3.96953334 15.0450283 4.14102555 14.6355106 4.48773713 14.2316144 4.82965052 14 5.31298179 14 5.813835 14 6.05044541 14.2115377 6.24224422 14.4723932 6.24224422 14.7332488 6.24224422 14.9447865 6.05044541 14.9447865 5.813835 14.9447865 5.54569368 15.0639241 5.29717349 15.2801857 5.11411424 15.4962584 4.93122634 15.778655 4.84070348 16.0757904 4.85929644 16.5967457 4.89185554 17.016656 5.27266849 17.0525579 5.74507532 17.0888377 6.22219467 16.74366 6.64383501 16.2318691 6.74768141 15.8172023 6.83182097 15.5276253 7.15861152 15.5276253 7.54233765L15.5276253 8.57159079C15.5276253 8.8082012 15.739163 9 16.0000185 9 16.2609213 9 16.4724118 8.8082012 16.4723645 8.57159079L16.4723645 7.57656755C17.4242369 7.36801795 18.0628653 6.57811704 17.9950769 5.68612622zM16.8535 10.1465C16.7605 10.0535 16.6315 10 16.5 10 16.3685 10 16.2395 10.0535 16.1465 10.1465 16.0535 10.2395 16 10.3685 16 10.5 16 10.632 16.05355 10.761 16.1465 10.854 16.2395 10.947 16.3685 11 16.5 11 16.6315 11 16.7605 10.947 16.8535 10.854 16.9465 10.7605 17 10.632 17 10.5 17 10.3685 16.94645 10.2395 16.8535 10.1465zM12.5238095 13L2.47619048 13C2.2132381 13 2 13.22385 2 13.5 2 13.77615 2.2132381 14 2.47619048 14L12.5238095 14C12.7868095 14 13 13.77615 13 13.5 13 13.22385 12.7867619 13 12.5238095 13zM11.85345 16.1465C11.7605 16.0535 11.6315 16 11.5 16 11.3685 16 11.2395 16.0535 11.1465 16.1465 11.05345 16.2395 11 16.3685 11 16.5 11 16.6315 11.0535 16.7605 11.1465 16.8535 11.2395 16.9465 11.3685 17 11.5 17 11.6315 17 11.7605 16.9465 11.85345 16.8535 11.9465 16.7605 12 16.632 12 16.5 12 16.3685 11.94645 16.2395 11.85345 16.1465z"/>
    <path d="M11.5304356 16L3.4695644 16C3.21027094 16 3 16.22385 3 16.5 3 16.77615 3.21027094 17 3.4695644 17L11.5304356 17C11.789776 17 12 16.77615 12 16.5 12 16.22385 11.7897291 16 11.5304356 16zM9.57831325 11L3.42168675 11C3.18883133 11 3 11.22385 3 11.5 3 11.77615 3.18883133 12 3.42168675 12L9.57831325 12C9.81121084 12 10 11.77615 10 11.5 10 11.22385 9.81116867 11 9.57831325 11z"/>
  </g>
</svg>
