<svg xmlns="http://www.w3.org/2000/svg" width="60" height="60" viewBox="0 0 60 60">
  <g fill="none" fill-rule="evenodd">
    <rect width="59" height="59" x=".5" y=".5" fill="#FFF" stroke="#E55561" rx="11"/>
    <g fill="#E55561" fill-rule="nonzero" transform="translate(6 12)">
      <path d="M33.0449438,22.8668639 C32.5175618,22.8668639 32.0898876,23.1715118 32.0898876,23.5473373 L32.0898876,28.2426036 C32.0898876,30.1186686 29.9476966,31.6449704 27.3146067,31.6449704 L17.0030562,31.6449704 C16.4757697,31.6449704 16.048382,31.9493462 16.048,32.3249675 L16.0466629,33.6778846 L13.7671348,32.0537988 C13.6195787,31.8124349 13.2818708,31.6449704 12.8912528,31.6449704 L6.68539326,31.6449704 C4.05230337,31.6449704 1.91011236,30.1186686 1.91011236,28.2426036 L1.91011236,17.7633136 C1.91011236,15.8872485 4.05230337,14.3609467 6.68539326,14.3609467 L16.3314607,14.3609467 C16.8588427,14.3609467 17.2865169,14.0562988 17.2865169,13.6804734 C17.2865169,13.3046479 16.8588427,13 16.3314607,13 L6.68539326,13 C2.99906742,13 0,15.1368225 0,17.7633136 L0,28.2426036 C0,30.8690947 2.99906742,33.0059172 6.68539326,33.0059172 L12.4021685,33.0059172 L16.3246798,35.8006893 C16.507382,35.9308639 16.7515899,36 17.000191,36 C17.1231067,36 17.2471685,35.9830562 17.365118,35.948284 C17.7220225,35.8430828 17.9547697,35.5951183 17.9550562,35.320003 L17.9573483,33.0059172 L27.3146067,33.0059172 C31.0009326,33.0059172 34,30.8690947 34,28.2426036 L34,23.5473373 C34,23.1715118 33.5723258,22.8668639 33.0449438,22.8668639 Z"/>
      <path d="M35.2014241,0 L32.7986709,0 C25.1900633,0 19,4.39669584 19,9.80095937 C19,15.2052229 25.1900633,19.6018513 32.7985759,19.6018513 L35.2013291,19.6018513 C36.3888924,19.6018513 37.5643038,19.494702 38.7035443,19.2829658 L42.252943,21.8026268 C42.434557,21.9314892 42.6772152,22 42.9242405,22 C43.0466139,22 43.1700316,21.9832095 43.2874684,21.9486169 C43.6421519,21.8442323 43.8734177,21.5983755 43.8734177,21.3256808 L43.8734177,17.4243399 C45.3761709,16.5599301 46.6244937,15.4680051 47.5005696,14.2481617 C48.4956013,12.8627056 49,11.3664588 49,9.80095937 C49,4.39669584 42.8099367,0 35.2014241,0 Z M42.3528165,16.5568957 C42.1148101,16.6842746 41.9746835,16.8837382 41.9746835,17.0955418 L41.9746835,19.6984138 L39.6514873,18.049164 C39.4707278,17.9209085 39.2282595,17.8517908 38.9802848,17.8517908 C38.8872468,17.8517908 38.7932595,17.8615684 38.7015506,17.8815957 C37.571519,18.1282616 36.3939241,18.2532804 35.2014241,18.2532804 L32.7986709,18.2532804 C26.2369304,18.2532804 20.8987342,14.4615837 20.8987342,9.80095937 C20.8987342,5.14033501 26.2370253,1.34863834 32.7986709,1.34863834 L35.2014241,1.34863834 C41.7630696,1.34863834 47.1012658,5.14033501 47.1012658,9.80095937 C47.1012658,12.4800969 45.3705696,14.9425756 42.3528165,16.5568957 Z"/>
      <path d="M37.988923 8.69780195C37.8355487 7.26280245 36.0418244 6.10602903 33.8165687 6.00711791 32.5551371 5.95125335 31.3513137 6.22564088 30.4298989 6.7803794 29.5211324 7.32744083 29 8.10077087 29 8.90213601 29 9.28071266 29.4759598 9.58759075 30.0628848 9.58759075 30.6498098 9.58759075 31.1257696 9.28071266 31.1257696 8.90213601 31.1257696 8.47310988 31.3938291 8.07547759 31.8804178 7.78258278 32.3665813 7.48996215 33.0019738 7.34512556 33.6705284 7.3748743 34.8426777 7.42696886 35.787476 8.03626958 35.8682553 8.79212052 35.9498848 9.55551146 35.1732349 10.230136 34.0217055 10.3962902 33.0887052 10.5309136 32.4371569 11.0537784 32.4371569 11.6677402L32.4371569 13.3145453C32.4371569 13.6931219 32.9131167 14 33.5000417 14 34.0870729 14 34.5629265 13.6931219 34.5628202 13.3145453L34.5628202 11.7225081C36.704533 11.3888287 38.141447 10.1249873 37.988923 8.69780195zM34.8535 16.1465C34.7605 16.0535 34.6315 16 34.5 16 34.3685 16 34.2395 16.0535 34.1465 16.1465 34.0535 16.2395 34 16.3685 34 16.5 34 16.632 34.05355 16.761 34.1465 16.854 34.2395 16.947 34.3685 17 34.5 17 34.6315 17 34.7605 16.947 34.8535 16.854 34.9465 16.7605 35 16.632 35 16.5 35 16.3685 34.94645 16.2395 34.8535 16.1465zM27.047619 21L6.95238095 21C6.42647619 21 6 21.22385 6 21.5 6 21.77615 6.42647619 22 6.95238095 22L27.047619 22C27.573619 22 28 21.77615 28 21.5 28 21.22385 27.5735238 21 27.047619 21zM23.85345 26.1465C23.7605 26.0535 23.6315 26 23.5 26 23.3685 26 23.2395 26.0535 23.1465 26.1465 23.05345 26.2395 23 26.3685 23 26.5 23 26.6315 23.0535 26.7605 23.1465 26.8535 23.2395 26.9465 23.3685 27 23.5 27 23.6315 27 23.7605 26.9465 23.85345 26.8535 23.9465 26.7605 24 26.632 24 26.5 24 26.3685 23.94645 26.2395 23.85345 26.1465z"/>
      <path d="M25.0086974 26L7.99130262 26C7.44390531 26 7 26.22385 7 26.5 7 26.77615 7.44390531 27 7.99130262 27L25.0086974 27C25.5561938 27 26 26.77615 26 26.5 26 26.22385 25.5560947 26 25.0086974 26zM20.0963855 18L6.90361446 18C6.40463855 18 6 18.22385 6 18.5 6 18.77615 6.40463855 19 6.90361446 19L20.0963855 19C20.5954518 19 21 18.77615 21 18.5 21 18.22385 20.5953614 18 20.0963855 18z"/>
    </g>
  </g>
</svg>
