<svg xmlns="http://www.w3.org/2000/svg" xmlns:xlink="http://www.w3.org/1999/xlink" width="60" height="60" viewBox="0 0 60 60">
  <defs>
    <polygon id="acao-adjetivos-a" points="0 .002 13.466 .002 13.466 10.791 0 10.791"/>
    <polygon id="acao-adjetivos-c" points=".071 .003 4.829 .003 4.829 6.622 .071 6.622"/>
  </defs>
  <g fill="none" fill-rule="evenodd">
    <rect width="59" height="59" x=".5" y=".5" fill="#FFF" stroke="#E55561" rx="11"/>
    <g transform="translate(8 12)">
      <path fill="#FFF" d="M28.85345,11.1465 C28.7605,11.0535 28.63195,11 28.5,11 C28.3685,11 28.2395,11.05345 28.14645,11.1465 C28.0535,11.2395 28,11.3685 28,11.5 C28,11.6315 28.05345,11.7605 28.14645,11.85345 C28.2395,11.94645 28.3685,12 28.5,12 C28.63195,12 28.7605,11.9465 28.85345,11.85345 C28.9464,11.7605 29,11.6315 29,11.5 C29,11.3685 28.94645,11.2395 28.85345,11.1465"/>
      <path fill="#E55461" d="M43.9975915 14.8949666C43.9712286 13.7328858 43.7267056 12.585723 43.2710035 11.4855931 43.1514058 11.1969031 42.7960115 11.0003453 42.3940458 11.0003453L32.5101524 11.0003453C32.0030105 11.0003453 31.5917672 11.3096166 31.5917672 11.6909222 31.5917672 12.0722968 32.0031023 12.381499 32.5101524 12.381499L41.7014448 12.381499C41.986936 13.2064755 42.1412556 14.0576966 42.1607293 14.9184485 42.2149248 17.3181667 41.2033967 20.0989834 39.5209459 22.1755484 37.8976509 24.178974 37.1821776 26.5638433 37.5065243 28.8908365L38.3045769 34.6189154 26.3534442 34.6189154 26.3534442 32.6902177C26.3534442 31.5942317 25.7844826 30.5646168 24.75146 29.7911625 23.7241325 29.0221283 22.3620785 28.5992458 20.9133117 28.5992458 20.897053 28.5993149 20.8807025 28.599453 20.8642601 28.5993839 19.3965707 28.5993839 18.0181661 28.1692497 16.9809181 27.3873004 15.937975 26.6008619 15.3693808 25.5561909 15.3799444 24.4455633L15.4014389 22.1973037C15.4031841 22.0132466 15.3071937 21.8363031 15.1347783 21.705702 14.9622711 21.5751008 14.7276686 21.5016852 14.4828699 21.5016852L11.3194105 21.5016852C12.2671899 19.7569065 13.7301027 16.6438892 13.7301027 15.1044395 13.7301027 14.1806315 13.8867187 13.266907 14.1961846 12.3811537L25.4834676 12.3811537C25.9907013 12.3811537 26.4019446 12.0718824 26.4019446 11.6905768 26.4019446 11.3092712 25.9906095 11 25.4834676 11L13.5053289 11C13.104098 11 12.7492548 11.1958672 12.629106 11.4837284 12.1407029 12.6527156 11.8930567 13.8708768 11.8930567 15.1045085 11.8930567 16.612741 9.9470685 20.5591607 9.09132969 21.8920382 8.95391178 22.1061385 8.97255873 22.3581551 9.14056499 22.5594094 9.30857124 22.7606636 9.60242144 22.8829079 9.91859286 22.8829079L13.5577792 22.8829079 13.5428984 24.435618C13.5288443 25.9181585 14.2876741 27.3127106 15.6801327 28.3624924 17.0646916 29.4064037 18.9044933 29.9805376 20.8640764 29.9805376 20.8804269 29.9804685 20.8965937 29.9803304 20.9130361 29.9803995 21.8724813 29.9803995 22.7748834 30.2605254 23.4552674 30.7698768 24.1395094 31.2821288 24.5163982 31.9640726 24.5163982 32.6900796L24.5163982 35.3094232C24.5163982 35.6907978 24.9277334 36 25.4348753 36L39.3245559 36C39.5848783 36 39.8328919 35.9169844 40.0071444 35.7715343 40.181397 35.6260843 40.2653542 35.4320128 40.2381645 35.2373888L39.3336497 28.7467678C39.0510061 26.7190314 39.6747143 24.6404636 41.0898616 22.8939582 42.9711826 20.5720758 44.0582171 17.5816482 43.9975915 14.8949666M35.5000563 0C33.5701208 0 32 1.42483393 32 3.17618804 32 3.7406234 32.5043036 4.19805825 33.1260679 4.19805825 33.7478321 4.19805825 34.2521357 3.74041901 34.2521357 3.17618804 34.2521357 2.5517629 34.81196 2.04384262 35.4999437 2.04384262 36.1879273 2.04384262 36.7477517 2.5518651 36.7477517 3.17618804 36.7477517 3.80051099 36.1879273 4.30863567 35.4999437 4.30863567 34.8781794 4.30863567 34.3738758 4.76627491 34.3738758 5.33050588L34.3738758 5.97812979C34.3738758 6.54246295 34.8782921 7 35.4999437 7 36.0414113 7 36.4933475 6.65324476 36.6014608 6.19121104 37.9931947 5.77138477 39 4.57843638 39 3.17608585 39.0001126 1.42483393 37.4299918 0 35.5000563 0M35.85345 7.146C35.7605 7.053 35.6315 7 35.5 7 35.36845 7 35.23945 7.05305 35.1465 7.146 35.0535 7.2395 35 7.368 35 7.5 35 7.6315 35.05345 7.7605 35.1465 7.8535 35.23945 7.9465 35.36845 8 35.5 8 35.6315 8 35.75995 7.94655 35.85345 7.8535 35.9464 7.7605 36 7.6315 36 7.5 36 7.368 35.9465 7.2395 35.85345 7.146"/>
      <mask id="acao-adjetivos-b" fill="#fff">
        <use xlink:href="#acao-adjetivos-a"/>
      </mask>
      <path fill="#E55461" d="M9.45529176,6.17723787 C9.365558,6.24906317 9.2849614,6.32627536 9.21401915,6.40790757 L5.75862297,3.6394568 C5.66328624,3.56307336 5.64906292,3.4739133 5.64906292,3.42750311 C5.64897711,3.38116198 5.66320004,3.29200193 5.75862297,3.21554943 L7.68828667,1.66950994 L11.3848693,4.63119838 L9.45529176,6.17723787 Z M7.69776862,7.58528992 L5.77750068,9.12380157 L2.08091809,6.16204406 L4.00118603,4.62346335 C4.09652276,4.54714897 4.20780641,4.53568455 4.26564633,4.53568455 C4.32357244,4.53568455 4.43485609,4.54707991 4.53019282,4.62346335 L7.9856752,7.39198318 C7.8837873,7.44889092 7.78741618,7.51346462 7.69776862,7.58528992 L7.69776862,7.58528992 Z M13.2134208,5.11961039 C13.5500302,4.84992022 13.5500302,4.41268373 13.2134208,4.14292449 L8.29771766,0.204619217 C7.96102212,-0.0650018926 7.41546501,-0.0650018926 7.07868327,0.204619217 L4.53967478,2.23893259 C4.21909856,2.49577709 4.01515036,2.8210628 3.94886289,3.17362832 C3.50872786,3.2267376 3.10272786,3.39014015 2.78223783,3.64698464 L0.252452696,5.67377017 C-0.0841566454,5.94346035 -0.0841566454,6.38069683 0.252452696,6.65045607 L5.16806968,10.5888304 C5.33641745,10.723641 5.55700217,10.7911153 5.77758688,10.7911153 C5.99817159,10.7911153 6.21875631,10.723641 6.38710408,10.5888304 L8.91688921,8.56190675 C9.01222594,8.48559237 9.1235096,8.47412795 9.18134951,8.47412795 C9.23936183,8.47419702 9.35064548,8.48559237 9.44598221,8.56197581 C9.78267775,8.83159692 10.3282349,8.83159692 10.6650166,8.56197581 C10.6665682,8.56073268 10.6678612,8.55928237 10.669499,8.55803924 C10.6711368,8.55679611 10.6728608,8.55576016 10.6744124,8.55444797 C10.8426739,8.41956835 10.9268909,8.24283669 10.9268909,8.06610502 C10.9268909,7.88937336 10.8426739,7.71264169 10.6744124,7.57776207 C10.5790756,7.50137864 10.5648527,7.41221858 10.5648527,7.36580839 C10.5648527,7.31946726 10.5790756,7.23030721 10.6744124,7.15392377 L13.2134208,5.11961039 Z" mask="url(#acao-adjetivos-b)"/>
      <path fill="#E55461" d="M30.752086 6.60863286L29.747914 6.60863286 29.747914 5.89136714C29.747914 5.39910498 29.1890422 5 28.5 5 27.810833 5 27.252086 5.39919412 27.252086 5.89136714L27.252086 6.60863286 26.247914 6.60863286C25.558747 6.60863286 25 7.00782699 25 7.5 25 7.99217301 25.5588718 8.39136714 26.247914 8.39136714L27.252086 8.39136714 27.252086 9.10863286C27.252086 9.60089502 27.8109578 10 28.5 10 29.189167 10 29.747914 9.60080588 29.747914 9.10863286L29.747914 8.39136714 30.752086 8.39136714C31.4411282 8.39136714 32 7.99217301 32 7.5 32 7.00782699 31.4411282 6.60863286 30.752086 6.60863286M41.5 7.27591558C40.9009759 7.27591558 40.4138389 6.92787434 40.4138389 6.5 40.4138389 6.07212566 40.9010966 5.72417063 41.5 5.72417063 42.0990241 5.72417063 42.5862818 6.07221188 42.5862818 6.5 42.5862818 6.92778812 42.0989034 7.27591558 41.5 7.27591558M41.5 4C39.57016 4 38 5.12154287 38 6.5 38 7.87845713 39.57016 9 41.5 9 43.42984 9 45 7.87845713 45 6.5 45.0001207 5.12154287 43.42984 4 41.5 4"/>
      <g transform="translate(24)">
        <mask id="acao-adjetivos-d" fill="#fff">
          <use xlink:href="#acao-adjetivos-c"/>
        </mask>
        <path fill="#E55461" d="M4.04567807,0.0716628889 C3.57137544,-0.0672443333 3.02482719,0.00860455556 2.6604193,0.263342333 L0.445989474,1.81198344 C-0.0520982456,2.160459 -0.0542605263,2.72664233 0.44115614,3.07690678 C0.9367,3.42699233 1.74183158,3.42869178 2.2399193,3.08021622 L2.28532719,3.048374 L2.28532719,5.72714567 C2.28532719,6.22105789 2.85502456,6.62150067 3.55712982,6.62150067 C4.25961667,6.62150067 4.8289325,6.22096844 4.8289325,5.72714567 L4.8289325,0.897414 C4.82905965,0.536058444 4.5199807,0.210301778 4.04567807,0.0716628889" mask="url(#acao-adjetivos-d)"/>
      </g>
      <path fill="#E55461" d="M18.9999608,8.62855491 C17.6586467,8.62855491 16.5673351,7.6737071 16.5673351,6.50003429 C16.5673351,5.32636147 17.6586467,4.37144509 18.9999608,4.37144509 C20.3412749,4.37144509 21.4325865,5.32636147 21.4325865,6.50003429 C21.4325865,7.6737071 20.3412749,8.62855491 18.9999608,8.62855491 M18.9999608,3 C16.7943749,3 15,4.57010884 15,6.50003429 C15,8.42995974 16.7944533,10 18.9999608,10 C21.2055467,10 23,8.42995974 23,6.50003429 C23,4.57010884 21.2055467,3 18.9999608,3"/>
      <path fill="#E55461" d="M23.2751716 5.97706806L23.2751716 5.04701571C23.2751716 4.46879581 22.7657097 4 22.1375858 4 21.5094619 4 21 4.46890052 21 5.04701571L21 6.95298429C21 7.5313089 21.5094619 8 22.1375858 8L22.8624142 8C23.4906519 8 24 7.53109948 24 6.95298429 24 6.50879581 23.699306 6.12921466 23.2751716 5.97706806M37.9983539 15.7087759C37.9907222 15.314691 37.6325957 15 37.1954211 15 37.1907618 15 37.1861828 15 37.1815234 15.0000721 36.7379222 15.0069226 36.384455 15.3351704 36.3920064 15.7332935 36.4225331 17.3410732 35.9647128 19.1582623 35.0681112 20.9884314 34.8896103 21.353023 35.0740559 21.7784039 35.4800611 21.938778 35.5853783 21.9802417 35.6951137 22 35.8031622 22 36.1120443 22 36.406627 21.8391211 36.5389362 21.5689224 37.5279212 19.5495349 38.0327366 17.5232248 37.9983539 15.7087759"/>
      <path fill="#E55461" d="M35.7612376,21.0714284 C35.5271091,20.9303684 35.2224547,21.0046935 35.0805602,21.2374771 L35.0718374,21.2517212 C34.9299924,21.4845048 35.0046816,21.7875227 35.23881,21.9286321 C35.31905,21.9769829 35.4076164,22 35.4951915,22 C35.6628085,22 35.8262622,21.9154724 35.9194378,21.7625341 L35.9281606,21.7482901 C36.0700056,21.5155557 35.9953164,21.2124885 35.7612376,21.0714284"/>
    </g>
  </g>
</svg>
