<svg xmlns="http://www.w3.org/2000/svg" width="60" height="60" viewBox="0 0 60 60">
  <g fill="none" fill-rule="evenodd">
    <rect width="59" height="59" x=".5" y=".5" fill="#FFF" stroke="#E55561" rx="11"/>
    <g fill="#E55461" fill-rule="nonzero" transform="translate(10 13)">
      <path d="M12.343815,4.25585337 L10.4309076,4.25585337 C10.7186427,3.05199319 11.8964957,2.99151203 12.4385352,2.96364792 C12.9800491,2.93578381 13.3945684,2.6792439 13.3945684,2.37196636 L13.3945684,0.594069898 C13.3945684,0.430747012 13.2755636,0.274553535 13.065518,0.162324749 C12.8554725,0.0500959637 12.5726784,-0.00806813426 12.2843126,0.00090303918 C8.96121948,0.106537121 5,1.05474857 5,4.97224018 L5,8.06402737 C5,8.5801372 5.74293891,9 6.65618503,9 L12.3439201,9 C13.2571662,9 14.0001051,8.58007779 14,8.06396796 L14,5.19182599 C14,4.67571617 13.2570611,4.25585337 12.343815,4.25585337 Z M11.897547,7.8117057 L7.10255811,7.8117057 L7.10255811,4.97224018 C7.10255811,2.23870581 9.25358019,1.47526489 11.2920103,1.2597785 L11.2920103,1.88443358 C9.8842425,2.12659585 8.26401121,2.84179443 8.26401121,4.84997081 C8.26401121,5.17810188 8.73466885,5.44408826 9.31529027,5.44408826 L11.897547,5.44408826 L11.897547,7.8117057 Z"/>
      <path d="M18.3438343 4.25585337L16.4308442 4.25585337C16.7185759 3.05199319 17.8964152 2.99151203 18.4384483 2.96364792 18.9799558 2.93578381 19.3944703 2.6792439 19.3944703 2.37196636L19.3944703.594069898C19.3944703.430747012 19.2754669.274553535 19.0654238.162324749 18.8553807.0500959637 18.5723797-.00806813426 18.2842275.00090303918 14.9611732.106537121 11 1.05474857 11 4.97224018L11 8.06402737C11 8.5801372 11.7429302 9 12.6561657 9L18.3438343 9C19.2570698 9 20.0001051 8.58007779 20 8.06390855L20 5.19182599C20 4.67571617 19.2570698 4.25585337 18.3438343 4.25585337zM17.8974664 7.81176511L13.1025336 7.81176511 13.1025336 4.97224018C13.1025336 2.23870581 15.2535305 1.47526489 17.2919368 1.2597785L17.2919368 1.88443358C15.8841854 2.12659585 14.2639731 2.84179443 14.2639731 4.84997081 14.2639731 5.17810188 14.7346252 5.44408826 15.3152399 5.44408826L17.8974664 5.44408826 17.8974664 7.81176511zM22.8535 7.1465C22.7605 7.0535 22.6315 7 22.5 7 22.3685 7 22.2395 7.0535 22.1465 7.1465 22.0535 7.2395 22 7.3685 22 7.5 22 7.6315 22.0535 7.7605 22.1465 7.8535 22.2395 7.9465 22.3685 8 22.5 8 22.6315 8 22.7605 7.9465 22.8535 7.8535 22.9465 7.7605 23 7.6315 23 7.5 23 7.3685 22.9465 7.2395 22.8535 7.1465z"/>
      <path d="M26.7674746,6 L25.7584102,6 C25.3161387,6 24.9576289,6.29906411 24.9576289,6.66800113 C24.9576289,7.03693816 25.3161387,7.33600227 25.7584102,7.33600227 L26.7674746,7.33600227 C33.7321895,7.33600227 39.3984375,12.0627115 39.3984375,17.8725845 C39.3984375,22.8312906 35.1824844,27.1679539 29.3736973,28.184184 C29.0028555,28.2491137 28.7373164,28.5219254 28.7373164,28.8379567 L28.7373164,32.7193105 L23.8049844,28.6048244 C23.6548379,28.4795741 23.4511191,28.4091668 23.238752,28.4091668 L14.2325254,28.4091668 C7.26781055,28.4091668 1.6015625,23.6824576 1.6015625,17.8725845 C1.6015625,16.0820075 2.14953711,14.3138753 3.18630859,12.7591695 C3.40139844,12.4367921 3.26230273,12.0300462 2.8758457,11.8506879 C2.48930859,11.6712628 2.00171289,11.7872946 1.7867832,12.109672 C0.617802734,13.8624401 0,15.8552211 0,17.8725845 C0,24.419196 6.38462891,29.7451691 14.2325254,29.7451691 L22.9070684,29.7451691 L28.9718652,34.8043425 C29.1250547,34.9321311 29.3298145,35 29.5382578,35 C29.6413984,35 29.7455,34.9833668 29.8445566,34.9490983 C30.1437285,34.8457585 30.3388789,34.6022053 30.3388789,34.3319989 L30.3388789,29.3673476 C33.2363457,28.7410298 35.8562617,27.347379 37.7706895,25.4032285 C39.8531211,23.2885373 41,20.614128 41,17.8725845 C41,11.3260398 34.6153711,6 26.7674746,6 Z"/>
      <path d="M30.173327 12L9.82667298 12C9.37010149 12 9 12.22385 9 12.5 9 12.77615 9.37010149 13 9.82667298 13L30.1732444 13C30.6298158 13 31 12.77615 31 12.5 31 12.22385 30.6298985 12 30.173327 12zM30.173327 16L9.82667298 16C9.37010149 16 9 16.22385 9 16.5 9 16.77615 9.37010149 17 9.82667298 17L30.1732444 17C30.6298158 17 31 16.77615 31 16.5 31 16.22385 30.6298985 16 30.173327 16zM30.173327 20L9.82667298 20C9.37010149 20 9 20.2239 9 20.5 9 20.7761 9.37010149 21 9.82667298 21L30.1732444 21C30.6298158 21 31 20.7761 31 20.5 31 20.2239 30.6298985 20 30.173327 20zM30.2724483 25L20.7275517 25C20.3257249 25 20 25.2239 20 25.5 20 25.7761 20.3257249 26 20.7275517 26L30.2724483 26C30.6742751 26 31 25.7761 31 25.5 31 25.2239 30.6742751 25 30.2724483 25zM15.5039929 25L15.4960071 25C15.2220624 25 15 25.2239 15 25.5 15 25.7761 15.2220624 26 15.4960071 26L15.5039929 26C15.7779376 26 16 25.7761 16 25.5 16 25.2239 15.7779376 25 15.5039929 25z"/>
    </g>
  </g>
</svg>
