<svg xmlns="http://www.w3.org/2000/svg" width="33" height="33" viewBox="0 0 33 33">
  <path d="M16.5 4C16.7761719 4 17 3.74388202 17 3.42786903L17 .572130968C17 .256117975 16.7761719 0 16.5 0 16.2240235 0 16 .256117975 16 .572130968L16 3.42786903C16 3.74388202 16.2240235 4 16.5 4zM10.7227069 5.78093012C10.868867 5.92717171 11.0603366 6 11.2515141 6 11.4432761 6 11.6347459 5.92687917 11.780906 5.78063765 12.0732262 5.48815447 12.0729338 5.01403918 11.7806136 4.721556L9.27718352 2.21906991C8.98486332 1.92687927 8.51101223 1.92687927 8.21898433 2.21965491 7.92695651 2.51213809 7.92695651 2.98625331 8.21927671 3.27844403L10.7227069 5.78093012zM6.49970715 2C6.6277571 2 6.75541663 1.95117781 6.85301573 1.85372877L6.85379647 1.85294767C7.04899456 1.65765902 7.04860419 1.3414867 6.8534061 1.14619806 6.65840319.951104693 6.34159667.95129997 6.14639857 1.14658861 5.95120048 1.34187725 5.95120048 1.65844013 6.14639857 1.85372877 6.24399767 1.95117781 6.37185238 2 6.49970715 2zM21.7197984 6C21.9042737 6 22.0884677 5.92945728 22.229074 5.78893376L24.7892313 3.22803442C25.0704437 2.94698752 25.0701624 2.49141051 24.78895 2.21064471 24.5077377 1.92959781 24.0518925 1.92987884 23.7706801 2.21092574L21.2105227 4.77182509C20.9295916 5.05287199 20.9298728 5.50844899 21.2110851 5.78921486 21.3516914 5.92973831 21.5356042 6 21.7197984 6zM16.5 29C16.2240235 29 16 29.256118 16 29.572131L16 32.427869C16 32.743882 16.2240235 33 16.5 33 16.7761719 33 17 32.743882 17 32.427869L17 29.572131C17 29.256118 16.7761719 29 16.5 29zM10.7226602 27.2192082L8.21943098 29.7216028C7.92710011 30.0140752 7.9268078 30.4878807 8.21884628 30.7803531 8.36501179 30.9268819 8.55678084 31 8.74825751 31 8.93973424 31 9.13121098 30.9268819 9.2770841 30.7809381L11.7806056 28.2785436C12.0729365 27.9860711 12.0732289 27.5122657 11.780898 27.2195006 11.4888594 26.9270282 11.0149911 26.9267357 10.7226602 27.2192082L10.7226602 27.2192082zM22.2291388 27.2109406C21.9481928 26.929874 21.4923235 26.9295928 21.2110963 27.2106595 20.9298691 27.4914451 20.9295879 27.9470541 21.2105338 28.2281207L23.7708262 30.7892C23.9114398 30.9297333 24.0959248 31 24.2801287 31 24.4643324 31 24.6485363 30.9297333 24.7891498 30.789481 25.0700958 30.5086955 25.070377 30.0530865 24.7894311 29.7720199L22.2291388 27.2109406zM26.1468594 31.1464272L26.1460785 31.1472081C25.9510471 31.3424443 25.9514375 31.6585318 26.146469 31.8537681 26.2440823 31.951191 26.3719558 32 26.499634 32 26.6278979 32 26.7559666 31.9509957 26.85358 31.8533776 27.0488067 31.6581414 27.0488067 31.3416634 26.85358 31.1464272 26.6585485 30.9511909 26.3420861 30.9511909 26.1468594 31.1464272L26.1468594 31.1464272zM32.8944458 16.6552072C31.4918404 14.5655617 29.7183792 12.8008028 27.6891205 11.4208945L29.7770414 10.243979C30.0854584 10.0704768 30.1909497 9.68562614 30.0129489 9.38482334 29.8349482 9.08377481 29.4409296 8.98055816 29.1325126 9.15455194L26.4690477 10.6553711C23.4989281 8.94050026 20.0720994 8 16.5 8 9.87217953 8 3.74336531 11.2355961.10555419 16.6552072-.03518473 16.8645896-.03518473 17.1354104.10555419 17.3447928 1.50815963 19.4346841 3.28162082 21.1994429 5.3108795 22.5793512L3.2227069 23.756021C2.91454157 23.929769 2.80879856 24.3146196 2.9867993 24.6154224 3.10638956 24.8171863 3.32291101 24.9299874 3.54572661 24.9299874 3.65499435 24.9299874 3.76602456 24.9029545 3.86723569 24.8456938L6.53070058 23.3446289C9.50107191 25.0597455 12.9279006 26 16.5 26 23.1278205 26 29.2566347 22.7644039 32.8944458 17.3447928 33.0351847 17.1354104 33.0351847 16.8645896 32.8944458 16.6552072zM25.1729406 11.3859975L24.1406874 11.967697C23.7109176 11.3481514 23.2041065 10.7836546 22.6341014 10.2867402 23.5089989 10.5900006 24.3577123 10.9576484 25.1729406 11.3859975zM24.4312289 17C24.4312289 21.2687455 20.8734803 24.7417399 16.5 24.7417399 13.8005322 24.7417399 11.4122509 23.4181093 9.97918137 21.4014527L12.2816094 20.103872C13.2471438 21.3510731 14.778655 22.1588662 16.5 22.1588662 19.4142269 22.1588662 21.7851361 19.8446016 21.7851361 17 21.7851361 16.2853476 21.6353335 15.6041177 21.3649335 14.9848179L23.6673616 13.6872372C24.1568006 14.6921249 24.4312289 15.8152204 24.4312289 17zM12.5039215 17C12.5039215 14.8491617 14.2965172 13.0993938 16.5 13.0993938 17.7447462 13.0993938 18.858069 13.6579925 19.5914723 14.5314019L12.7629918 18.3796625C12.596069 17.9503304 12.5039215 17.4856097 12.5039215 17L12.5039215 17zM20.2372599 15.6203375C20.403931 16.0496696 20.4960785 16.5143903 20.4960785 17 20.4960785 19.1508383 18.7034828 20.9006062 16.5 20.9006062 15.2555055 20.9006062 14.1421828 20.3422533 13.4087795 19.4685981L20.2372599 15.6203375zM20.7183906 13.8963738C19.7528562 12.6489269 18.221345 11.8411338 16.5 11.8411338 13.5857731 11.8411338 11.2148639 14.1553984 11.2148639 17 11.2148639 17.7146524 11.3646665 18.3958823 11.6350665 19.0151821L9.33263842 20.3127628C8.84319937 19.3078751 8.56877107 18.1847796 8.56877107 17 8.56877107 12.7312545 12.1267715 9.25826006 16.5 9.25826006 19.1994678 9.25826006 21.5880009 10.5818907 23.0210704 12.5987931L20.7183906 13.8963738zM1.42104751 17C3.64265769 13.8494348 6.78246964 11.5287805 10.3661504 10.286986 8.47335064 11.9362405 7.27971348 14.334553 7.27971348 17 7.27971348 18.4135765 7.61582519 19.7519524 8.21327322 20.9436131L6.55386333 21.8787068C4.56085946 20.6182349 2.81131629 18.971438 1.42104751 17zM7.8273112 22.6140025L8.85931259 22.032303C9.28908239 22.6520944 9.79589349 23.2163454 10.3661504 23.7132598 9.49100115 23.4099994 8.64253945 23.0423516 7.8273112 22.6140025zM22.6341014 23.7132598C24.5266494 22.0637595 25.7202865 19.6656928 25.7202865 17 25.7202865 15.5864235 25.3841748 14.2480476 24.7867268 13.0563869L26.4463884 12.1212932C28.4393924 13.3820109 30.1889355 15.028562 31.5792042 17 29.3573423 20.1505652 26.2175304 22.4712195 22.6341014 23.7132598z"/>
</svg>
