<?xml version="1.0" encoding="UTF-8"?>
<svg width="29px" height="29px" viewBox="0 0 29 29" version="1.1" xmlns="http://www.w3.org/2000/svg" xmlns:xlink="http://www.w3.org/1999/xlink">
    <!-- Generator: Sketch 53.2 (72643) - https://sketchapp.com -->
    <title>facebook</title>
    <desc>Created with Sketch.</desc>
    <g id="onboarding" stroke="none" stroke-width="1" fill="none" fill-rule="evenodd">
        <g id="login-password" transform="translate(-81.000000, -451.000000)" fill="#FFFFFF" fill-rule="nonzero">
            <g id="facebook" transform="translate(81.000000, 451.000000)">
                <path d="M14.5,21 C14.22385,21 14,21.2220734 14,21.4960317 C14,21.4966766 14,21.497371 14,21.4980159 C14,21.4986607 14,21.4993552 14,21.5 L14,21.5039683 C14,21.7779266 14.22385,22 14.5,22 C14.77615,22 15,21.7779266 15,21.5039683 C15,21.5032738 15,21.5026786 15,21.5019841 C15,21.5012897 15,21.5006944 15,21.5 C15,21.4993056 15,21.4986607 15,21.4980159 C15,21.497371 15,21.4966766 15,21.4960317 C15,21.2220734 14.77615,21 14.5,21 Z" id="Path"></path>
                <path d="M23.4492188,0 L5.55078125,0 C2.49003516,0 0,2.49003516 0,5.55078125 L0,23.4492188 C0,26.5099648 2.49003516,29 5.55078125,29 L14.5,29 C14.8128262,29 15.0664062,28.7464199 15.0664062,28.4335938 L15.0664062,24.0439453 C15.0664062,23.7311191 14.8128262,23.4775391 14.5,23.4775391 C14.1871738,23.4775391 13.9335938,23.7311191 13.9335938,24.0439453 L13.9335938,27.8671875 L5.55078125,27.8671875 C3.11472461,27.8671875 1.1328125,25.8852754 1.1328125,23.4492188 L1.1328125,5.55078125 C1.1328125,3.11472461 3.11472461,1.1328125 5.55078125,1.1328125 L23.4492188,1.1328125 C25.8852754,1.1328125 27.8671875,3.11472461 27.8671875,5.55078125 L27.8671875,23.4492188 C27.8671875,25.8852754 25.8852754,27.8671875 23.4492188,27.8671875 L19.8242188,27.8671875 L19.8242188,17.8701738 L23.1082988,17.8701738 C23.3992051,17.8701738 23.6427598,17.6498418 23.671873,17.3604648 L24.0791758,13.313209 C24.0952051,13.1538789 24.0430957,12.9952852 23.9357051,12.8765664 C23.8283145,12.7578477 23.675668,12.6901055 23.5156016,12.6901055 L19.8242188,12.6901055 L19.8242188,10.5648926 C19.8242188,10.1802461 19.9467324,10.0372285 20.2762676,10.0372285 L23.4901699,10.0372285 C23.8029961,10.0372285 24.0565762,9.78364844 24.0565762,9.47082227 L24.0565762,5.52523633 C24.0565762,5.21241016 23.8029961,4.95883008 23.4901699,4.95883008 L19.2694805,4.95883008 C16.8779434,4.95883008 15.6096465,6.00928711 14.966832,6.89050195 C14.0677754,8.12288867 13.9335371,9.57832617 13.9335371,10.3361777 L13.9335371,12.7154805 L11.1581465,12.7154805 C10.8453203,12.7154805 10.5917402,12.9690605 10.5917402,13.2818867 L10.5917402,17.3037109 C10.5917402,17.6165371 10.8453203,17.8701172 11.1581465,17.8701172 L13.9335371,17.8701172 L13.9335371,19.484375 C13.9335371,19.7972012 14.1871172,20.0507812 14.4999434,20.0507812 C14.8127695,20.0507812 15.0663496,19.7972012 15.0663496,19.484375 L15.0663496,17.3037109 C15.0663496,16.9908848 14.8127695,16.7373047 14.4999434,16.7373047 L11.7245527,16.7373047 L11.7245527,13.8482363 L14.4999434,13.8482363 C14.8127695,13.8482363 15.0663496,13.5946562 15.0663496,13.2818301 L15.0663496,10.3361211 C15.0663496,9.05989453 15.475918,6.09158594 19.2694805,6.09158594 L22.9237637,6.09158594 L22.9237637,8.90435937 L20.2762676,8.90435937 C19.5451504,8.90435937 18.6914062,9.33924609 18.6914062,10.5648359 L18.6914062,13.2564551 C18.6914062,13.5692812 18.9449863,13.8228613 19.2578125,13.8228613 L22.8893262,13.8228613 L22.596041,16.7373047 L19.2578125,16.7373047 C18.9449863,16.7373047 18.6914062,16.9908848 18.6914062,17.3037109 L18.6914062,28.4335938 C18.6914062,28.7464199 18.9449863,29 19.2578125,29 L23.4492188,29 C26.5099648,29 29,26.5099648 29,23.4492188 L29,5.55078125 C29,2.49003516 26.5099648,0 23.4492188,0 Z" id="Path"></path>
                <path d="M3.5,6 C3.22385,6 3,6.25953623 3,6.57971014 L3,11.4202899 C3,11.7404638 3.22385,12 3.5,12 C3.77615,12 4,11.7404638 4,11.4202899 L4,6.57971014 C4,6.25953623 3.77615,6 3.5,6 Z" id="Path"></path>
                <path d="M3.5,13 C3.22385,13 3,13.222537 3,13.4970673 L3,13.5029327 C3,13.777463 3.22385,14 3.5,14 C3.77615,14 4,13.777463 4,13.5029327 L4,13.4970673 C4,13.222537 3.77615,13 3.5,13 Z" id="Path"></path>
            </g>
        </g>
    </g>
</svg>