<svg xmlns="http://www.w3.org/2000/svg" xmlns:xlink="http://www.w3.org/1999/xlink" width="120" height="119" viewBox="0 0 120 119">
  <defs>
    <polygon id="logo-only-a" points=".109 .146 102.759 .146 102.759 106.267 .109 106.267"/>
    <polygon id="logo-only-c" points="0 123 119.901 123 119.901 .146 0 .146"/>
    <path id="logo-only-e" d="M0.204309091,51.4430213 C0.204309091,79.8403404 22.9323818,102.860997 50.9687818,102.860997 L50.9687818,102.860997 C79.0051818,102.860997 101.733255,79.8403404 101.733255,51.4430213 L101.733255,51.4430213 C101.733255,23.0457021 79.0051818,0.0250455927 50.9687818,0.0250455927 L50.9687818,0.0250455927 C22.9323818,0.0250455927 0.204309091,23.0457021 0.204309091,51.4430213"/>
    <path id="logo-only-g" d="M0.204309091,51.4430213 C0.204309091,79.8403404 22.9323818,102.860997 50.9687818,102.860997 L50.9687818,102.860997 C79.0051818,102.860997 101.733255,79.8403404 101.733255,51.4430213 L101.733255,51.4430213 C101.733255,23.0457021 79.0051818,0.0250455927 50.9687818,0.0250455927 L50.9687818,0.0250455927 C22.9323818,0.0250455927 0.204309091,23.0457021 0.204309091,51.4430213"/>
    <path id="logo-only-i" d="M0.204309091,51.4430213 C0.204309091,79.8403404 22.9323818,102.860997 50.9687818,102.860997 L50.9687818,102.860997 C79.0051818,102.860997 101.733255,79.8403404 101.733255,51.4430213 L101.733255,51.4430213 C101.733255,23.0457021 79.0051818,0.0250455927 50.9687818,0.0250455927 L50.9687818,0.0250455927 C22.9323818,0.0250455927 0.204309091,23.0457021 0.204309091,51.4430213"/>
    <path id="logo-only-k" d="M0.204309091,51.4430213 C0.204309091,79.8403404 22.9323818,102.860997 50.9687818,102.860997 L50.9687818,102.860997 C79.0051818,102.860997 101.733255,79.8403404 101.733255,51.4430213 L101.733255,51.4430213 C101.733255,23.0457021 79.0051818,0.0250455927 50.9687818,0.0250455927 L50.9687818,0.0250455927 C22.9323818,0.0250455927 0.204309091,23.0457021 0.204309091,51.4430213"/>
    <path id="logo-only-m" d="M0.204309091,51.4430213 C0.204309091,79.8403404 22.9323818,102.860997 50.9687818,102.860997 L50.9687818,102.860997 C79.0051818,102.860997 101.733255,79.8403404 101.733255,51.4430213 L101.733255,51.4430213 C101.733255,23.0457021 79.0051818,0.0250455927 50.9687818,0.0250455927 L50.9687818,0.0250455927 C22.9323818,0.0250455927 0.204309091,23.0457021 0.204309091,51.4430213"/>
    <path id="logo-only-o" d="M0.204309091,51.4430213 C0.204309091,79.8403404 22.9323818,102.860997 50.9687818,102.860997 L50.9687818,102.860997 C79.0051818,102.860997 101.733255,79.8403404 101.733255,51.4430213 L101.733255,51.4430213 C101.733255,23.0457021 79.0051818,0.0250455927 50.9687818,0.0250455927 L50.9687818,0.0250455927 C22.9323818,0.0250455927 0.204309091,23.0457021 0.204309091,51.4430213"/>
    <path id="logo-only-q" d="M0.204309091,51.4430213 C0.204309091,79.8403404 22.9323818,102.860997 50.9687818,102.860997 L50.9687818,102.860997 C79.0051818,102.860997 101.733255,79.8403404 101.733255,51.4430213 L101.733255,51.4430213 C101.733255,23.0457021 79.0051818,0.0250455927 50.9687818,0.0250455927 L50.9687818,0.0250455927 C22.9323818,0.0250455927 0.204309091,23.0457021 0.204309091,51.4430213"/>
    <path id="logo-only-s" d="M0.204309091,51.4430213 C0.204309091,79.8403404 22.9323818,102.860997 50.9687818,102.860997 L50.9687818,102.860997 C79.0051818,102.860997 101.733255,79.8403404 101.733255,51.4430213 L101.733255,51.4430213 C101.733255,23.0457021 79.0051818,0.0250455927 50.9687818,0.0250455927 L50.9687818,0.0250455927 C22.9323818,0.0250455927 0.204309091,23.0457021 0.204309091,51.4430213 L0.204309091,51.4430213 Z"/>
    <polygon id="logo-only-u" points="0 123.287 119.901 123.287 119.901 .146 0 .146"/>
  </defs>
  <g fill="none" fill-rule="evenodd">
    <g transform="translate(12.746)">
      <mask id="logo-only-b" fill="#fff">
        <use xlink:href="#logo-only-a"/>
      </mask>
      <path fill="#E55561" d="M102.759202,57.687313 C102.759202,86.0762137 80.6857306,106.267305 52.4869741,106.267305 C24.2879067,106.267305 0.108839378,81.9928015 0.108839378,53.6039008 C0.108839378,27.7954962 19.0010674,6.42980153 43.6222073,2.75826718 C46.0843834,2.39114504 48.6037617,0.706076336 51.167285,0.706076336 C53.7308083,1.77739695 56.1858342,-1.38899237 58.6480104,1.17554198 C61.1101865,1.72262595 63.579513,4.89840458 65.9136062,4.37729771 C68.2480104,4.59074809 70.5118446,6.35875573 72.6923627,6.97845038 C76.7310155,7.57529771 76.9691503,9.75893893 78.9693575,10.482229 C80.9692539,11.2374427 82.8721554,14.2808321 84.6653161,14.8094504 C86.4587876,17.3555191 88.1418964,18.7952137 89.7022073,19.8796794 C91.2622073,19.7025344 92.6994093,23.3665573 94.0001347,25.6143588 C95.3008601,27.3460611 96.4651088,29.5563053 97.4804456,31.9336794 C98.4954715,33.8240611 99.3609637,36.7156565 100.064176,38.758145 C100.767078,42.079458 101.307699,43.5291679 101.672363,46.0079466 C102.037026,48.4867252 102.759202,55.1065038 102.759202,57.687313" mask="url(#logo-only-b)"/>
    </g>
    <path fill="#4AEDE8" d="M110.490684,59.3292221 C110.490684,85.1376267 97.139285,110.274382 72.5181451,113.945917 C70.0562798,114.313039 64.5885078,118.890955 62.0252953,118.369222 C59.4614611,117.193993 55.848715,116.828123 53.3865389,115.603444 C50.9243627,114.942749 46.1016684,115.98465 43.7672642,115.447894 C41.4328601,114.879527 37.2530674,116.643153 35.0728601,114.535253 C32.8926528,114.097085 33.6303731,104.969734 31.6304767,102.450894 C29.6302694,101.316665 27.727057,98.0376038 25.9338964,98.1239855 C24.1407358,95.766955 22.4576269,95.0020389 20.8976269,93.0534435 C19.3373161,90.8075198 17.900114,88.4977489 16.5993886,87.3187641 C15.2986632,85.4265046 14.1341036,83.4272069 13.1190777,80.9994435 C12.1040518,78.7419397 11.2385596,76.4024359 10.5353472,74.1752908 C9.8324456,72.2495427 9.29213472,69.0840924 8.92716062,66.9254893 C8.56249741,64.4467107 8.37348187,61.9100313 8.37348187,59.3292221 C8.37348187,30.9403214 31.2334819,7.92648931 59.4322383,7.92648931 C87.6309948,7.92648931 110.490684,30.9403214 110.490684,59.3292221"/>
    <mask id="logo-only-d" fill="#fff">
      <use xlink:href="#logo-only-c"/>
    </mask>
    <polygon fill="#4AEDE8" points="5.612 56.195 16.292 56.195 16.292 52.157 5.612 52.157" mask="url(#logo-only-d)"/>
    <polygon fill="#4AEDE8" points="24.552 113.049 34.772 113.049 34.772 111.257 24.552 111.257" mask="url(#logo-only-d)"/>
    <polygon fill="#4AEDE8" points="63.548 117.031 73.769 117.031 73.769 115.239 63.548 115.239" mask="url(#logo-only-d)"/>
    <polygon fill="#4AEDE8" points="27.33 115.239 32.44 115.239 32.44 114.344 27.33 114.344" mask="url(#logo-only-d)"/>
    <polygon fill="#4AEDE8" points="65.979 118.858 71.089 118.858 71.089 117.963 65.979 117.963" mask="url(#logo-only-d)"/>
    <polygon fill="#4AEDE8" points="0 64.078 14.342 64.078 14.342 59.016 0 59.016" mask="url(#logo-only-d)"/>
    <polygon fill="#4AEDE8" points="16.292 96.837 30.634 96.837 30.634 91.776 16.292 91.776" mask="url(#logo-only-d)"/>
    <polygon fill="#32325B" points="15.048 96.837 18.39 96.837 18.39 91.776 15.048 91.776" mask="url(#logo-only-d)"/>
    <polygon fill="#4AEDE8" points="98.393 36.389 112.17 36.389 112.17 33.009 98.393 33.009" mask="url(#logo-only-d)"/>
    <polygon fill="#4AEDE8" points="111.523 27.766 115.505 27.766 115.505 25.355 111.523 25.355" mask="url(#logo-only-d)"/>
    <polygon fill="#4AEDE8" points="109.117 88.39 114.111 88.39 114.111 84.351 109.117 84.351" mask="url(#logo-only-d)"/>
    <polygon fill="#4AEDE8" points="25.018 103.061 32.731 103.061 32.731 99.648 25.018 99.648" mask="url(#logo-only-d)"/>
    <polygon fill="#32325B" points="99.477 28.41 110.157 28.41 110.157 25.182 99.477 25.182" mask="url(#logo-only-d)"/>
    <polygon fill="#32325B" points="103.578 81.725 114.258 81.725 114.258 77.686 103.578 77.686" mask="url(#logo-only-d)"/>
    <polygon fill="#32325B" points="102.127 31.338 117.591 31.338 117.591 29.797 102.127 29.797" mask="url(#logo-only-d)"/>
    <polygon fill="#32325B" points="102.4 76.296 117.863 76.296 117.863 75.196 102.4 75.196" mask="url(#logo-only-d)"/>
    <polygon fill="#32325B" points="1 60.039 19.028 60.039 19.028 59.561 1 59.561" mask="url(#logo-only-d)"/>
    <polygon fill="#32325B" points="2.383 61.605 20.411 61.605 20.411 61.127 2.383 61.127" mask="url(#logo-only-d)"/>
    <polygon fill="#32325B" points="4.014 67.63 22.042 67.63 22.042 67.152 4.014 67.152" mask="url(#logo-only-d)"/>
    <polygon fill="#32325B" points="86.281 13.527 98.651 13.527 98.651 12.857 86.281 12.857" mask="url(#logo-only-d)"/>
    <polygon fill="#32325B" points="15.345 28.015 27.716 28.015 27.716 27.344 15.345 27.344" mask="url(#logo-only-d)"/>
    <polygon fill="#32325B" points="96.99 11.826 100.091 11.826 100.091 10.022 96.99 10.022" mask="url(#logo-only-d)"/>
    <polygon fill="#32325B" points="13.72 26.526 16.821 26.526 16.821 24.721 13.72 24.721" mask="url(#logo-only-d)"/>
    <polygon fill="#32325B" points="7.204 57.56 17.884 57.56 17.884 54.831 7.204 54.831" mask="url(#logo-only-d)"/>
    <polygon fill="#32325B" points="2.324 65.193 14.423 65.193 14.423 62.609 2.324 62.609" mask="url(#logo-only-d)"/>
    <path fill="#32325B" d="M113.514187,57.687313 C113.514187,86.0762137 90.6544974,109.090046 62.4557409,109.090046 C34.2569845,109.090046 11.3969845,86.0762137 11.3969845,57.687313 C11.3969845,29.2984122 34.2569845,6.28458015 62.4557409,6.28458015 C90.6544974,6.28458015 113.514187,29.2984122 113.514187,57.687313" mask="url(#logo-only-d)"/>
    <g transform="translate(11 6)">
      <mask id="logo-only-f" fill="#fff">
        <use xlink:href="#logo-only-e"/>
      </mask>
      <path fill="#201F25" d="M65.8923709,60.2322398 C70.0190436,60.0083948 82.7025891,50.8003827 84.16768,41.5554283 C85.6327709,32.3104739 72.0964436,-2.1231462 51.7619709,-2.29533465 C31.4274982,-2.4675231 16.8362436,32.266331 17.7233345,39.915255 C19.2585891,53.1487201 34.2782436,59.7820453 38.2565527,60.447945 C42.2345527,61.1141578 61.2371527,60.4848872 65.8923709,60.2322398" mask="url(#logo-only-f)"/>
      <mask id="logo-only-h" fill="#fff">
        <use xlink:href="#logo-only-g"/>
      </mask>
      <path fill="#201F25" d="M51.7618782,-2.29536596 C37.8258964,-2.41339331 26.5882782,13.8634243 21.1810418,26.5809502 C21.7315327,28.7574122 22.3466236,30.9169684 23.0396055,33.0533574 C26.0730236,42.4035033 30.6314964,51.4603027 37.5134055,58.5165854 C38.2221509,59.2432207 38.9562418,59.9313483 39.7039327,60.5991264 C44.10106,60.9002997 54.18206,60.6748894 60.7653873,60.4457222 C63.8460964,57.8575733 66.7187873,55.0167769 69.2928964,51.8525793 C75.0052055,44.8307343 79.0499691,36.3859866 81.4868418,27.5724426 C76.6430782,14.3417951 65.83046,-2.17639939 51.7618782,-2.29536596" mask="url(#logo-only-h)"/>
      <mask id="logo-only-j" fill="#fff">
        <use xlink:href="#logo-only-i"/>
      </mask>
      <path fill="#201F25" d="M51.1341764,56.0699754 C64.8840855,56.0699754 79.2954491,57.7527261 87.8204855,68.2634222 C96.3455218,78.7741182 97.1707945,97.738328 94.0261036,105.320568 C90.8814127,112.903121 78.07454,116.774857 51.1341764,116.774857 C24.1938127,116.774857 11.06734,115.29341 6.31599455,104.784905 C0.193212727,91.2418143 11.0024309,72.7130848 14.6388855,67.5302125 C21.8740855,57.219255 35.6267764,56.0699754 51.1341764,56.0699754" mask="url(#logo-only-j)"/>
      <mask id="logo-only-l" fill="#fff">
        <use xlink:href="#logo-only-k"/>
      </mask>
      <path fill="#2E2D32" d="M51.4075055,88.753065 L50.7268873,88.753065 C50.0360691,88.753065 49.4756873,88.1857824 49.4756873,87.4857581 L49.4756873,57.3371258 C49.4756873,56.6374146 50.0360691,56.0698188 50.7268873,56.0698188 L51.4075055,56.0698188 C52.0983236,56.0698188 52.6587055,56.6374146 52.6587055,57.3371258 L52.6587055,87.4857581 C52.6587055,88.1857824 52.0983236,88.753065 51.4075055,88.753065" mask="url(#logo-only-l)"/>
      <mask id="logo-only-n" fill="#fff">
        <use xlink:href="#logo-only-m"/>
      </mask>
      <path fill="#26252B" d="M31.8809036,28.1624228 C42.7120673,25.7076416 53.9218673,25.812207 64.9013945,27.0557207 C70.7419764,27.7172374 76.5714309,28.7600733 82.1316673,30.7333529 C82.2911582,30.7900185 82.4478673,30.8541979 82.6070491,30.9124289 C78.4865582,17.3154897 67.0446309,-2.16622462 51.76194,-2.29552249 C35.4694491,-2.43358632 22.8656491,19.8347632 18.9547218,32.628365 C23.0792309,30.6563377 27.4191764,29.1736386 31.8809036,28.1624228" mask="url(#logo-only-n)"/>
      <mask id="logo-only-p" fill="#fff">
        <use xlink:href="#logo-only-o"/>
      </mask>
      <path fill="#2E2D32" d="M60.3786836,75.2476675 L60.3786836,75.2476675 C59.5602109,75.2476675 58.8962836,74.5758195 58.8962836,73.7461842 L58.8962836,62.0098195 C58.8962836,61.1801842 59.5602109,60.5083362 60.3786836,60.5083362 C61.1974655,60.5083362 61.8610836,61.1801842 61.8610836,62.0098195 L61.8610836,73.7461842 C61.8610836,74.5758195 61.1974655,75.2476675 60.3786836,75.2476675" mask="url(#logo-only-p)"/>
      <mask id="logo-only-r" fill="#fff">
        <use xlink:href="#logo-only-q"/>
      </mask>
      <path fill="#2E2D32" d="M39.73886,67.6019055 L39.73886,67.6019055 C38.9200782,67.6019055 38.25646,66.9300574 38.25646,66.1004222 L38.25646,61.0731456 C38.25646,60.2441365 38.9200782,59.5719754 39.73886,59.5719754 C40.5573327,59.5719754 41.22126,60.2441365 41.22126,61.0731456 L41.22126,66.1004222 C41.22126,66.9300574 40.5573327,67.6019055 39.73886,67.6019055" mask="url(#logo-only-r)"/>
      <mask id="logo-only-t" fill="#fff">
        <use xlink:href="#logo-only-s"/>
      </mask>
      <polygon fill="#19181E" points="37.02 61.13 42.606 61.13 42.606 59.382 37.02 59.382" mask="url(#logo-only-t)"/>
      <polygon fill="#19181E" points="57.586 61.946 63.172 61.946 63.172 60.314 57.586 60.314" mask="url(#logo-only-t)"/>
      <path fill="#333238" d="M28.7379127 21.7585778C31.6659309 16.9930277 35.0795309 12.6003438 38.9607855 8.59461429 39.9523491 7.57150182 38.3997855 5.99613404 37.4069855 7.02081185 33.3983855 11.1577176 29.86424 15.713824 26.8404036 20.6349699 26.0911673 21.8546903 27.9914582 22.9732891 28.7379127 21.7585778M42.2869127 5.84122705C43.3100036 4.72450669 44.4694036 3.82505684 45.7991127 3.11313587 47.0500036 2.44347933 45.9406764.521543161 44.6897855 1.19088663 43.20924 1.98357964 41.8721127 3.02391094 40.7331127 4.26742462 39.77184 5.31620881 41.32224 6.89408116 42.2869127 5.84122705M77.4300236 66.3811207C81.7749145 68.7638957 85.0889873 72.4349535 87.0869509 77.0076526 87.6578418 78.3150325 89.5519509 77.1835979 88.98446 75.8840447 86.8477145 70.9932666 83.1797327 67.0044429 78.5390418 64.4588714 77.29526 63.7770052 76.1846964 65.6976891 77.4300236 66.3811207M88.3257564 81.3892225C88.7331382 82.7877058 88.8969564 84.1805538 88.8329745 85.6366419 88.7702291 87.0692498 90.9678655 87.0658061 91.0303018 85.6366419 91.10232 83.9974079 90.9032655 82.3716359 90.4445745 80.7972073 90.0455382 79.4265872 87.9242473 80.0101495 88.3257564 81.3892225M14.6256873 74.2448419C16.8403236 70.7926201 19.12976 67.3022036 22.6484509 65.0875471 23.8471055 64.3330486 22.7451964 62.4067295 21.5394327 63.1656109 17.6900145 65.588772 15.1536145 69.3406018 12.7281782 73.121234 11.9554509 74.3259271 13.8572873 75.4426474 14.6256873 74.2448419M25.8595036 63.617903C27.4358673 63.2509851 29.0215036 62.9372891 30.6185764 62.6761888 32.0110309 62.4489 31.4200491 60.3034319 30.0343945 60.5300945 28.4376309 60.7911948 26.8516855 61.1048909 25.2753218 61.4714957 23.8973945 61.7917663 24.4806491 63.9384866 25.8595036 63.617903" mask="url(#logo-only-t)"/>
      <path fill="#3E3E68" d="M77.7455745 57.9431979C81.0828291 58.9412647 83.9731382 60.7257632 86.3917745 63.2581857 87.3771564 64.289438 88.9300291 62.7143833 87.9455745 61.6840702 85.2734836 58.8864775 82.0147382 56.8987967 78.3297564 55.7971036 76.9706836 55.3904258 76.3902109 57.5377723 77.7455745 57.9431979M88.8100709 66.5951353C89.6953073 67.8270653 90.4955436 69.1112781 91.2120164 70.4509043 91.8861436 71.7110106 93.7842709 70.588655 93.1098345 69.3279225 92.3930527 67.9879833 91.5928164 66.7037705 90.70758 65.4718404 89.8832345 64.3250653 87.9758345 65.4345851 88.8100709 66.5951353M14.6899782 45.3346517C15.21636 46.5725301 15.7424327 47.8100954 16.2685055 49.0479739 16.5052691 49.6042991 17.3014873 49.7182565 17.7719236 49.447138 18.3387964 49.1206061 18.3993782 48.4734906 18.1660145 47.924679 17.6399418 46.6868006 17.11356 45.4489222 16.5874873 44.2113568 16.3510327 43.6547185 15.5545055 43.5410742 15.0840691 43.8118796 14.5171964 44.1387246 14.4566145 44.7858401 14.6899782 45.3346517M18.8397709 52.7567565C19.9014982 54.3493432 21.3712255 55.4901699 23.1679709 56.1091091 24.5100436 56.5715134 25.08588 54.4219754 23.7524618 53.9630149 22.5219709 53.5391182 21.46488 52.7245103 20.73728 51.6334617 19.9500255 50.452562 18.0454073 51.5652125 18.8397709 52.7567565" mask="url(#logo-only-t)"/>
    </g>
    <path fill="#32325B" d="M15.661399,68.4177067 C16.6873057,53.7653338 28.2355959,29.2000927 50.8758031,22.5814753 C58.629171,20.3149329 68.012487,20.3525779 75.5967358,23.0573708 C91.3356995,28.6708668 102.052383,39.7485338 105.570622,56.0350132 C108.261295,68.4926829 106.407513,81.5153413 100.31114,92.3956858 C108.515596,83.2535989 113.514249,71.1272051 113.514249,57.8222093 C113.514249,29.3666718 90.6545596,6.29907415 62.4554922,6.29907415 C34.2567358,6.29907415 11.3973575,29.3666718 11.3973575,57.8222093 C11.3973575,65.1918444 12.9337306,72.1982052 15.6962176,78.537936 C15.4341451,75.1555332 15.4276166,71.7602684 15.661399,68.4177067"/>
    <mask id="logo-only-v" fill="#fff">
      <use xlink:href="#logo-only-u"/>
    </mask>
    <polygon fill="#4AEDE8" points="21.53 26.491 28.525 26.491 28.525 24.876 21.53 24.876" mask="url(#logo-only-v)"/>
    <polygon fill="#4AEDE8" points="8.124 37.875 19.316 37.875 19.316 36.306 8.124 36.306" mask="url(#logo-only-v)"/>
    <polygon fill="#4AEDE8" points="10.608 22.582 19.934 22.582 19.934 21.013 10.608 21.013" mask="url(#logo-only-v)"/>
    <polygon fill="#E55561" points="10.297 22.582 12.228 22.582 12.228 21.013 10.297 21.013" mask="url(#logo-only-v)"/>
    <polygon fill="#4AEDE8" points="11.437 46.959 26.62 46.959 26.62 44.949 11.437 44.949" mask="url(#logo-only-v)"/>
    <polygon fill="#EDEDED" points="24.724 46.959 26.62 46.959 26.62 44.949 24.724 44.949" mask="url(#logo-only-v)"/>
    <polygon fill="#E55561" points="22.946 46.959 24.842 46.959 24.842 44.949 22.946 44.949" mask="url(#logo-only-v)"/>
    <polygon fill="#E55561" points="31.122 9.264 42.314 9.264 42.314 7.254 31.122 7.254" mask="url(#logo-only-v)"/>
    <polygon fill="#E55561" points="69.464 3.188 80.656 3.188 80.656 1.178 69.464 1.178" mask="url(#logo-only-v)"/>
    <polygon fill="#E55561" points="40.306 1.649 50.876 1.649 50.876 .708 40.306 .708" mask="url(#logo-only-v)"/>
    <polygon fill="#E55561" points="36.013 3.974 42.231 3.974 42.231 3.347 36.013 3.347" mask="url(#logo-only-v)"/>
    <polygon fill="#E55561" points="106.602 50.786 113.737 50.786 113.737 48.775 106.602 48.775" mask="url(#logo-only-v)"/>
    <polygon fill="#E55561" points="91.863 18.858 98.998 18.858 98.998 16.848 91.863 16.848" mask="url(#logo-only-v)"/>
    <polygon fill="#E55561" points="88.899 24.062 96.033 24.062 96.033 22.052 88.899 22.052" mask="url(#logo-only-v)"/>
    <polygon fill="#E55561" points="106.916 11.144 114.066 11.144 114.066 8.948 106.916 8.948" mask="url(#logo-only-v)"/>
    <polygon fill="#E55561" points="66.044 7.612 75.168 7.612 75.168 6.013 66.044 6.013" mask="url(#logo-only-v)"/>
    <polygon fill="#4AEDE8" points="66.044 7.612 68.023 7.612 68.023 6.013 66.044 6.013" mask="url(#logo-only-v)"/>
    <polygon fill="#E55561" points="111.397 41.896 118.547 41.896 118.547 39.7 111.397 39.7" mask="url(#logo-only-v)"/>
    <polygon fill="#E55561" points="84.916 20.612 92.051 20.612 92.051 20.298 84.916 20.298" mask="url(#logo-only-v)"/>
    <polygon fill="#4AEDE8" points="83.984 20.612 86.057 20.612 86.057 20.298 83.984 20.298" mask="url(#logo-only-v)"/>
    <polygon fill="#F2F2F7" points="14.317 32.89 21.451 32.89 21.451 32.263 14.317 32.263" mask="url(#logo-only-v)"/>
    <polygon fill="#F2F2F7" points="24.958 39.097 32.092 39.097 32.092 38.469 24.958 38.469" mask="url(#logo-only-v)"/>
    <polygon fill="#F2F2F7" points="8.813 71.092 16.275 71.092 16.275 69.837 8.813 69.837" mask="url(#logo-only-v)"/>
    <polygon fill="#F2F2F7" points="94.269 94.98 104.204 94.98 104.204 92.969 94.269 92.969" mask="url(#logo-only-v)"/>
    <polygon fill="#F2F2F7" points="16.563 61.184 26.497 61.184 26.497 59.174 16.563 59.174" mask="url(#logo-only-v)"/>
    <polygon fill="#E55561" points="22.689 61.184 25.525 61.184 25.525 59.174 22.689 59.174" mask="url(#logo-only-v)"/>
    <polygon fill="#4AEDE8" points="25.521 61.184 28.356 61.184 28.356 59.174 25.521 59.174" mask="url(#logo-only-v)"/>
    <polygon fill="#F2F2F7" points="7.679 77.207 22.862 77.207 22.862 74.396 7.679 74.396" mask="url(#logo-only-v)"/>
    <polygon fill="#E55561" points="20.411 77.207 22.862 77.207 22.862 74.396 20.411 74.396" mask="url(#logo-only-v)"/>
    <polygon fill="#F2F2F7" points="102.669 61.131 117.852 61.131 117.852 58.319 102.669 58.319" mask="url(#logo-only-v)"/>
    <polygon fill="#F2F2F7" points="108.976 45.912 119.901 45.912 119.901 44.506 108.976 44.506" mask="url(#logo-only-v)"/>
    <polygon fill="#4AEDE8" points="107.733 45.912 109.607 45.912 109.607 44.506 107.733 44.506" mask="url(#logo-only-v)"/>
    <polygon fill="#E55561" points="105.859 45.912 107.733 45.912 107.733 44.506 105.859 44.506" mask="url(#logo-only-v)"/>
    <polygon fill="#4AEDE8" points="102.669 61.131 105.739 61.131 105.739 58.319 102.669 58.319" mask="url(#logo-only-v)"/>
    <polygon fill="#4AEDE8" points="19.778 42.665 28.525 42.665 28.525 40.702 19.778 40.702" mask="url(#logo-only-v)"/>
    <polygon fill="#E55561" points="19.156 42.665 21.038 42.665 21.038 40.702 19.156 40.702" mask="url(#logo-only-v)"/>
    <polygon fill="#F2F2F7" points="20.887 42.665 22.769 42.665 22.769 40.702 20.887 40.702" mask="url(#logo-only-v)"/>
    <polygon fill="#4AEDE8" points="102.164 16.329 108.692 16.329 108.692 15.388 102.164 15.388" mask="url(#logo-only-v)"/>
    <polygon fill="#4AEDE8" points="21.66 50.86 24.065 50.86 24.065 48.84 21.66 48.84" mask="url(#logo-only-v)"/>
    <polygon fill="#4AEDE8" points="83.236 102.578 92.707 102.578 92.707 101.072 83.236 101.072" mask="url(#logo-only-v)"/>
    <polygon fill="#4AEDE8" points="81.178 99.702 85.295 99.702 85.295 98.95 81.178 98.95" mask="url(#logo-only-v)"/>
    <polygon fill="#F2F2F7" points="28.875 109.783 43.156 109.783 43.156 107.939 28.875 107.939" mask="url(#logo-only-v)"/>
    <path fill="#E55561" d="M59.9069534,58.4075262 C59.4791813,57.968962 59.2652953,57.4428732 59.2652953,56.8295735 C59.2652953,56.2131368 59.4791813,55.687048 59.9069534,55.2516209 C60.3418756,54.8165075 60.8632228,54.5987939 61.4706839,54.5987939 C62.0818756,54.5987939 62.6029119,54.8165075 63.0344145,55.2516209 C63.4659171,55.687048 63.6816684,56.2131368 63.6816684,56.8295735 C63.6816684,57.4428732 63.4659171,57.968962 63.0344145,58.4075262 C62.6029119,58.8395025 62.0818756,59.0550201 61.4706839,59.0550201 C60.8632228,59.0550201 60.3418756,58.8395025 59.9069534,58.4075262 M59.9069534,51.7205204 C59.4791813,51.2850933 59.2652953,50.7590045 59.2652953,50.142254 C59.2652953,48.9090667 59.6967979,47.8590851 60.5594922,46.9919954 C61.4221865,46.1211412 62.4630155,45.6860278 63.6816684,45.6860278 L65.887057,45.6860278 C66.4979378,45.6860278 67.019285,45.4683143 67.4507876,45.0332009 C67.8816684,44.5977738 68.0980415,44.071685 68.0980415,43.4549345 C68.0980415,42.8419485 67.8816684,42.3161734 67.4507876,41.8772955 C67.019285,41.4456329 66.4979378,41.2294879 65.887057,41.2294879 L61.4706839,41.2294879 C60.8632228,41.2294879 60.3418756,41.0117744 59.9069534,40.576661 C59.4791813,40.1412339 59.2652953,39.6154588 59.2652953,38.9987083 C59.2652953,38.3857223 59.4791813,37.8596335 59.9069534,37.4207556 C60.3418756,36.9853285 60.8632228,36.7679287 61.4706839,36.7679287 L68.0980415,36.7679287 C69.320114,36.7679287 70.360943,37.2049243 71.2202176,38.0792293 C72.0822902,38.9497698 72.5141036,39.9997514 72.5141036,41.2294879 L72.5141036,45.6860278 C72.5141036,46.9192151 72.0822902,47.9695104 71.2202176,48.8366001 C70.3572124,49.7071406 69.3166943,50.142254 68.0980415,50.142254 L63.6816684,50.142254 C63.6816684,50.7590045 63.4659171,51.2850933 63.0344145,51.7205204 C62.6029119,52.1556338 62.0818756,52.3733473 61.4706839,52.3733473 C60.8632228,52.3733473 60.3418756,52.1556338 59.9069534,51.7205204" mask="url(#logo-only-v)"/>
    <path fill="#4AEDE8" d="M54.0002176,58.4075262 C53.5724456,57.968962 53.3585596,57.4428732 53.3585596,56.8295735 C53.3585596,56.2131368 53.5724456,55.687048 54.0002176,55.2516209 C54.4351399,54.8165075 54.956487,54.5987939 55.5639482,54.5987939 C56.1751399,54.5987939 56.6961762,54.8165075 57.1276788,55.2516209 C57.5591813,55.687048 57.7749326,56.2131368 57.7749326,56.8295735 C57.7749326,57.4428732 57.5591813,57.968962 57.1276788,58.4075262 C56.6961762,58.8395025 56.1751399,59.0550201 55.5639482,59.0550201 C54.956487,59.0550201 54.4351399,58.8395025 54.0002176,58.4075262 M54.0002176,51.7205204 C53.5724456,51.2850933 53.3585596,50.7590045 53.3585596,50.142254 C53.3585596,48.9090667 53.7900622,47.8590851 54.6527565,46.9919954 C55.5154508,46.1211412 56.5562798,45.6860278 57.7749326,45.6860278 L59.9803212,45.6860278 C60.5912021,45.6860278 61.1125492,45.4683143 61.5440518,45.0332009 C61.9749326,44.5977738 62.1913057,44.071685 62.1913057,43.4549345 C62.1913057,42.8419485 61.9749326,42.3161734 61.5440518,41.8772955 C61.1125492,41.4456329 60.5912021,41.2294879 59.9803212,41.2294879 L55.5639482,41.2294879 C54.956487,41.2294879 54.4351399,41.0117744 54.0002176,40.576661 C53.5724456,40.1412339 53.3585596,39.6154588 53.3585596,38.9987083 C53.3585596,38.3857223 53.5724456,37.8596335 54.0002176,37.4207556 C54.4351399,36.9853285 54.956487,36.7679287 55.5639482,36.7679287 L62.1913057,36.7679287 C63.4133782,36.7679287 64.4542073,37.2049243 65.3134819,38.0792293 C66.1755544,38.9497698 66.6073679,39.9997514 66.6073679,41.2294879 L66.6073679,45.6860278 C66.6073679,46.9192151 66.1755544,47.9695104 65.3134819,48.8366001 C64.4504767,49.7071406 63.4099585,50.142254 62.1913057,50.142254 L57.7749326,50.142254 C57.7749326,50.7590045 57.5591813,51.2850933 57.1276788,51.7205204 C56.6961762,52.1556338 56.1751399,52.3733473 55.5639482,52.3733473 C54.956487,52.3733473 54.4351399,52.1556338 54.0002176,51.7205204" mask="url(#logo-only-v)"/>
    <path fill="#F2F2F7" d="M56.7981451,58.4075262 C56.3703731,57.968962 56.156487,57.4428732 56.156487,56.8295735 C56.156487,56.2131368 56.3703731,55.687048 56.7981451,55.2516209 C57.2330674,54.8165075 57.7544145,54.5987939 58.3618756,54.5987939 C58.9730674,54.5987939 59.4941036,54.8165075 59.9256062,55.2516209 C60.3571088,55.687048 60.5728601,56.2131368 60.5728601,56.8295735 C60.5728601,57.4428732 60.3571088,57.968962 59.9256062,58.4075262 C59.4941036,58.8395025 58.9730674,59.0550201 58.3618756,59.0550201 C57.7544145,59.0550201 57.2330674,58.8395025 56.7981451,58.4075262 M56.7981451,51.7205204 C56.3703731,51.2850933 56.156487,50.7590045 56.156487,50.142254 C56.156487,48.9090667 56.5879896,47.8590851 57.4506839,46.9919954 C58.3133782,46.1211412 59.3542073,45.6860278 60.5728601,45.6860278 L62.7782487,45.6860278 C63.3891295,45.6860278 63.9104767,45.4683143 64.3419793,45.0332009 C64.7728601,44.5977738 64.9892332,44.071685 64.9892332,43.4549345 C64.9892332,42.8419485 64.7728601,42.3161734 64.3419793,41.8772955 C63.9104767,41.4456329 63.3891295,41.2294879 62.7782487,41.2294879 L58.3618756,41.2294879 C57.7544145,41.2294879 57.2330674,41.0117744 56.7981451,40.576661 C56.3703731,40.1412339 56.156487,39.6154588 56.156487,38.9987083 C56.156487,38.3857223 56.3703731,37.8596335 56.7981451,37.4207556 C57.2330674,36.9853285 57.7544145,36.7679287 58.3618756,36.7679287 L64.9892332,36.7679287 C66.2113057,36.7679287 67.2521347,37.2049243 68.1114093,38.0792293 C68.9734819,38.9497698 69.4052953,39.9997514 69.4052953,41.2294879 L69.4052953,45.6860278 C69.4052953,46.9192151 68.9734819,47.9695104 68.1114093,48.8366001 C67.2484041,49.7071406 66.207886,50.142254 64.9892332,50.142254 L60.5728601,50.142254 C60.5728601,50.7590045 60.3571088,51.2850933 59.9256062,51.7205204 C59.4941036,52.1556338 58.9730674,52.3733473 58.3618756,52.3733473 C57.7544145,52.3733473 57.2330674,52.1556338 56.7981451,51.7205204" mask="url(#logo-only-v)"/>
  </g>
</svg>
