<svg enable-background="new 0 0 1127 469" viewBox="0 0 1127 469" xmlns="http://www.w3.org/2000/svg" xmlns:xlink="http://www.w3.org/1999/xlink"><clipPath id="a"><circle cx="225.32" cy="233.658" r="164.238"/></clipPath><path d="m395.963 233.658c0 90.706-71.003 155.219-161.709 155.219s-168.483-77.56-168.483-168.266c0-82.46 60.77-150.727 139.968-162.457 7.92-1.173 16.024-6.558 24.27-6.558 8.246 3.423 16.143-6.693 24.063 1.5 7.92 1.748 15.863 11.896 23.371 10.23 7.509.682 14.791 6.331 21.805 8.311 12.991 1.906 13.758 8.884 20.191 11.195 6.433 2.413 12.555 12.136 18.323 13.825 5.768 8.136 11.182 12.736 16.201 16.201 5.018-.566 9.641 11.14 13.825 18.323 4.184 5.533 7.93 12.594 11.195 20.191 3.265 6.04 6.05 15.279 8.311 21.805 2.262 10.613 4 15.244 5.173 23.164s3.496 29.071 3.496 37.317z" fill="#e55561"/><path d="m379.832 238.905c0 82.46-42.947 162.776-122.145 174.507-7.92 1.173-25.507 15.8-33.753 14.133-8.246-3.755-19.867-4.923-27.787-8.837-7.92-2.111-23.434 1.219-30.942-.497-7.509-1.816-20.954 3.819-27.967-2.917-7.013-1.399-4.641-30.563-11.074-38.611-6.433-3.623-12.555-14.101-18.323-13.825-5.768-7.531-11.183-9.975-16.201-16.201-5.018-7.176-9.641-14.556-13.825-18.323-4.184-6.046-7.93-12.434-11.195-20.191-3.265-7.213-6.05-14.688-8.311-21.804-2.261-6.152-4-16.267-5.173-23.164-1.173-7.92-1.781-16.024-1.781-24.27 0-90.706 73.532-164.238 164.238-164.238 90.708 0 164.239 73.532 164.239 164.238z" fill="#4aede8"/><path d="m42.473 215.987h34.353v12.903h-34.353z" fill="#4aede8"/><path d="m103.396 404.82h32.875v5.723h-32.875z" fill="#4aede8"/><path d="m228.835 417.544h32.875v5.723h-32.875z" fill="#4aede8"/><path d="m112.333 414.682h16.437v2.862h-16.437z" fill="#4aede8"/><path d="m236.652 426.245h16.437v2.862h-16.437z" fill="#4aede8"/><path d="m24.421 237.905h46.133v16.171h-46.133z" fill="#4aede8"/><path d="m76.826 342.574h46.133v16.171h-46.133z" fill="#4aede8"/><path d="m72.826 342.574h10.75v16.171h-10.75z" fill="#32325b"/><path d="m340.919 154.809h44.315v10.798h-44.315z" fill="#4aede8"/><path d="m383.153 130.353h12.809v7.703h-12.809z" fill="#4aede8"/><path d="m375.414 318.853h16.063v12.903h-16.063z" fill="#4aede8"/><path d="m104.898 367.729h24.81v10.903h-24.81z" fill="#4aede8"/><g fill="#32325b"><path d="m344.405 129.8h34.353v10.314h-34.353z"/><path d="m357.597 297.557h34.353v12.903h-34.353z"/><path d="m352.93 144.544h49.74v4.924h-49.74z"/><path d="m353.807 289.6h49.741v3.517h-49.741z"/><path d="m27.639 239.644h57.99v1.528h-57.99z"/><path d="m32.087 244.647h57.99v1.529h-57.99z"/><path d="m37.334 263.898h57.99v1.529h-57.99z"/><path d="m301.956 90.42h39.793v2.143h-39.793z"/><path d="m73.78 136.708h39.793v2.143h-39.793z"/><path d="m336.406 81.363h9.975v5.765h-9.975z"/><path d="m68.554 128.328h9.975v5.765h-9.975z"/><path d="m47.594 224.531h34.353v8.719h-34.353z"/><path d="m31.897 249.383h38.918v8.258h-38.918z"/><circle cx="225.32" cy="233.658" r="164.238"/></g><g clip-path="url(#a)"><path d="m273.602 261.733c13.351-.715 54.387-30.127 59.126-59.657s-39.054-139.518-104.842-140.068-112.995 110.397-110.125 134.829c4.967 42.269 53.56 63.457 66.43 65.585 12.871 2.128 74.35.118 89.411-.689z" fill="#201f25"/><path d="m227.886 62.008c-45.088-.377-81.444 51.614-98.938 92.236 1.781 6.952 3.771 13.851 6.013 20.674 9.814 29.866 24.562 58.795 46.827 81.334 2.292 2.321 4.668 4.519 7.086 6.652 14.227.961 46.841.242 68.141-.49 9.967-8.267 19.26-17.342 27.588-27.448 18.481-22.428 31.568-49.403 39.452-77.555-15.671-42.261-50.653-95.022-96.169-95.403z" fill="#201f25" opacity=".14"/><path d="m225.855 248.438c44.486 0 91.11 5.375 118.691 38.948s30.251 94.147 20.076 118.367c-10.174 24.22-51.608 36.587-138.768 36.587s-129.628-4.733-144.999-38.299c-19.81-43.259 15.162-102.443 26.927-118.997 23.409-32.936 67.902-36.606 118.073-36.606z" fill="#201f25"/><path d="m226.739 352.833h-2.202c-2.235 0-4.047-1.812-4.047-4.047v-96.3c0-2.235 1.812-4.047 4.047-4.047h2.202c2.235 0 4.047 1.812 4.047 4.047v96.3c.001 2.235-1.811 4.047-4.047 4.047z" fill="#2e2d32" opacity=".43"/><path d="m163.565 159.296c35.043-7.841 71.309-7.507 106.831-3.535 18.896 2.113 37.756 5.444 55.745 11.747.517.181 1.023.386 1.538.571-13.33-43.43-50.348-105.658-99.793-106.071-52.711-.441-93.488 70.688-106.141 111.552 13.344-6.298 27.385-11.034 41.82-14.264z" fill="#26252b"/><path d="m255.764 309.695c-2.649 0-4.796-2.147-4.796-4.796v-37.489c0-2.649 2.147-4.796 4.796-4.796 2.649 0 4.796 2.147 4.796 4.796v37.489c0 2.649-2.148 4.796-4.796 4.796z" fill="#2e2d32"/><path d="m188.988 285.273c-2.649 0-4.796-2.147-4.796-4.796v-16.058c0-2.649 2.147-4.796 4.796-4.796 2.649 0 4.796 2.147 4.796 4.796v16.058c0 2.649-2.148 4.796-4.796 4.796z" fill="#2e2d32"/><path d="m180.191 259.018h18.072v5.581h-18.072z" fill="#19181e"/><path d="m246.728 261.993h18.072v5.214h-18.072z" fill="#19181e"/><g fill="#333238"><path d="m153.397 138.841c9.473-15.221 20.517-29.253 33.074-42.048 3.208-3.268-1.816-8.299-5.027-5.027-12.969 13.214-24.403 27.768-34.186 43.487-2.425 3.895 3.723 7.468 6.139 3.588z" opacity=".41"/><path d="m197.231 87.998c3.31-3.567 7.06-6.44 11.363-8.714 4.047-2.139.458-8.278-3.588-6.139-4.79 2.532-9.116 5.855-12.802 9.826-3.109 3.35 1.907 8.39 5.027 5.027z" opacity=".41"/><path d="m310.93 281.373c14.057 7.612 24.779 19.337 31.243 33.944 1.848 4.175 7.975.562 6.139-3.588-6.913-15.623-18.78-28.364-33.793-36.494-4.025-2.18-7.618 3.956-3.589 6.138z" opacity=".15"/><path d="m346.181 329.311c1.318 4.467 1.848 8.916 1.641 13.568-.203 4.574 6.907 4.564 7.11 0 .233-5.237-.412-10.43-1.895-15.458-1.292-4.378-8.156-2.514-6.856 1.89z" opacity=".15"/><path d="m107.739 306.491c7.165-11.027 14.571-22.175 25.956-29.25 3.878-2.41.313-8.563-3.588-6.139-12.454 7.739-20.66 19.724-28.506 31.8-2.501 3.849 3.652 7.416 6.138 3.589z" opacity=".15"/><path d="m144.084 272.547c5.1-1.171 10.231-2.173 15.397-3.007 4.505-.727 2.593-7.579-1.89-6.856-5.166.834-10.297 1.836-15.397 3.007-4.458 1.023-2.571 7.88 1.89 6.856z" opacity=".15"/></g><path d="m311.951 254.421c10.797 3.188 20.148 8.888 27.973 16.977 3.187 3.294 8.211-1.736 5.027-5.027-8.645-8.936-19.189-15.285-31.11-18.805-4.397-1.299-6.275 5.56-1.89 6.855z" fill="#3e3e68"/><path d="m347.747 282.057c2.864 3.935 5.453 8.037 7.772 12.316 2.18 4.024 8.321.439 6.139-3.588-2.318-4.279-4.907-8.382-7.772-12.316-2.666-3.663-8.838-.119-6.139 3.588z" fill="#3e3e68"/><path d="m107.947 214.147c1.702 3.954 3.405 7.907 5.107 11.861.765 1.777 3.342 2.141 4.864 1.275 1.834-1.044 2.03-3.11 1.275-4.864-1.702-3.954-3.405-7.907-5.107-11.861-.765-1.777-3.342-2.141-4.864-1.275-1.833 1.044-2.03 3.111-1.275 4.864z" fill="#3e3e68"/><path d="m121.373 237.855c3.435 5.087 8.19 8.731 14.004 10.708 4.341 1.476 6.205-5.388 1.89-6.856-3.98-1.353-7.401-3.955-9.755-7.441-2.547-3.771-8.709-.217-6.139 3.589z" fill="#3e3e68"/></g><path d="m74.799 267.434c3.299-46.708 40.447-125.013 113.273-146.111 24.94-7.225 55.123-7.105 79.518 1.517 50.627 17.894 85.099 53.206 96.416 105.122 8.656 39.711 2.693 81.223-16.917 115.905 26.391-29.141 42.47-67.797 42.47-110.209 0-90.706-73.532-164.238-164.238-164.238s-164.238 73.532-164.238 164.238c0 23.492 4.943 45.826 13.828 66.035-.844-10.781-.865-21.604-.112-32.259z" fill="#32325b" opacity=".19"/><path d="m239.403 146.412c12.18.302 24.154 2.103 35.982 4.696.679-9.202 1.046-16.324.81-17.322-.706-2.991-70.818-19.101-96.387 1.329 0 0-.129 8.012.042 18.482 19.514-4.669 39.466-7.683 59.553-7.185z" fill="#d1d3c9" opacity=".55"/><path d="m93.677 128.636h22.499v5.149h-22.499z" fill="#4aede8"/><path d="m50.554 165.073h36v5h-36z" fill="#4aede8"/><path d="m58.541 116.323h30v5h-30z" fill="#4aede8"/><path d="m57.541 116.323h6.214v5h-6.214z" fill="#e55561"/><path d="m61.209 192.623h48.84v6.407h-48.84z" fill="#4aede8"/><path d="m103.95 192.623h6.099v6.407h-6.099z" fill="#ededed"/><path d="m98.232 192.623h6.099v6.407h-6.099z" fill="#e55561"/><path d="m124.53 72.463h36v6.407h-36z" fill="#e55561"/><path d="m247.863 53.096h36v6.407h-36z" fill="#e55561"/><path d="m154.072 51.596h34v3h-34z" fill="#e55561"/><path d="m140.264 60.008h20v2h-20z" fill="#e55561"/><path d="m367.325 204.821h22.949v6.407h-22.949z" fill="#e55561"/><path d="m319.915 103.046h22.949v6.407h-22.949z" fill="#e55561"/><path d="m310.378 119.636h22.949v6.407h-22.949z" fill="#e55561"/><path d="m368.332 77.863h23v7h-23z" fill="#e55561"/><path d="m236.863 68.51h29.348v5.097h-29.348z" fill="#e55561"/><path d="m236.863 68.51h6.365v5.097h-6.365z" fill="#4aede8"/><path d="m382.747 175.891h23v7h-23z" fill="#e55561"/><path d="m297.568 114.045h22.949v1h-22.949z" fill="#e55561"/><path d="m294.568 114.045h6.671v1h-6.671z" fill="#4aede8"/><path d="m70.473 152.185h22.949v2h-22.949z" fill="#f2f2f7"/><path d="m104.701 171.968h22.949v2h-22.949z" fill="#f2f2f7"/><path d="m52.771 271.958h24v4h-24z" fill="#f2f2f7"/><path d="m327.654 345.697h31.955v6.407h-31.955z" fill="#f2f2f7"/><path d="m77.699 237.969h31.955v6.407h-31.955z" fill="#f2f2f7"/><path d="m97.405 237.969h9.121v6.407h-9.121z" fill="#e55561"/><path d="m106.512 237.969h9.121v6.407h-9.121z" fill="#4aede8"/><path d="m49.122 286.489h48.84v8.963h-48.84z" fill="#f2f2f7"/><path d="m90.077 286.489h7.885v8.963h-7.885z" fill="#e55561"/><path d="m354.671 235.242h48.84v8.963h-48.84z" fill="#f2f2f7"/><path d="m374.962 191.21h35.14v4.482h-35.14z" fill="#f2f2f7"/><path d="m370.962 191.21h6.027v4.482h-6.027z" fill="#4aede8"/><path d="m364.935 191.21h6.027v4.482h-6.027z" fill="#e55561"/><path d="m354.671 235.242h9.875v8.963h-9.875z" fill="#4aede8"/><path d="m88.041 179.086h28.135v6.257h-28.135z" fill="#4aede8"/><path d="m86.041 179.086h6.053v6.257h-6.053z" fill="#e55561"/><path d="m91.607 179.086h6.053v6.257h-6.053z" fill="#f2f2f7"/><path d="m353.047 98.393h21v3h-21z" fill="#4aede8"/><path d="m94.094 205.025h7.735v6.441h-7.735z" fill="#4aede8"/><path d="m292.164 371.525h30.463v4.8h-30.463z" fill="#4aede8"/><path d="m285.543 364.759h13.241v2.4h-13.241z" fill="#4aede8"/><path d="m117.302 393.415h45.936v5.879h-45.936z" fill="#f2f2f7"/><path d="m217.121 214.208c-1.376-1.388-2.064-3.064-2.064-5.03 0-3.931 1.388-7.279 4.163-10.042 2.775-2.775 6.123-4.163 10.043-4.163h7.094c1.965 0 3.642-.694 5.03-2.081 1.387-1.388 2.082-3.064 2.082-5.03 0-1.954-.695-3.631-2.082-5.03-1.388-1.376-3.064-2.064-5.03-2.064h-14.206c-1.955 0-3.631-.694-5.03-2.081-1.376-1.388-2.064-3.064-2.064-5.03 0-1.954.688-3.631 2.064-5.03 1.399-1.388 3.076-2.082 5.03-2.082h21.317c3.932 0 7.279 1.394 10.043 4.18 2.773 2.775 4.162 6.123 4.162 10.042v14.206c0 3.932-1.389 7.279-4.162 10.043-2.775 2.775-6.123 4.163-10.043 4.163h-14.206c0 1.966-.694 3.643-2.082 5.03s-3.064 2.081-5.03 2.081c-1.953-.001-3.63-.695-5.029-2.082zm0 21.316c-1.376-1.398-2.064-3.075-2.064-5.03 0-1.965.688-3.642 2.064-5.03 1.399-1.388 3.076-2.082 5.03-2.082 1.965 0 3.642.694 5.03 2.082s2.082 3.064 2.082 5.03c0 1.955-.694 3.631-2.082 5.03-1.388 1.377-3.064 2.064-5.03 2.064-1.954.001-3.631-.687-5.03-2.064z" fill="#e55561"/><path d="m198.121 214.208c-1.376-1.388-2.064-3.064-2.064-5.03 0-3.931 1.388-7.279 4.163-10.042 2.775-2.775 6.123-4.163 10.043-4.163h7.094c1.965 0 3.642-.694 5.03-2.081 1.387-1.388 2.082-3.064 2.082-5.03 0-1.954-.695-3.631-2.082-5.03-1.388-1.376-3.064-2.064-5.03-2.064h-14.206c-1.955 0-3.631-.694-5.03-2.081-1.376-1.388-2.064-3.064-2.064-5.03 0-1.954.688-3.631 2.064-5.03 1.399-1.388 3.076-2.082 5.03-2.082h21.317c3.932 0 7.279 1.394 10.043 4.18 2.773 2.775 4.162 6.123 4.162 10.042v14.206c0 3.932-1.389 7.279-4.162 10.043-2.775 2.775-6.123 4.163-10.043 4.163h-14.206c0 1.966-.694 3.643-2.082 5.03s-3.064 2.081-5.03 2.081c-1.953-.001-3.63-.695-5.029-2.082zm0 21.316c-1.376-1.398-2.064-3.075-2.064-5.03 0-1.965.688-3.642 2.064-5.03 1.399-1.388 3.076-2.082 5.03-2.082 1.965 0 3.642.694 5.03 2.082s2.082 3.064 2.082 5.03c0 1.955-.694 3.631-2.082 5.03-1.388 1.377-3.064 2.064-5.03 2.064-1.954.001-3.631-.687-5.03-2.064z" fill="#4aede8"/><path d="m207.121 214.208c-1.376-1.388-2.064-3.064-2.064-5.03 0-3.931 1.388-7.279 4.163-10.042 2.775-2.775 6.123-4.163 10.043-4.163h7.094c1.965 0 3.642-.694 5.03-2.081 1.387-1.388 2.082-3.064 2.082-5.03 0-1.954-.695-3.631-2.082-5.03-1.388-1.376-3.064-2.064-5.03-2.064h-14.206c-1.955 0-3.631-.694-5.03-2.081-1.376-1.388-2.064-3.064-2.064-5.03 0-1.954.688-3.631 2.064-5.03 1.399-1.388 3.076-2.082 5.03-2.082h21.317c3.932 0 7.279 1.394 10.043 4.18 2.773 2.775 4.162 6.123 4.162 10.042v14.206c0 3.932-1.389 7.279-4.162 10.043-2.775 2.775-6.123 4.163-10.043 4.163h-14.206c0 1.966-.694 3.643-2.082 5.03s-3.064 2.081-5.03 2.081c-1.953-.001-3.63-.695-5.029-2.082zm0 21.316c-1.376-1.398-2.064-3.075-2.064-5.03 0-1.965.688-3.642 2.064-5.03 1.399-1.388 3.076-2.082 5.03-2.082 1.965 0 3.642.694 5.03 2.082s2.082 3.064 2.082 5.03c0 1.955-.694 3.631-2.082 5.03-1.388 1.377-3.064 2.064-5.03 2.064-1.954.001-3.631-.687-5.03-2.064z" fill="#f2f2f7"/><path d="m495.662 216.601c-2.441-2.481-3.662-5.456-3.662-8.923v-88.218c0-6.974 2.461-12.913 7.385-17.815 4.923-4.943 10.862-7.416 17.816-7.416h63.017c3.466 0 6.441 1.23 8.923 3.692 2.441 2.482 3.662 5.457 3.662 8.923 0 3.487-1.221 6.461-3.662 8.923-2.482 2.462-5.457 3.692-8.923 3.692h-50.432c-3.467 0-6.441 1.221-8.923 3.662-2.441 2.482-3.662 5.457-3.662 8.923 0 3.488 1.22 6.462 3.662 8.923 2.482 2.462 5.457 3.692 8.923 3.692h50.432c3.466 0 6.441 1.231 8.923 3.692 2.441 2.462 3.662 5.426 3.662 8.893 0 3.488-1.221 6.462-3.662 8.923-2.482 2.462-5.457 3.692-8.923 3.692h-50.432c-3.467 0-6.441 1.231-8.923 3.692-2.441 2.462-3.662 5.437-3.662 8.923v25.201c0 3.467-1.231 6.441-3.692 8.923-2.462 2.441-5.436 3.662-8.923 3.662-3.468.003-6.442-1.218-8.924-3.659z" fill="#e55561"/><path d="m612.095 216.601c-2.441-2.481-3.662-5.456-3.662-8.923v-88.218c0-6.974 2.461-12.913 7.385-17.815 4.923-4.943 10.862-7.416 17.816-7.416h50.401c6.975 0 12.913 2.472 17.816 7.416 4.923 4.923 7.385 10.862 7.385 17.815v50.401c0 6.975-2.462 12.914-7.385 17.816-4.924 4.923-10.862 7.385-17.816 7.385h12.616c3.466 0 6.44 1.231 8.923 3.692 2.441 2.462 3.662 5.436 3.662 8.923 0 3.467-1.221 6.441-3.662 8.923-2.482 2.441-5.457 3.662-8.923 3.662h-12.616c-6.975 0-12.913-2.462-17.815-7.385-4.923-4.923-7.385-10.862-7.385-17.816h-12.616c-3.467 0-6.441 1.231-8.923 3.692-2.441 2.462-3.662 5.436-3.662 8.923 0 3.467-1.231 6.441-3.692 8.923-2.462 2.441-5.436 3.662-8.923 3.662-3.467.002-6.442-1.219-8.924-3.66zm59.356-46.74c3.466 0 6.431-1.23 8.893-3.692 2.461-2.461 3.692-5.436 3.692-8.923v-25.201c0-3.466-1.23-6.441-3.692-8.923-2.462-2.441-5.426-3.662-8.893-3.662h-25.231c-3.467 0-6.441 1.221-8.923 3.662-2.441 2.482-3.662 5.457-3.662 8.923v25.201c0 3.488 1.22 6.462 3.662 8.923 2.482 2.462 5.457 3.692 8.923 3.692z" fill="#e55561"/><path d="m728.529 216.601c-2.441-2.481-3.662-5.456-3.662-8.923v-100.833c0-3.467 1.221-6.441 3.662-8.923 2.481-2.462 5.456-3.692 8.923-3.692 3.487 0 6.462 1.23 8.923 3.692 2.462 2.482 3.692 5.457 3.692 8.923v100.833c0 3.467-1.23 6.441-3.692 8.923-2.461 2.441-5.436 3.662-8.923 3.662-3.467 0-6.441-1.221-8.923-3.662z" fill="#e55561"/><path d="m790.899 220.263c-6.975 0-12.913-2.462-17.815-7.385-4.923-4.923-7.385-10.862-7.385-17.816v-75.602c0-6.974 2.462-12.913 7.385-17.815 4.923-4.943 10.862-7.416 17.815-7.416h63.018c3.466 0 6.44 1.23 8.923 3.692 2.441 2.482 3.662 5.457 3.662 8.923 0 3.487-1.221 6.461-3.662 8.923-2.482 2.462-5.457 3.692-8.923 3.692h-50.433c-3.467 0-6.441 1.221-8.923 3.662-2.441 2.482-3.662 5.457-3.662 8.923 0 3.488 1.221 6.462 3.662 8.923 2.481 2.462 5.456 3.692 8.923 3.692h50.433c3.466 0 6.44 1.231 8.923 3.692 2.441 2.462 3.662 5.426 3.662 8.893 0 3.488-1.221 6.462-3.662 8.923-2.482 2.462-5.457 3.692-8.923 3.692h-50.433c-3.467 0-6.441 1.231-8.923 3.692-2.441 2.462-3.662 5.437-3.662 8.923 0 3.467 1.221 6.441 3.662 8.923 2.481 2.441 5.456 3.662 8.923 3.662h50.433c3.466 0 6.44 1.231 8.923 3.692 2.441 2.462 3.662 5.436 3.662 8.923 0 3.467-1.221 6.441-3.662 8.923-2.482 2.441-5.457 3.662-8.923 3.662h-63.018z" fill="#e55561"/><path d="m885.795 216.601c-2.441-2.481-3.662-5.456-3.662-8.923v-88.218c0-6.974 2.462-12.913 7.385-17.815 4.923-4.943 10.862-7.416 17.815-7.416h50.401c6.975 0 12.913 2.472 17.816 7.416 4.923 4.923 7.385 10.862 7.385 17.815v88.218c0 3.467-1.221 6.441-3.662 8.923-2.482 2.441-5.457 3.662-8.923 3.662-3.487 0-6.462-1.221-8.924-3.662-2.461-2.481-3.692-5.456-3.692-8.923v-75.633c0-3.466-1.23-6.441-3.692-8.923-2.461-2.441-5.426-3.662-8.893-3.662h-25.231c-3.467 0-6.441 1.221-8.923 3.662-2.441 2.482-3.662 5.457-3.662 8.923v75.633c0 3.467-1.23 6.441-3.692 8.923-2.461 2.441-5.436 3.662-8.923 3.662-3.467 0-6.442-1.221-8.923-3.662z" fill="#e55561"/><path d="m1011.151 220.263c-3.467 0-6.441-1.221-8.923-3.662-2.441-2.481-3.662-5.456-3.662-8.923v-100.803c0-3.487 1.221-6.462 3.662-8.923 2.481-2.482 5.456-3.723 8.923-3.723h63.017c6.975 0 12.913 2.472 17.816 7.416 4.923 4.923 7.385 10.862 7.385 17.815v75.602c0 6.975-2.462 12.914-7.385 17.816-4.924 4.923-10.862 7.385-17.816 7.385zm50.432-25.201c3.467 0 6.432-1.22 8.893-3.662 2.462-2.482 3.692-5.457 3.692-8.923v-50.432c0-3.466-1.23-6.441-3.692-8.923-2.461-2.441-5.426-3.662-8.893-3.662h-25.231c-3.467 0-6.441 1.221-8.923 3.662-2.441 2.482-3.662 5.457-3.662 8.923v50.432c0 3.467 1.221 6.441 3.662 8.923 2.481 2.441 5.456 3.662 8.923 3.662z" fill="#e55561"/><path d="m488.662 215.601c-2.441-2.481-3.662-5.456-3.662-8.923v-88.218c0-6.974 2.461-12.913 7.385-17.815 4.923-4.943 10.862-7.416 17.816-7.416h63.017c3.466 0 6.441 1.23 8.923 3.692 2.441 2.482 3.662 5.457 3.662 8.923 0 3.487-1.221 6.461-3.662 8.923-2.482 2.462-5.457 3.692-8.923 3.692h-50.432c-3.467 0-6.441 1.221-8.923 3.662-2.441 2.482-3.662 5.457-3.662 8.923 0 3.488 1.22 6.462 3.662 8.923 2.482 2.462 5.457 3.692 8.923 3.692h50.432c3.466 0 6.441 1.231 8.923 3.692 2.441 2.462 3.662 5.426 3.662 8.893 0 3.488-1.221 6.462-3.662 8.923-2.482 2.462-5.457 3.692-8.923 3.692h-50.432c-3.467 0-6.441 1.231-8.923 3.692-2.441 2.462-3.662 5.437-3.662 8.923v25.201c0 3.467-1.231 6.441-3.692 8.923-2.462 2.441-5.436 3.662-8.923 3.662-3.468.003-6.442-1.218-8.924-3.659z" fill="#e55561"/><path d="m605.095 215.601c-2.441-2.481-3.662-5.456-3.662-8.923v-88.218c0-6.974 2.461-12.913 7.385-17.815 4.923-4.943 10.862-7.416 17.816-7.416h50.401c6.975 0 12.913 2.472 17.816 7.416 4.923 4.923 7.385 10.862 7.385 17.815v50.401c0 6.975-2.462 12.914-7.385 17.816-4.924 4.923-10.862 7.385-17.816 7.385h12.616c3.466 0 6.44 1.231 8.923 3.692 2.441 2.462 3.662 5.436 3.662 8.923 0 3.467-1.221 6.441-3.662 8.923-2.482 2.441-5.457 3.662-8.923 3.662h-12.616c-6.975 0-12.913-2.462-17.815-7.385-4.923-4.923-7.385-10.862-7.385-17.816h-12.616c-3.467 0-6.441 1.231-8.923 3.692-2.441 2.462-3.662 5.436-3.662 8.923 0 3.467-1.231 6.441-3.692 8.923-2.462 2.441-5.436 3.662-8.923 3.662-3.467.002-6.442-1.219-8.924-3.66zm59.356-46.74c3.466 0 6.431-1.23 8.893-3.692 2.461-2.461 3.692-5.436 3.692-8.923v-25.201c0-3.466-1.23-6.441-3.692-8.923-2.462-2.441-5.426-3.662-8.893-3.662h-25.231c-3.467 0-6.441 1.221-8.923 3.662-2.441 2.482-3.662 5.457-3.662 8.923v25.201c0 3.488 1.22 6.462 3.662 8.923 2.482 2.462 5.457 3.692 8.923 3.692z" fill="#e55561"/><path d="m721.529 215.601c-2.441-2.481-3.662-5.456-3.662-8.923v-100.833c0-3.467 1.221-6.441 3.662-8.923 2.481-2.462 5.456-3.692 8.923-3.692 3.487 0 6.462 1.23 8.923 3.692 2.462 2.482 3.692 5.457 3.692 8.923v100.833c0 3.467-1.23 6.441-3.692 8.923-2.461 2.441-5.436 3.662-8.923 3.662-3.467 0-6.441-1.221-8.923-3.662z" fill="#e55561"/><path d="m783.899 219.263c-6.975 0-12.913-2.462-17.815-7.385-4.923-4.923-7.385-10.862-7.385-17.816v-75.602c0-6.974 2.462-12.913 7.385-17.815 4.923-4.943 10.862-7.416 17.815-7.416h63.018c3.466 0 6.44 1.23 8.923 3.692 2.441 2.482 3.662 5.457 3.662 8.923 0 3.487-1.221 6.461-3.662 8.923-2.482 2.462-5.457 3.692-8.923 3.692h-50.433c-3.467 0-6.441 1.221-8.923 3.662-2.441 2.482-3.662 5.457-3.662 8.923 0 3.488 1.221 6.462 3.662 8.923 2.481 2.462 5.456 3.692 8.923 3.692h50.433c3.466 0 6.44 1.231 8.923 3.692 2.441 2.462 3.662 5.426 3.662 8.893 0 3.488-1.221 6.462-3.662 8.923-2.482 2.462-5.457 3.692-8.923 3.692h-50.433c-3.467 0-6.441 1.231-8.923 3.692-2.441 2.462-3.662 5.437-3.662 8.923 0 3.467 1.221 6.441 3.662 8.923 2.481 2.441 5.456 3.662 8.923 3.662h50.433c3.466 0 6.44 1.231 8.923 3.692 2.441 2.462 3.662 5.436 3.662 8.923 0 3.467-1.221 6.441-3.662 8.923-2.482 2.441-5.457 3.662-8.923 3.662h-63.018z" fill="#e55561"/><path d="m878.795 215.601c-2.441-2.481-3.662-5.456-3.662-8.923v-88.218c0-6.974 2.462-12.913 7.385-17.815 4.923-4.943 10.862-7.416 17.815-7.416h50.401c6.975 0 12.913 2.472 17.816 7.416 4.923 4.923 7.385 10.862 7.385 17.815v88.218c0 3.467-1.221 6.441-3.662 8.923-2.482 2.441-5.457 3.662-8.923 3.662-3.487 0-6.462-1.221-8.924-3.662-2.461-2.481-3.692-5.456-3.692-8.923v-75.633c0-3.466-1.23-6.441-3.692-8.923-2.461-2.441-5.426-3.662-8.893-3.662h-25.231c-3.467 0-6.441 1.221-8.923 3.662-2.441 2.482-3.662 5.457-3.662 8.923v75.633c0 3.467-1.23 6.441-3.692 8.923-2.461 2.441-5.436 3.662-8.923 3.662-3.467 0-6.442-1.221-8.923-3.662z" fill="#e55561"/><path d="m1004.151 219.263c-3.467 0-6.441-1.221-8.923-3.662-2.441-2.481-3.662-5.456-3.662-8.923v-100.803c0-3.487 1.221-6.462 3.662-8.923 2.481-2.482 5.456-3.723 8.923-3.723h63.017c6.975 0 12.913 2.472 17.816 7.416 4.923 4.923 7.385 10.862 7.385 17.815v75.602c0 6.975-2.462 12.914-7.385 17.816-4.924 4.923-10.862 7.385-17.816 7.385zm50.432-25.201c3.467 0 6.432-1.22 8.893-3.662 2.462-2.482 3.692-5.457 3.692-8.923v-50.432c0-3.466-1.23-6.441-3.692-8.923-2.461-2.441-5.426-3.662-8.893-3.662h-25.231c-3.467 0-6.441 1.221-8.923 3.662-2.441 2.482-3.662 5.457-3.662 8.923v50.432c0 3.467 1.221 6.441 3.662 8.923 2.481 2.441 5.456 3.662 8.923 3.662z" fill="#e55561"/><path d="m521.201 370.503c-6.975 0-12.914-2.462-17.816-7.385-4.923-4.923-7.385-10.862-7.385-17.815v-25.201c0-6.974 2.461-12.913 7.385-17.815 4.923-4.924 10.862-7.385 17.816-7.385h37.816c3.466 0 6.431-1.231 8.893-3.692 2.461-2.462 3.692-5.437 3.692-8.924 0-3.466-1.231-6.44-3.692-8.923-2.462-2.441-5.426-3.662-8.893-3.662h-50.432c-3.467 0-6.441-1.23-8.923-3.692-2.441-2.461-3.662-5.436-3.662-8.923 0-3.467 1.22-6.441 3.662-8.924 2.482-2.461 5.457-3.692 8.923-3.692h63.017c6.974 0 12.913 2.473 17.815 7.416 4.923 4.923 7.385 10.861 7.385 17.815v25.201c0 6.975-2.462 12.913-7.385 17.815-4.923 4.923-10.862 7.385-17.815 7.385h-37.816c-3.467 0-6.441 1.23-8.923 3.692-2.441 2.462-3.662 5.437-3.662 8.924 0 3.467 1.22 6.441 3.662 8.923 2.482 2.441 5.457 3.662 8.923 3.662h50.432c3.466 0 6.441 1.23 8.923 3.692 2.441 2.461 3.662 5.436 3.662 8.923 0 3.467-1.221 6.441-3.662 8.923-2.482 2.441-5.457 3.662-8.923 3.662z" fill="#201f25"/><path d="m637.634 370.503c-6.975 0-12.914-2.462-17.816-7.385-4.923-4.923-7.385-10.862-7.385-17.815v-75.603c0-6.974 2.461-12.912 7.385-17.815 4.923-4.943 10.862-7.416 17.816-7.416h50.401c6.975 0 12.913 2.473 17.816 7.416 4.923 4.923 7.385 10.861 7.385 17.815v75.603c0 6.975-2.462 12.913-7.385 17.815-4.924 4.923-10.862 7.385-17.816 7.385zm37.817-25.2c3.466 0 6.431-1.221 8.893-3.662 2.461-2.481 3.692-5.456 3.692-8.923v-50.433c0-3.466-1.23-6.44-3.692-8.923-2.462-2.441-5.426-3.662-8.893-3.662h-25.231c-3.467 0-6.441 1.221-8.923 3.662-2.441 2.482-3.662 5.457-3.662 8.923v50.433c0 3.467 1.22 6.441 3.662 8.923 2.482 2.441 5.457 3.662 8.923 3.662z" fill="#201f25"/><path d="m732.529 366.841c-2.441-2.481-3.662-5.456-3.662-8.923v-88.218c0-6.974 2.462-12.912 7.385-17.815 4.923-4.943 10.862-7.416 17.815-7.416h50.401c6.975 0 12.913 2.473 17.816 7.416 4.923 4.923 7.385 10.861 7.385 17.815v88.218c0 3.467-1.221 6.441-3.662 8.923-2.482 2.441-5.457 3.662-8.923 3.662-3.487 0-6.462-1.221-8.924-3.662-2.461-2.481-3.692-5.456-3.692-8.923v-75.633c0-3.466-1.23-6.44-3.692-8.923-2.461-2.441-5.426-3.662-8.893-3.662h-25.231c-3.467 0-6.441 1.221-8.923 3.662-2.441 2.482-3.662 5.457-3.662 8.923v75.633c0 3.467-1.23 6.441-3.692 8.923-2.461 2.441-5.436 3.662-8.923 3.662-3.467 0-6.441-1.221-8.923-3.662z" fill="#201f25"/><path d="m870.501 370.503c-6.975 0-12.913-2.462-17.815-7.385-4.923-4.923-7.385-10.862-7.385-17.815v-75.603c0-6.974 2.462-12.912 7.385-17.815 4.923-4.943 10.862-7.416 17.815-7.416h63.018c3.466 0 6.44 1.231 8.923 3.692 2.441 2.482 3.662 5.457 3.662 8.924 0 3.487-1.221 6.462-3.662 8.923-2.482 2.462-5.457 3.692-8.923 3.692h-50.433c-3.467 0-6.441 1.221-8.923 3.662-2.441 2.482-3.662 5.457-3.662 8.923 0 3.487 1.221 6.462 3.662 8.924 2.481 2.461 5.456 3.692 8.923 3.692h50.433c3.466 0 6.44 1.23 8.923 3.692 2.441 2.461 3.662 5.426 3.662 8.893 0 3.487-1.221 6.461-3.662 8.923-2.482 2.462-5.457 3.692-8.923 3.692h-50.433c-3.467 0-6.441 1.23-8.923 3.692-2.441 2.462-3.662 5.437-3.662 8.924 0 3.467 1.221 6.441 3.662 8.923 2.481 2.441 5.456 3.662 8.923 3.662h50.433c3.466 0 6.44 1.23 8.923 3.692 2.441 2.461 3.662 5.436 3.662 8.923 0 3.467-1.221 6.441-3.662 8.923-2.482 2.441-5.457 3.662-8.923 3.662h-63.018z" fill="#201f25"/><path d="m511.201 368.503c-6.975 0-12.914-2.462-17.816-7.385-4.923-4.923-7.385-10.862-7.385-17.815v-25.201c0-6.974 2.461-12.913 7.385-17.815 4.923-4.924 10.862-7.385 17.816-7.385h37.816c3.466 0 6.431-1.231 8.893-3.692 2.461-2.462 3.692-5.437 3.692-8.924 0-3.466-1.231-6.44-3.692-8.923-2.462-2.441-5.426-3.662-8.893-3.662h-50.432c-3.467 0-6.441-1.23-8.923-3.692-2.441-2.461-3.662-5.436-3.662-8.923 0-3.467 1.22-6.441 3.662-8.924 2.482-2.461 5.457-3.692 8.923-3.692h63.017c6.974 0 12.913 2.473 17.815 7.416 4.923 4.923 7.385 10.861 7.385 17.815v25.201c0 6.975-2.462 12.913-7.385 17.815-4.923 4.923-10.862 7.385-17.815 7.385h-37.816c-3.467 0-6.441 1.23-8.923 3.692-2.441 2.462-3.662 5.437-3.662 8.924 0 3.467 1.22 6.441 3.662 8.923 2.482 2.441 5.457 3.662 8.923 3.662h50.432c3.466 0 6.441 1.23 8.923 3.692 2.441 2.461 3.662 5.436 3.662 8.923 0 3.467-1.221 6.441-3.662 8.923-2.482 2.441-5.457 3.662-8.923 3.662z" fill="#4aede8"/><path d="m627.634 368.503c-6.975 0-12.914-2.462-17.816-7.385-4.923-4.923-7.385-10.862-7.385-17.815v-75.603c0-6.974 2.461-12.912 7.385-17.815 4.923-4.943 10.862-7.416 17.816-7.416h50.401c6.975 0 12.913 2.473 17.816 7.416 4.923 4.923 7.385 10.861 7.385 17.815v75.603c0 6.975-2.462 12.913-7.385 17.815-4.924 4.923-10.862 7.385-17.816 7.385zm37.817-25.2c3.466 0 6.431-1.221 8.893-3.662 2.461-2.481 3.692-5.456 3.692-8.923v-50.433c0-3.466-1.23-6.44-3.692-8.923-2.462-2.441-5.426-3.662-8.893-3.662h-25.231c-3.467 0-6.441 1.221-8.923 3.662-2.441 2.482-3.662 5.457-3.662 8.923v50.433c0 3.467 1.22 6.441 3.662 8.923 2.482 2.441 5.457 3.662 8.923 3.662z" fill="#4aede8"/><path d="m722.529 364.841c-2.441-2.481-3.662-5.456-3.662-8.923v-88.218c0-6.974 2.462-12.912 7.385-17.815 4.923-4.943 10.862-7.416 17.815-7.416h50.401c6.975 0 12.913 2.473 17.816 7.416 4.923 4.923 7.385 10.861 7.385 17.815v88.218c0 3.467-1.221 6.441-3.662 8.923-2.482 2.441-5.457 3.662-8.923 3.662-3.487 0-6.462-1.221-8.924-3.662-2.461-2.481-3.692-5.456-3.692-8.923v-75.633c0-3.466-1.23-6.44-3.692-8.923-2.461-2.441-5.426-3.662-8.893-3.662h-25.231c-3.467 0-6.441 1.221-8.923 3.662-2.441 2.482-3.662 5.457-3.662 8.923v75.633c0 3.467-1.23 6.441-3.692 8.923-2.461 2.441-5.436 3.662-8.923 3.662-3.467 0-6.441-1.221-8.923-3.662z" fill="#4aede8"/><path d="m860.501 368.503c-6.975 0-12.913-2.462-17.815-7.385-4.923-4.923-7.385-10.862-7.385-17.815v-75.603c0-6.974 2.462-12.912 7.385-17.815 4.923-4.943 10.862-7.416 17.815-7.416h63.018c3.466 0 6.44 1.231 8.923 3.692 2.441 2.482 3.662 5.457 3.662 8.924 0 3.487-1.221 6.462-3.662 8.923-2.482 2.462-5.457 3.692-8.923 3.692h-50.433c-3.467 0-6.441 1.221-8.923 3.662-2.441 2.482-3.662 5.457-3.662 8.923 0 3.487 1.221 6.462 3.662 8.924 2.481 2.461 5.456 3.692 8.923 3.692h50.433c3.466 0 6.44 1.23 8.923 3.692 2.441 2.461 3.662 5.426 3.662 8.893 0 3.487-1.221 6.461-3.662 8.923-2.482 2.462-5.457 3.692-8.923 3.692h-50.433c-3.467 0-6.441 1.23-8.923 3.692-2.441 2.462-3.662 5.437-3.662 8.924 0 3.467 1.221 6.441 3.662 8.923 2.481 2.441 5.456 3.662 8.923 3.662h50.433c3.466 0 6.44 1.23 8.923 3.692 2.441 2.461 3.662 5.436 3.662 8.923 0 3.467-1.221 6.441-3.662 8.923-2.482 2.441-5.457 3.662-8.923 3.662h-63.018z" fill="#4aede8"/></svg>