<?xml version="1.0" encoding="iso-8859-1"?>
<!-- Generator: Adobe Illustrator 23.0.0, SVG Export Plug-In . SVG Version: 6.00 Build 0)  -->
<svg version="1.1" id="Layer_1" xmlns="http://www.w3.org/2000/svg" xmlns:xlink="http://www.w3.org/1999/xlink" x="0px" y="0px"
	 viewBox="0 0 1127 469" style="enable-background:new 0 0 1127 469;" xml:space="preserve">
<g>
	<path style="fill:#E55561;" d="M395.963,233.658c0,90.706-71.003,155.219-161.709,155.219S65.771,311.317,65.771,220.611
		c0-82.46,60.77-150.727,139.968-162.457c7.92-1.173,16.024-6.558,24.27-6.558c8.246,3.423,16.143-6.693,24.063,1.5
		c7.92,1.748,15.863,11.896,23.371,10.23c7.509,0.682,14.791,6.331,21.805,8.311c12.991,1.906,13.758,8.884,20.191,11.195
		c6.433,2.413,12.555,12.136,18.323,13.825c5.768,8.136,11.182,12.736,16.201,16.201c5.018-0.566,9.641,11.14,13.825,18.323
		c4.184,5.533,7.93,12.594,11.195,20.191c3.265,6.04,6.05,15.279,8.311,21.805c2.262,10.613,4,15.244,5.173,23.164
		C393.64,204.261,395.963,225.412,395.963,233.658z"/>
	<path style="fill:#4AEDE8;" d="M379.832,238.905c0,82.46-42.947,162.776-122.145,174.507c-7.92,1.173-25.507,15.8-33.753,14.133
		c-8.246-3.755-19.867-4.923-27.787-8.837c-7.92-2.111-23.434,1.219-30.942-0.497c-7.509-1.816-20.954,3.819-27.967-2.917
		c-7.013-1.399-4.641-30.563-11.074-38.611c-6.433-3.623-12.555-14.101-18.323-13.825c-5.768-7.531-11.183-9.975-16.201-16.201
		c-5.018-7.176-9.641-14.556-13.825-18.323c-4.184-6.046-7.93-12.434-11.195-20.191c-3.265-7.213-6.05-14.688-8.311-21.804
		c-2.261-6.152-4-16.267-5.173-23.164c-1.173-7.92-1.781-16.024-1.781-24.27c0-90.706,73.532-164.238,164.238-164.238
		C306.301,74.667,379.832,148.199,379.832,238.905z"/>
	<rect x="42.473" y="215.987" style="fill:#4AEDE8;" width="34.353" height="12.903"/>
	<rect x="103.396" y="404.82" style="fill:#4AEDE8;" width="32.875" height="5.723"/>
	<rect x="228.835" y="417.544" style="fill:#4AEDE8;" width="32.875" height="5.723"/>
	<rect x="112.333" y="414.682" style="fill:#4AEDE8;" width="16.437" height="2.862"/>
	<rect x="236.652" y="426.245" style="fill:#4AEDE8;" width="16.437" height="2.862"/>
	<rect x="24.421" y="237.905" style="fill:#4AEDE8;" width="46.133" height="16.171"/>
	<rect x="76.826" y="342.574" style="fill:#4AEDE8;" width="46.133" height="16.171"/>
	<rect x="72.826" y="342.574" style="fill:#32325B;" width="10.75" height="16.171"/>
	<rect x="340.919" y="154.809" style="fill:#4AEDE8;" width="44.315" height="10.798"/>
	<rect x="383.153" y="130.353" style="fill:#4AEDE8;" width="12.809" height="7.703"/>
	<rect x="375.414" y="318.853" style="fill:#4AEDE8;" width="16.063" height="12.903"/>
	<rect x="104.898" y="367.729" style="fill:#4AEDE8;" width="24.81" height="10.903"/>
	<rect x="344.405" y="129.8" style="fill:#32325B;" width="34.353" height="10.314"/>
	<rect x="357.597" y="297.557" style="fill:#32325B;" width="34.353" height="12.903"/>
	<rect x="352.93" y="144.544" style="fill:#32325B;" width="49.74" height="4.924"/>
	<rect x="353.807" y="289.6" style="fill:#32325B;" width="49.741" height="3.517"/>
	<rect x="27.639" y="239.644" style="fill:#32325B;" width="57.99" height="1.528"/>
	<rect x="32.087" y="244.647" style="fill:#32325B;" width="57.99" height="1.529"/>
	<rect x="37.334" y="263.898" style="fill:#32325B;" width="57.99" height="1.529"/>
	<rect x="301.956" y="90.42" style="fill:#32325B;" width="39.793" height="2.143"/>
	<rect x="73.78" y="136.708" style="fill:#32325B;" width="39.793" height="2.143"/>
	<rect x="336.406" y="81.363" style="fill:#32325B;" width="9.975" height="5.765"/>
	<rect x="68.554" y="128.328" style="fill:#32325B;" width="9.975" height="5.765"/>
	<rect x="47.594" y="224.531" style="fill:#32325B;" width="34.353" height="8.719"/>
	<rect x="31.897" y="249.383" style="fill:#32325B;" width="38.918" height="8.258"/>
	<circle style="fill:#32325B;" cx="225.32" cy="233.658" r="164.238"/>
	<g>
		<defs>
			<circle id="SVGID_1_" cx="225.32" cy="233.658" r="164.238"/>
		</defs>
		<clipPath id="SVGID_2_">
			<use xlink:href="#SVGID_1_"  style="overflow:visible;"/>
		</clipPath>
		<g style="clip-path:url(#SVGID_2_);">
			<path style="fill:#201F25;" d="M273.602,261.733c13.351-0.715,54.387-30.127,59.126-59.657S293.674,62.558,227.886,62.008
				c-65.788-0.55-112.995,110.397-110.125,134.829c4.967,42.269,53.56,63.457,66.43,65.585
				C197.062,264.55,258.541,262.54,273.602,261.733z"/>
			<path style="opacity:0.14;fill:#201F25;" d="M227.886,62.008c-45.088-0.377-81.444,51.614-98.938,92.236
				c1.781,6.952,3.771,13.851,6.013,20.674c9.814,29.866,24.562,58.795,46.827,81.334c2.292,2.321,4.668,4.519,7.086,6.652
				c14.227,0.961,46.841,0.242,68.141-0.49c9.967-8.267,19.26-17.342,27.588-27.448c18.481-22.428,31.568-49.403,39.452-77.555
				C308.384,115.15,273.402,62.389,227.886,62.008z"/>
			<path style="fill:#201F25;" d="M225.855,248.438c44.486,0,91.11,5.375,118.691,38.948
				c27.581,33.573,30.251,94.147,20.076,118.367c-10.174,24.22-51.608,36.587-138.768,36.587s-129.628-4.733-144.999-38.299
				c-19.81-43.259,15.162-102.443,26.927-118.997C131.191,252.108,175.684,248.438,225.855,248.438z"/>
			<path style="opacity:0.43;fill:#2E2D32;" d="M226.739,352.833h-2.202c-2.235,0-4.047-1.812-4.047-4.047v-96.3
				c0-2.235,1.812-4.047,4.047-4.047h2.202c2.235,0,4.047,1.812,4.047,4.047v96.3C230.787,351.021,228.975,352.833,226.739,352.833z
				"/>
			<path style="fill:#26252B;" d="M163.565,159.296c35.043-7.841,71.309-7.507,106.831-3.535
				c18.896,2.113,37.756,5.444,55.745,11.747c0.517,0.181,1.023,0.386,1.538,0.571c-13.33-43.43-50.348-105.658-99.793-106.071
				c-52.711-0.441-93.488,70.688-106.141,111.552C135.089,167.262,149.13,162.526,163.565,159.296z"/>
			<path style="fill:#2E2D32;" d="M255.764,309.695L255.764,309.695c-2.649,0-4.796-2.147-4.796-4.796V267.41
				c0-2.649,2.147-4.796,4.796-4.796l0,0c2.649,0,4.796,2.147,4.796,4.796v37.489C260.56,307.548,258.412,309.695,255.764,309.695z"
				/>
			<path style="fill:#2E2D32;" d="M188.988,285.273L188.988,285.273c-2.649,0-4.796-2.147-4.796-4.796v-16.058
				c0-2.649,2.147-4.796,4.796-4.796l0,0c2.649,0,4.796,2.147,4.796,4.796v16.058C193.784,283.126,191.636,285.273,188.988,285.273z
				"/>
			<rect x="180.191" y="259.018" style="fill:#19181E;" width="18.072" height="5.581"/>
			<rect x="246.728" y="261.993" style="fill:#19181E;" width="18.072" height="5.214"/>
			<path style="opacity:0.41;fill:#333238;" d="M153.397,138.841c9.473-15.221,20.517-29.253,33.074-42.048
				c3.208-3.268-1.816-8.299-5.027-5.027c-12.969,13.214-24.403,27.768-34.186,43.487
				C144.833,139.148,150.981,142.721,153.397,138.841L153.397,138.841z"/>
			<path style="opacity:0.41;fill:#333238;" d="M197.231,87.998c3.31-3.567,7.06-6.44,11.363-8.714
				c4.047-2.139,0.458-8.278-3.588-6.139c-4.79,2.532-9.116,5.855-12.802,9.826C189.095,86.321,194.111,91.361,197.231,87.998
				L197.231,87.998z"/>
			<path style="opacity:0.15;fill:#333238;" d="M310.93,281.373c14.057,7.612,24.779,19.337,31.243,33.944
				c1.848,4.175,7.975,0.562,6.139-3.588c-6.913-15.623-18.78-28.364-33.793-36.494C310.494,273.055,306.901,279.191,310.93,281.373
				L310.93,281.373z"/>
			<path style="opacity:0.15;fill:#333238;" d="M346.181,329.311c1.318,4.467,1.848,8.916,1.641,13.568
				c-0.203,4.574,6.907,4.564,7.11,0c0.233-5.237-0.412-10.43-1.895-15.458C351.745,323.043,344.881,324.907,346.181,329.311
				L346.181,329.311z"/>
			<path style="opacity:0.15;fill:#333238;" d="M107.739,306.491c7.165-11.027,14.571-22.175,25.956-29.25
				c3.878-2.41,0.313-8.563-3.588-6.139c-12.454,7.739-20.66,19.724-28.506,31.8C99.1,306.751,105.253,310.318,107.739,306.491
				L107.739,306.491z"/>
			<path style="opacity:0.15;fill:#333238;" d="M144.084,272.547c5.1-1.171,10.231-2.173,15.397-3.007
				c4.505-0.727,2.593-7.579-1.89-6.856c-5.166,0.834-10.297,1.836-15.397,3.007C137.736,266.714,139.623,273.571,144.084,272.547
				L144.084,272.547z"/>
			<path style="fill:#3E3E68;" d="M311.951,254.421c10.797,3.188,20.148,8.888,27.973,16.977c3.187,3.294,8.211-1.736,5.027-5.027
				c-8.645-8.936-19.189-15.285-31.11-18.805C309.444,246.267,307.566,253.126,311.951,254.421L311.951,254.421z"/>
			<path style="fill:#3E3E68;" d="M347.747,282.057c2.864,3.935,5.453,8.037,7.772,12.316c2.18,4.024,8.321,0.439,6.139-3.588
				c-2.318-4.279-4.907-8.382-7.772-12.316C351.22,274.806,345.048,278.35,347.747,282.057L347.747,282.057z"/>
			<path style="fill:#3E3E68;" d="M107.947,214.147c1.702,3.954,3.405,7.907,5.107,11.861c0.765,1.777,3.342,2.141,4.864,1.275
				c1.834-1.044,2.03-3.11,1.275-4.864c-1.702-3.954-3.405-7.907-5.107-11.861c-0.765-1.777-3.342-2.141-4.864-1.275
				C107.389,210.327,107.192,212.394,107.947,214.147L107.947,214.147z"/>
			<path style="fill:#3E3E68;" d="M121.373,237.855c3.435,5.087,8.19,8.731,14.004,10.708c4.341,1.476,6.205-5.388,1.89-6.856
				c-3.98-1.353-7.401-3.955-9.755-7.441C124.965,230.495,118.803,234.049,121.373,237.855L121.373,237.855z"/>
		</g>
	</g>
	<path style="opacity:0.19;fill:#32325B;" d="M74.799,267.434c3.299-46.708,40.447-125.013,113.273-146.111
		c24.94-7.225,55.123-7.105,79.518,1.517c50.627,17.894,85.099,53.206,96.416,105.122c8.656,39.711,2.693,81.223-16.917,115.905
		c26.391-29.141,42.47-67.797,42.47-110.209c0-90.706-73.532-164.238-164.238-164.238c-90.706,0-164.238,73.532-164.238,164.238
		c0,23.492,4.943,45.826,13.828,66.035C74.067,288.912,74.046,278.089,74.799,267.434z"/>
	<path style="opacity:0.55;fill:#D1D3C9;" d="M239.403,146.412c12.18,0.302,24.154,2.103,35.982,4.696
		c0.679-9.202,1.046-16.324,0.81-17.322c-0.706-2.991-70.818-19.101-96.387,1.329c0,0-0.129,8.012,0.042,18.482
		C199.364,148.928,219.316,145.914,239.403,146.412z"/>
	<rect x="93.677" y="128.636" style="fill:#4AEDE8;" width="22.499" height="5.149"/>
	<rect x="50.554" y="165.073" style="fill:#4AEDE8;" width="36" height="5"/>
	<rect x="58.541" y="116.323" style="fill:#4AEDE8;" width="30" height="5"/>
	<rect x="57.541" y="116.323" style="fill:#E55561;" width="6.214" height="5"/>
	<rect x="61.209" y="192.623" style="fill:#4AEDE8;" width="48.84" height="6.407"/>
	<rect x="103.95" y="192.623" style="fill:#EDEDED;" width="6.099" height="6.407"/>
	<rect x="98.232" y="192.623" style="fill:#E55561;" width="6.099" height="6.407"/>
	<rect x="124.53" y="72.463" style="fill:#E55561;" width="36" height="6.407"/>
	<rect x="247.863" y="53.096" style="fill:#E55561;" width="36" height="6.407"/>
	<rect x="154.072" y="51.596" style="fill:#E55561;" width="34" height="3"/>
	<rect x="140.264" y="60.008" style="fill:#E55561;" width="20" height="2"/>
	<rect x="367.325" y="204.821" style="fill:#E55561;" width="22.949" height="6.407"/>
	<rect x="319.915" y="103.046" style="fill:#E55561;" width="22.949" height="6.407"/>
	<rect x="310.378" y="119.636" style="fill:#E55561;" width="22.949" height="6.407"/>
	<rect x="368.332" y="77.863" style="fill:#E55561;" width="23" height="7"/>
	<rect x="236.863" y="68.51" style="fill:#E55561;" width="29.348" height="5.097"/>
	<rect x="236.863" y="68.51" style="fill:#4AEDE8;" width="6.365" height="5.097"/>
	<rect x="382.747" y="175.891" style="fill:#E55561;" width="23" height="7"/>
	<rect x="297.568" y="114.045" style="fill:#E55561;" width="22.949" height="1"/>
	<rect x="294.568" y="114.045" style="fill:#4AEDE8;" width="6.671" height="1"/>
	<rect x="70.473" y="152.185" style="fill:#F2F2F7;" width="22.949" height="2"/>
	<rect x="104.701" y="171.968" style="fill:#F2F2F7;" width="22.949" height="2"/>
	<rect x="52.771" y="271.958" style="fill:#F2F2F7;" width="24" height="4"/>
	<rect x="327.654" y="345.697" style="fill:#F2F2F7;" width="31.955" height="6.407"/>
	<rect x="77.699" y="237.969" style="fill:#F2F2F7;" width="31.955" height="6.407"/>
	<rect x="97.405" y="237.969" style="fill:#E55561;" width="9.121" height="6.407"/>
	<rect x="106.512" y="237.969" style="fill:#4AEDE8;" width="9.121" height="6.407"/>
	<rect x="49.122" y="286.489" style="fill:#F2F2F7;" width="48.84" height="8.963"/>
	<rect x="90.077" y="286.489" style="fill:#E55561;" width="7.885" height="8.963"/>
	<rect x="354.671" y="235.242" style="fill:#F2F2F7;" width="48.84" height="8.963"/>
	<rect x="374.962" y="191.21" style="fill:#F2F2F7;" width="35.14" height="4.482"/>
	<rect x="370.962" y="191.21" style="fill:#4AEDE8;" width="6.027" height="4.482"/>
	<rect x="364.935" y="191.21" style="fill:#E55561;" width="6.027" height="4.482"/>
	<rect x="354.671" y="235.242" style="fill:#4AEDE8;" width="9.875" height="8.963"/>
	<rect x="88.041" y="179.086" style="fill:#4AEDE8;" width="28.135" height="6.257"/>
	<rect x="86.041" y="179.086" style="fill:#E55561;" width="6.053" height="6.257"/>
	<rect x="91.607" y="179.086" style="fill:#F2F2F7;" width="6.053" height="6.257"/>
	<rect x="353.047" y="98.393" style="fill:#4AEDE8;" width="21" height="3"/>
	<rect x="94.094" y="205.025" style="fill:#4AEDE8;" width="7.735" height="6.441"/>
	<rect x="292.164" y="371.525" style="fill:#4AEDE8;" width="30.463" height="4.8"/>
	<rect x="285.543" y="364.759" style="fill:#4AEDE8;" width="13.241" height="2.4"/>
	<rect x="117.302" y="393.415" style="fill:#F2F2F7;" width="45.936" height="5.879"/>
	<g>
		<path style="fill:#E55561;" d="M217.121,214.208c-1.376-1.388-2.064-3.064-2.064-5.03c0-3.931,1.388-7.279,4.163-10.042
			c2.775-2.775,6.123-4.163,10.043-4.163h7.094c1.965,0,3.642-0.694,5.03-2.081c1.387-1.388,2.082-3.064,2.082-5.03
			c0-1.954-0.695-3.631-2.082-5.03c-1.388-1.376-3.064-2.064-5.03-2.064h-14.206c-1.955,0-3.631-0.694-5.03-2.081
			c-1.376-1.388-2.064-3.064-2.064-5.03c0-1.954,0.688-3.631,2.064-5.03c1.399-1.388,3.076-2.082,5.03-2.082h21.317
			c3.932,0,7.279,1.394,10.043,4.18c2.773,2.775,4.162,6.123,4.162,10.042v14.206c0,3.932-1.389,7.279-4.162,10.043
			c-2.775,2.775-6.123,4.163-10.043,4.163h-14.206c0,1.966-0.694,3.643-2.082,5.03c-1.388,1.387-3.064,2.081-5.03,2.081
			C220.197,216.289,218.52,215.595,217.121,214.208z M217.121,235.524c-1.376-1.398-2.064-3.075-2.064-5.03
			c0-1.965,0.688-3.642,2.064-5.03c1.399-1.388,3.076-2.082,5.03-2.082c1.965,0,3.642,0.694,5.03,2.082s2.082,3.064,2.082,5.03
			c0,1.955-0.694,3.631-2.082,5.03c-1.388,1.377-3.064,2.064-5.03,2.064C220.197,237.589,218.52,236.901,217.121,235.524z"/>
		<path style="fill:#4AEDE8;" d="M198.121,214.208c-1.376-1.388-2.064-3.064-2.064-5.03c0-3.931,1.388-7.279,4.163-10.042
			c2.775-2.775,6.123-4.163,10.043-4.163h7.094c1.965,0,3.642-0.694,5.03-2.081c1.387-1.388,2.082-3.064,2.082-5.03
			c0-1.954-0.695-3.631-2.082-5.03c-1.388-1.376-3.064-2.064-5.03-2.064h-14.206c-1.955,0-3.631-0.694-5.03-2.081
			c-1.376-1.388-2.064-3.064-2.064-5.03c0-1.954,0.688-3.631,2.064-5.03c1.399-1.388,3.076-2.082,5.03-2.082h21.317
			c3.932,0,7.279,1.394,10.043,4.18c2.773,2.775,4.162,6.123,4.162,10.042v14.206c0,3.932-1.389,7.279-4.162,10.043
			c-2.775,2.775-6.123,4.163-10.043,4.163h-14.206c0,1.966-0.694,3.643-2.082,5.03c-1.388,1.387-3.064,2.081-5.03,2.081
			C201.197,216.289,199.52,215.595,198.121,214.208z M198.121,235.524c-1.376-1.398-2.064-3.075-2.064-5.03
			c0-1.965,0.688-3.642,2.064-5.03c1.399-1.388,3.076-2.082,5.03-2.082c1.965,0,3.642,0.694,5.03,2.082s2.082,3.064,2.082,5.03
			c0,1.955-0.694,3.631-2.082,5.03c-1.388,1.377-3.064,2.064-5.03,2.064C201.197,237.589,199.52,236.901,198.121,235.524z"/>
		<path style="fill:#F2F2F7;" d="M207.121,214.208c-1.376-1.388-2.064-3.064-2.064-5.03c0-3.931,1.388-7.279,4.163-10.042
			c2.775-2.775,6.123-4.163,10.043-4.163h7.094c1.965,0,3.642-0.694,5.03-2.081c1.387-1.388,2.082-3.064,2.082-5.03
			c0-1.954-0.695-3.631-2.082-5.03c-1.388-1.376-3.064-2.064-5.03-2.064h-14.206c-1.955,0-3.631-0.694-5.03-2.081
			c-1.376-1.388-2.064-3.064-2.064-5.03c0-1.954,0.688-3.631,2.064-5.03c1.399-1.388,3.076-2.082,5.03-2.082h21.317
			c3.932,0,7.279,1.394,10.043,4.18c2.773,2.775,4.162,6.123,4.162,10.042v14.206c0,3.932-1.389,7.279-4.162,10.043
			c-2.775,2.775-6.123,4.163-10.043,4.163h-14.206c0,1.966-0.694,3.643-2.082,5.03c-1.388,1.387-3.064,2.081-5.03,2.081
			C210.197,216.289,208.52,215.595,207.121,214.208z M207.121,235.524c-1.376-1.398-2.064-3.075-2.064-5.03
			c0-1.965,0.688-3.642,2.064-5.03c1.399-1.388,3.076-2.082,5.03-2.082c1.965,0,3.642,0.694,5.03,2.082s2.082,3.064,2.082,5.03
			c0,1.955-0.694,3.631-2.082,5.03c-1.388,1.377-3.064,2.064-5.03,2.064C210.197,237.589,208.52,236.901,207.121,235.524z"/>
	</g>
</g>
<g>
	<g>
		<path style="fill:#E55561;" d="M495.662,216.601c-2.441-2.481-3.662-5.456-3.662-8.923V119.46c0-6.974,2.461-12.913,7.385-17.815
			c4.923-4.943,10.862-7.416,17.816-7.416h63.017c3.466,0,6.441,1.23,8.923,3.692c2.441,2.482,3.662,5.457,3.662,8.923
			c0,3.487-1.221,6.461-3.662,8.923c-2.482,2.462-5.457,3.692-8.923,3.692h-50.432c-3.467,0-6.441,1.221-8.923,3.662
			c-2.441,2.482-3.662,5.457-3.662,8.923c0,3.488,1.22,6.462,3.662,8.923c2.482,2.462,5.457,3.692,8.923,3.692h50.432
			c3.466,0,6.441,1.231,8.923,3.692c2.441,2.462,3.662,5.426,3.662,8.893c0,3.488-1.221,6.462-3.662,8.923
			c-2.482,2.462-5.457,3.692-8.923,3.692h-50.432c-3.467,0-6.441,1.231-8.923,3.692c-2.441,2.462-3.662,5.437-3.662,8.923v25.201
			c0,3.467-1.231,6.441-3.692,8.923c-2.462,2.441-5.436,3.662-8.923,3.662C501.118,220.263,498.144,219.042,495.662,216.601z"/>
		<path style="fill:#E55561;" d="M612.095,216.601c-2.441-2.481-3.662-5.456-3.662-8.923V119.46c0-6.974,2.461-12.913,7.385-17.815
			c4.923-4.943,10.862-7.416,17.816-7.416h50.401c6.975,0,12.913,2.472,17.816,7.416c4.923,4.923,7.385,10.862,7.385,17.815v50.401
			c0,6.975-2.462,12.914-7.385,17.816c-4.924,4.923-10.862,7.385-17.816,7.385h12.616c3.466,0,6.44,1.231,8.923,3.692
			c2.441,2.462,3.662,5.436,3.662,8.923c0,3.467-1.221,6.441-3.662,8.923c-2.482,2.441-5.457,3.662-8.923,3.662h-12.616
			c-6.975,0-12.913-2.462-17.815-7.385c-4.923-4.923-7.385-10.862-7.385-17.816h-12.616c-3.467,0-6.441,1.231-8.923,3.692
			c-2.441,2.462-3.662,5.436-3.662,8.923c0,3.467-1.231,6.441-3.692,8.923c-2.462,2.441-5.436,3.662-8.923,3.662
			C617.552,220.263,614.577,219.042,612.095,216.601z M671.451,169.861c3.466,0,6.431-1.23,8.893-3.692
			c2.461-2.461,3.692-5.436,3.692-8.923v-25.201c0-3.466-1.23-6.441-3.692-8.923c-2.462-2.441-5.426-3.662-8.893-3.662h-25.231
			c-3.467,0-6.441,1.221-8.923,3.662c-2.441,2.482-3.662,5.457-3.662,8.923v25.201c0,3.488,1.22,6.462,3.662,8.923
			c2.482,2.462,5.457,3.692,8.923,3.692H671.451z"/>
		<path style="fill:#E55561;" d="M728.529,216.601c-2.441-2.481-3.662-5.456-3.662-8.923V106.845c0-3.467,1.221-6.441,3.662-8.923
			c2.481-2.462,5.456-3.692,8.923-3.692c3.487,0,6.462,1.23,8.923,3.692c2.462,2.482,3.692,5.457,3.692,8.923v100.833
			c0,3.467-1.23,6.441-3.692,8.923c-2.461,2.441-5.436,3.662-8.923,3.662C733.985,220.263,731.011,219.042,728.529,216.601z"/>
		<path style="fill:#E55561;" d="M790.899,220.263c-6.975,0-12.913-2.462-17.815-7.385c-4.923-4.923-7.385-10.862-7.385-17.816
			V119.46c0-6.974,2.462-12.913,7.385-17.815c4.923-4.943,10.862-7.416,17.815-7.416h63.018c3.466,0,6.44,1.23,8.923,3.692
			c2.441,2.482,3.662,5.457,3.662,8.923c0,3.487-1.221,6.461-3.662,8.923c-2.482,2.462-5.457,3.692-8.923,3.692h-50.433
			c-3.467,0-6.441,1.221-8.923,3.662c-2.441,2.482-3.662,5.457-3.662,8.923c0,3.488,1.221,6.462,3.662,8.923
			c2.481,2.462,5.456,3.692,8.923,3.692h50.433c3.466,0,6.44,1.231,8.923,3.692c2.441,2.462,3.662,5.426,3.662,8.893
			c0,3.488-1.221,6.462-3.662,8.923c-2.482,2.462-5.457,3.692-8.923,3.692h-50.433c-3.467,0-6.441,1.231-8.923,3.692
			c-2.441,2.462-3.662,5.437-3.662,8.923c0,3.467,1.221,6.441,3.662,8.923c2.481,2.441,5.456,3.662,8.923,3.662h50.433
			c3.466,0,6.44,1.231,8.923,3.692c2.441,2.462,3.662,5.436,3.662,8.923c0,3.467-1.221,6.441-3.662,8.923
			c-2.482,2.441-5.457,3.662-8.923,3.662H790.899z"/>
		<path style="fill:#E55561;" d="M885.795,216.601c-2.441-2.481-3.662-5.456-3.662-8.923V119.46c0-6.974,2.462-12.913,7.385-17.815
			c4.923-4.943,10.862-7.416,17.815-7.416h50.401c6.975,0,12.913,2.472,17.816,7.416c4.923,4.923,7.385,10.862,7.385,17.815v88.218
			c0,3.467-1.221,6.441-3.662,8.923c-2.482,2.441-5.457,3.662-8.923,3.662c-3.487,0-6.462-1.221-8.924-3.662
			c-2.461-2.481-3.692-5.456-3.692-8.923v-75.633c0-3.466-1.23-6.441-3.692-8.923c-2.461-2.441-5.426-3.662-8.893-3.662h-25.231
			c-3.467,0-6.441,1.221-8.923,3.662c-2.441,2.482-3.662,5.457-3.662,8.923v75.633c0,3.467-1.23,6.441-3.692,8.923
			c-2.461,2.441-5.436,3.662-8.923,3.662C891.251,220.263,888.276,219.042,885.795,216.601z"/>
		<path style="fill:#E55561;" d="M1011.151,220.263c-3.467,0-6.441-1.221-8.923-3.662c-2.441-2.481-3.662-5.456-3.662-8.923V106.875
			c0-3.487,1.221-6.462,3.662-8.923c2.481-2.482,5.456-3.723,8.923-3.723h63.017c6.975,0,12.913,2.472,17.816,7.416
			c4.923,4.923,7.385,10.862,7.385,17.815v75.602c0,6.975-2.462,12.914-7.385,17.816c-4.924,4.923-10.862,7.385-17.816,7.385
			H1011.151z M1061.583,195.062c3.467,0,6.432-1.22,8.893-3.662c2.462-2.482,3.692-5.457,3.692-8.923v-50.432
			c0-3.466-1.23-6.441-3.692-8.923c-2.461-2.441-5.426-3.662-8.893-3.662h-25.231c-3.467,0-6.441,1.221-8.923,3.662
			c-2.441,2.482-3.662,5.457-3.662,8.923v50.432c0,3.467,1.221,6.441,3.662,8.923c2.481,2.441,5.456,3.662,8.923,3.662H1061.583z"/>
	</g>
	<g>
		<path style="fill:#E55561;" d="M488.662,215.601c-2.441-2.481-3.662-5.456-3.662-8.923V118.46c0-6.974,2.461-12.913,7.385-17.815
			c4.923-4.943,10.862-7.416,17.816-7.416h63.017c3.466,0,6.441,1.23,8.923,3.692c2.441,2.482,3.662,5.457,3.662,8.923
			c0,3.487-1.221,6.461-3.662,8.923c-2.482,2.462-5.457,3.692-8.923,3.692h-50.432c-3.467,0-6.441,1.221-8.923,3.662
			c-2.441,2.482-3.662,5.457-3.662,8.923c0,3.488,1.22,6.462,3.662,8.923c2.482,2.462,5.457,3.692,8.923,3.692h50.432
			c3.466,0,6.441,1.231,8.923,3.692c2.441,2.462,3.662,5.426,3.662,8.893c0,3.488-1.221,6.462-3.662,8.923
			c-2.482,2.462-5.457,3.692-8.923,3.692h-50.432c-3.467,0-6.441,1.231-8.923,3.692c-2.441,2.462-3.662,5.437-3.662,8.923v25.201
			c0,3.467-1.231,6.441-3.692,8.923c-2.462,2.441-5.436,3.662-8.923,3.662C494.118,219.263,491.144,218.042,488.662,215.601z"/>
		<path style="fill:#E55561;" d="M605.095,215.601c-2.441-2.481-3.662-5.456-3.662-8.923V118.46c0-6.974,2.461-12.913,7.385-17.815
			c4.923-4.943,10.862-7.416,17.816-7.416h50.401c6.975,0,12.913,2.472,17.816,7.416c4.923,4.923,7.385,10.862,7.385,17.815v50.401
			c0,6.975-2.462,12.914-7.385,17.816c-4.924,4.923-10.862,7.385-17.816,7.385h12.616c3.466,0,6.44,1.231,8.923,3.692
			c2.441,2.462,3.662,5.436,3.662,8.923c0,3.467-1.221,6.441-3.662,8.923c-2.482,2.441-5.457,3.662-8.923,3.662h-12.616
			c-6.975,0-12.913-2.462-17.815-7.385c-4.923-4.923-7.385-10.862-7.385-17.816h-12.616c-3.467,0-6.441,1.231-8.923,3.692
			c-2.441,2.462-3.662,5.436-3.662,8.923c0,3.467-1.231,6.441-3.692,8.923c-2.462,2.441-5.436,3.662-8.923,3.662
			C610.552,219.263,607.577,218.042,605.095,215.601z M664.451,168.861c3.466,0,6.431-1.23,8.893-3.692
			c2.461-2.461,3.692-5.436,3.692-8.923v-25.201c0-3.466-1.23-6.441-3.692-8.923c-2.462-2.441-5.426-3.662-8.893-3.662h-25.231
			c-3.467,0-6.441,1.221-8.923,3.662c-2.441,2.482-3.662,5.457-3.662,8.923v25.201c0,3.488,1.22,6.462,3.662,8.923
			c2.482,2.462,5.457,3.692,8.923,3.692H664.451z"/>
		<path style="fill:#E55561;" d="M721.529,215.601c-2.441-2.481-3.662-5.456-3.662-8.923V105.845c0-3.467,1.221-6.441,3.662-8.923
			c2.481-2.462,5.456-3.692,8.923-3.692c3.487,0,6.462,1.23,8.923,3.692c2.462,2.482,3.692,5.457,3.692,8.923v100.833
			c0,3.467-1.23,6.441-3.692,8.923c-2.461,2.441-5.436,3.662-8.923,3.662C726.985,219.263,724.011,218.042,721.529,215.601z"/>
		<path style="fill:#E55561;" d="M783.899,219.263c-6.975,0-12.913-2.462-17.815-7.385c-4.923-4.923-7.385-10.862-7.385-17.816
			V118.46c0-6.974,2.462-12.913,7.385-17.815c4.923-4.943,10.862-7.416,17.815-7.416h63.018c3.466,0,6.44,1.23,8.923,3.692
			c2.441,2.482,3.662,5.457,3.662,8.923c0,3.487-1.221,6.461-3.662,8.923c-2.482,2.462-5.457,3.692-8.923,3.692h-50.433
			c-3.467,0-6.441,1.221-8.923,3.662c-2.441,2.482-3.662,5.457-3.662,8.923c0,3.488,1.221,6.462,3.662,8.923
			c2.481,2.462,5.456,3.692,8.923,3.692h50.433c3.466,0,6.44,1.231,8.923,3.692c2.441,2.462,3.662,5.426,3.662,8.893
			c0,3.488-1.221,6.462-3.662,8.923c-2.482,2.462-5.457,3.692-8.923,3.692h-50.433c-3.467,0-6.441,1.231-8.923,3.692
			c-2.441,2.462-3.662,5.437-3.662,8.923c0,3.467,1.221,6.441,3.662,8.923c2.481,2.441,5.456,3.662,8.923,3.662h50.433
			c3.466,0,6.44,1.231,8.923,3.692c2.441,2.462,3.662,5.436,3.662,8.923c0,3.467-1.221,6.441-3.662,8.923
			c-2.482,2.441-5.457,3.662-8.923,3.662H783.899z"/>
		<path style="fill:#E55561;" d="M878.795,215.601c-2.441-2.481-3.662-5.456-3.662-8.923V118.46c0-6.974,2.462-12.913,7.385-17.815
			c4.923-4.943,10.862-7.416,17.815-7.416h50.401c6.975,0,12.913,2.472,17.816,7.416c4.923,4.923,7.385,10.862,7.385,17.815v88.218
			c0,3.467-1.221,6.441-3.662,8.923c-2.482,2.441-5.457,3.662-8.923,3.662c-3.487,0-6.462-1.221-8.924-3.662
			c-2.461-2.481-3.692-5.456-3.692-8.923v-75.633c0-3.466-1.23-6.441-3.692-8.923c-2.461-2.441-5.426-3.662-8.893-3.662h-25.231
			c-3.467,0-6.441,1.221-8.923,3.662c-2.441,2.482-3.662,5.457-3.662,8.923v75.633c0,3.467-1.23,6.441-3.692,8.923
			c-2.461,2.441-5.436,3.662-8.923,3.662C884.251,219.263,881.276,218.042,878.795,215.601z"/>
		<path style="fill:#E55561;" d="M1004.151,219.263c-3.467,0-6.441-1.221-8.923-3.662c-2.441-2.481-3.662-5.456-3.662-8.923V105.875
			c0-3.487,1.221-6.462,3.662-8.923c2.481-2.482,5.456-3.723,8.923-3.723h63.017c6.975,0,12.913,2.472,17.816,7.416
			c4.923,4.923,7.385,10.862,7.385,17.815v75.602c0,6.975-2.462,12.914-7.385,17.816c-4.924,4.923-10.862,7.385-17.816,7.385
			H1004.151z M1054.583,194.062c3.467,0,6.432-1.22,8.893-3.662c2.462-2.482,3.692-5.457,3.692-8.923v-50.432
			c0-3.466-1.23-6.441-3.692-8.923c-2.461-2.441-5.426-3.662-8.893-3.662h-25.231c-3.467,0-6.441,1.221-8.923,3.662
			c-2.441,2.482-3.662,5.457-3.662,8.923v50.432c0,3.467,1.221,6.441,3.662,8.923c2.481,2.441,5.456,3.662,8.923,3.662H1054.583z"/>
	</g>
</g>
<g>
	<path style="fill:#201F25;" d="M521.201,370.503c-6.975,0-12.914-2.462-17.816-7.385c-4.923-4.923-7.385-10.862-7.385-17.815
		v-25.201c0-6.974,2.461-12.913,7.385-17.815c4.923-4.924,10.862-7.385,17.816-7.385h37.816c3.466,0,6.431-1.231,8.893-3.692
		c2.461-2.462,3.692-5.437,3.692-8.924c0-3.466-1.231-6.44-3.692-8.923c-2.462-2.441-5.426-3.662-8.893-3.662h-50.432
		c-3.467,0-6.441-1.23-8.923-3.692c-2.441-2.461-3.662-5.436-3.662-8.923c0-3.467,1.22-6.441,3.662-8.924
		c2.482-2.461,5.457-3.692,8.923-3.692h63.017c6.974,0,12.913,2.473,17.815,7.416c4.923,4.923,7.385,10.861,7.385,17.815v25.201
		c0,6.975-2.462,12.913-7.385,17.815c-4.923,4.923-10.862,7.385-17.815,7.385h-37.816c-3.467,0-6.441,1.23-8.923,3.692
		c-2.441,2.462-3.662,5.437-3.662,8.924c0,3.467,1.22,6.441,3.662,8.923c2.482,2.441,5.457,3.662,8.923,3.662h50.432
		c3.466,0,6.441,1.23,8.923,3.692c2.441,2.461,3.662,5.436,3.662,8.923c0,3.467-1.221,6.441-3.662,8.923
		c-2.482,2.441-5.457,3.662-8.923,3.662H521.201z"/>
	<path style="fill:#201F25;" d="M637.634,370.503c-6.975,0-12.914-2.462-17.816-7.385c-4.923-4.923-7.385-10.862-7.385-17.815V269.7
		c0-6.974,2.461-12.912,7.385-17.815c4.923-4.943,10.862-7.416,17.816-7.416h50.401c6.975,0,12.913,2.473,17.816,7.416
		c4.923,4.923,7.385,10.861,7.385,17.815v75.603c0,6.975-2.462,12.913-7.385,17.815c-4.924,4.923-10.862,7.385-17.816,7.385H637.634
		z M675.451,345.303c3.466,0,6.431-1.221,8.893-3.662c2.461-2.481,3.692-5.456,3.692-8.923v-50.433c0-3.466-1.23-6.44-3.692-8.923
		c-2.462-2.441-5.426-3.662-8.893-3.662h-25.231c-3.467,0-6.441,1.221-8.923,3.662c-2.441,2.482-3.662,5.457-3.662,8.923v50.433
		c0,3.467,1.22,6.441,3.662,8.923c2.482,2.441,5.457,3.662,8.923,3.662H675.451z"/>
	<path style="fill:#201F25;" d="M732.529,366.841c-2.441-2.481-3.662-5.456-3.662-8.923V269.7c0-6.974,2.462-12.912,7.385-17.815
		c4.923-4.943,10.862-7.416,17.815-7.416h50.401c6.975,0,12.913,2.473,17.816,7.416c4.923,4.923,7.385,10.861,7.385,17.815v88.218
		c0,3.467-1.221,6.441-3.662,8.923c-2.482,2.441-5.457,3.662-8.923,3.662c-3.487,0-6.462-1.221-8.924-3.662
		c-2.461-2.481-3.692-5.456-3.692-8.923v-75.633c0-3.466-1.23-6.44-3.692-8.923c-2.461-2.441-5.426-3.662-8.893-3.662h-25.231
		c-3.467,0-6.441,1.221-8.923,3.662c-2.441,2.482-3.662,5.457-3.662,8.923v75.633c0,3.467-1.23,6.441-3.692,8.923
		c-2.461,2.441-5.436,3.662-8.923,3.662C737.985,370.503,735.011,369.282,732.529,366.841z"/>
	<path style="fill:#201F25;" d="M870.501,370.503c-6.975,0-12.913-2.462-17.815-7.385c-4.923-4.923-7.385-10.862-7.385-17.815V269.7
		c0-6.974,2.462-12.912,7.385-17.815c4.923-4.943,10.862-7.416,17.815-7.416h63.018c3.466,0,6.44,1.231,8.923,3.692
		c2.441,2.482,3.662,5.457,3.662,8.924c0,3.487-1.221,6.462-3.662,8.923c-2.482,2.462-5.457,3.692-8.923,3.692h-50.433
		c-3.467,0-6.441,1.221-8.923,3.662c-2.441,2.482-3.662,5.457-3.662,8.923c0,3.487,1.221,6.462,3.662,8.924
		c2.481,2.461,5.456,3.692,8.923,3.692h50.433c3.466,0,6.44,1.23,8.923,3.692c2.441,2.461,3.662,5.426,3.662,8.893
		c0,3.487-1.221,6.461-3.662,8.923c-2.482,2.462-5.457,3.692-8.923,3.692h-50.433c-3.467,0-6.441,1.23-8.923,3.692
		c-2.441,2.462-3.662,5.437-3.662,8.924c0,3.467,1.221,6.441,3.662,8.923c2.481,2.441,5.456,3.662,8.923,3.662h50.433
		c3.466,0,6.44,1.23,8.923,3.692c2.441,2.461,3.662,5.436,3.662,8.923c0,3.467-1.221,6.441-3.662,8.923
		c-2.482,2.441-5.457,3.662-8.923,3.662H870.501z"/>
</g>
<g>
	<path style="fill:#4AEDE8;" d="M511.201,368.503c-6.975,0-12.914-2.462-17.816-7.385c-4.923-4.923-7.385-10.862-7.385-17.815
		v-25.201c0-6.974,2.461-12.913,7.385-17.815c4.923-4.924,10.862-7.385,17.816-7.385h37.816c3.466,0,6.431-1.231,8.893-3.692
		c2.461-2.462,3.692-5.437,3.692-8.924c0-3.466-1.231-6.44-3.692-8.923c-2.462-2.441-5.426-3.662-8.893-3.662h-50.432
		c-3.467,0-6.441-1.23-8.923-3.692c-2.441-2.461-3.662-5.436-3.662-8.923c0-3.467,1.22-6.441,3.662-8.924
		c2.482-2.461,5.457-3.692,8.923-3.692h63.017c6.974,0,12.913,2.473,17.815,7.416c4.923,4.923,7.385,10.861,7.385,17.815v25.201
		c0,6.975-2.462,12.913-7.385,17.815c-4.923,4.923-10.862,7.385-17.815,7.385h-37.816c-3.467,0-6.441,1.23-8.923,3.692
		c-2.441,2.462-3.662,5.437-3.662,8.924c0,3.467,1.22,6.441,3.662,8.923c2.482,2.441,5.457,3.662,8.923,3.662h50.432
		c3.466,0,6.441,1.23,8.923,3.692c2.441,2.461,3.662,5.436,3.662,8.923c0,3.467-1.221,6.441-3.662,8.923
		c-2.482,2.441-5.457,3.662-8.923,3.662H511.201z"/>
	<path style="fill:#4AEDE8;" d="M627.634,368.503c-6.975,0-12.914-2.462-17.816-7.385c-4.923-4.923-7.385-10.862-7.385-17.815V267.7
		c0-6.974,2.461-12.912,7.385-17.815c4.923-4.943,10.862-7.416,17.816-7.416h50.401c6.975,0,12.913,2.473,17.816,7.416
		c4.923,4.923,7.385,10.861,7.385,17.815v75.603c0,6.975-2.462,12.913-7.385,17.815c-4.924,4.923-10.862,7.385-17.816,7.385H627.634
		z M665.451,343.303c3.466,0,6.431-1.221,8.893-3.662c2.461-2.481,3.692-5.456,3.692-8.923v-50.433c0-3.466-1.23-6.44-3.692-8.923
		c-2.462-2.441-5.426-3.662-8.893-3.662h-25.231c-3.467,0-6.441,1.221-8.923,3.662c-2.441,2.482-3.662,5.457-3.662,8.923v50.433
		c0,3.467,1.22,6.441,3.662,8.923c2.482,2.441,5.457,3.662,8.923,3.662H665.451z"/>
	<path style="fill:#4AEDE8;" d="M722.529,364.841c-2.441-2.481-3.662-5.456-3.662-8.923V267.7c0-6.974,2.462-12.912,7.385-17.815
		c4.923-4.943,10.862-7.416,17.815-7.416h50.401c6.975,0,12.913,2.473,17.816,7.416c4.923,4.923,7.385,10.861,7.385,17.815v88.218
		c0,3.467-1.221,6.441-3.662,8.923c-2.482,2.441-5.457,3.662-8.923,3.662c-3.487,0-6.462-1.221-8.924-3.662
		c-2.461-2.481-3.692-5.456-3.692-8.923v-75.633c0-3.466-1.23-6.44-3.692-8.923c-2.461-2.441-5.426-3.662-8.893-3.662h-25.231
		c-3.467,0-6.441,1.221-8.923,3.662c-2.441,2.482-3.662,5.457-3.662,8.923v75.633c0,3.467-1.23,6.441-3.692,8.923
		c-2.461,2.441-5.436,3.662-8.923,3.662C727.985,368.503,725.011,367.282,722.529,364.841z"/>
	<path style="fill:#4AEDE8;" d="M860.501,368.503c-6.975,0-12.913-2.462-17.815-7.385c-4.923-4.923-7.385-10.862-7.385-17.815V267.7
		c0-6.974,2.462-12.912,7.385-17.815c4.923-4.943,10.862-7.416,17.815-7.416h63.018c3.466,0,6.44,1.231,8.923,3.692
		c2.441,2.482,3.662,5.457,3.662,8.924c0,3.487-1.221,6.462-3.662,8.923c-2.482,2.462-5.457,3.692-8.923,3.692h-50.433
		c-3.467,0-6.441,1.221-8.923,3.662c-2.441,2.482-3.662,5.457-3.662,8.923c0,3.487,1.221,6.462,3.662,8.924
		c2.481,2.461,5.456,3.692,8.923,3.692h50.433c3.466,0,6.44,1.23,8.923,3.692c2.441,2.461,3.662,5.426,3.662,8.893
		c0,3.487-1.221,6.461-3.662,8.923c-2.482,2.462-5.457,3.692-8.923,3.692h-50.433c-3.467,0-6.441,1.23-8.923,3.692
		c-2.441,2.462-3.662,5.437-3.662,8.924c0,3.467,1.221,6.441,3.662,8.923c2.481,2.441,5.456,3.662,8.923,3.662h50.433
		c3.466,0,6.44,1.23,8.923,3.692c2.441,2.461,3.662,5.436,3.662,8.923c0,3.467-1.221,6.441-3.662,8.923
		c-2.482,2.441-5.457,3.662-8.923,3.662H860.501z"/>
</g>
<g>
</g>
<g>
</g>
<g>
</g>
<g>
</g>
<g>
</g>
<g>
</g>
<g>
</g>
<g>
</g>
<g>
</g>
<g>
</g>
<g>
</g>
<g>
</g>
<g>
</g>
<g>
</g>
<g>
</g>
</svg>
