<svg xmlns="http://www.w3.org/2000/svg" width="23" height="14" viewBox="0 0 23 14">
  <path fill="#46466B" fill-rule="evenodd" d="M25.9898356,19.5597645 C25.7832845,17.8809207 25.142473,15.4465064 23.2631188,13.3833888 C21.1485982,11.0622284 17.9453046,9.69478735 13.7422732,9.31868096 C13.4020344,9.28818953 13.0447702,9.14444419 13.0095065,8.51968741 C12.9772076,7.9439801 12.6929416,7.42358388 12.1833471,7.16395295 C11.6736179,6.90427664 11.0718885,6.95586706 10.6128312,7.29880495 L9.13939158,8.39912828 C8.98971168,8.51079408 8.95808664,8.72387112 9.06863953,8.87505782 C9.17937211,9.02606302 9.39014585,9.05814255 9.54000544,8.94647674 L11.013445,7.84597192 C11.270713,7.65399386 11.5944654,7.6261795 11.8799443,7.77151292 C12.1614252,7.91507676 12.3310954,8.1889098 12.3356774,8.50639279 C12.3270524,8.62549995 12.3160016,9.09820793 12.6378224,9.49359834 C12.8763129,9.78657928 13.2277822,9.95605176 13.6827965,9.99661625 C17.7135073,10.3571593 20.7699512,11.6517294 22.7672255,13.8442087 C24.5258296,15.7745615 25.1266605,18.0634609 25.3212624,19.6437975 C25.3591765,19.9528862 25.1798481,20.1574329 24.9994416,20.2456857 C24.8160702,20.3353904 24.5418218,20.3506361 24.3219289,20.1251719 C22.867042,18.6343586 20.9659456,17.7084535 18.6717822,17.3731385 C16.657123,17.0785241 14.767257,17.3052134 13.5366205,17.5470122 C13.3293956,17.5877582 13.1553231,17.6606291 13.0096862,17.7561417 L13.0096862,16.1602419 C13.0096862,15.9722113 12.8587485,15.8199357 12.6727716,15.8199357 C12.4865702,15.8199357 12.3358571,15.9722113 12.3358571,16.1602419 C12.3358571,16.1602419 12.3190114,19.3524046 12.3354977,19.4945619 C12.3288493,19.8091409 12.1596732,20.0805237 11.8799443,20.2229986 C11.5944654,20.368332 11.2705333,20.3406991 11.013445,20.148585 L4.20759157,15.0664978 C3.86843093,14.8132192 3.67382909,14.4234552 3.67382909,13.9973465 C3.67382909,13.5711017 3.86843093,13.1815191 4.20759157,12.9282406 L8.32464237,9.8537784 C8.47414258,9.7421126 8.5059024,9.52908093 8.39516982,9.37789424 C8.28461692,9.22684366 8.07370842,9.19476413 7.92402852,9.30642994 L3.8071574,12.3808921 C3.2942387,12.7639408 3,13.3530788 3,13.9973465 C3,14.6414327 3.2942387,15.2307976 3.80697772,15.6138009 L10.6128312,20.6958881 C10.8778257,20.893674 11.4877758,21.1912831 12.1833471,20.8306039 C12.6911896,20.5673884 13.0095065,20.0516204 13.0095065,19.475051 C13.0095065,19.4608489 12.9115767,18.3745461 13.6654117,18.2150106 C14.8412884,17.9663602 16.6539785,17.7658972 18.5752449,18.0466271 C20.7206269,18.3602079 22.4925728,19.2203658 23.8419829,20.6030072 C24.2292999,20.9998495 24.7986854,21.1001718 25.2931861,20.8582368 C25.7840032,20.6182529 26.0573982,20.1085196 25.9898356,19.5597645" transform="translate(-3 -7)"/>
</svg>
