<svg xmlns="http://www.w3.org/2000/svg" width="25" height="14" viewBox="0 0 25 14">
  <path fill="#E14B57" d="M24.9200347,12.7318279 C23.8574548,11.106548 22.5139236,9.73395773 20.9766064,8.66069575 L22.5583647,7.74531703 C22.792014,7.61037085 22.8719316,7.31104255 22.7370825,7.07708482 C22.6022335,6.84293596 22.3037346,6.76265635 22.0700853,6.89798484 L20.0523088,8.06528865 C17.8022183,6.7315002 15.2061359,6 12.5,6 C7.47892389,6 2.83588281,8.51657475 0.0799652956,12.7318279 C-0.0266550985,12.8946808 -0.0266550985,13.1053192 0.0799652956,13.2681721 C1.14254518,14.8936432 2.48607638,16.2662334 4.02339356,17.3394954 L2.44144462,18.254683 C2.20798604,18.3898203 2.1278777,18.6891486 2.26272674,18.9231063 C2.35332542,19.0800338 2.51735683,19.167768 2.68615653,19.167768 C2.76893512,19.167768 2.85304891,19.1467424 2.92972401,19.1022063 L4.94750044,17.9347113 C7.19778175,19.2686909 9.79386408,20 12.5,20 C17.5210761,20 22.1641172,17.4834252 24.9200347,13.2681721 C25.0266551,13.1053192 25.0266551,12.8946808 24.9200347,12.7318279 Z M19.0704095,8.63355362 L18.2883996,9.08598659 C17.9628164,8.60411773 17.5788686,8.16506472 17.1470465,7.77857575 C17.8098476,8.01444487 18.4528124,8.30039321 19.0704095,8.63355362 Z M18.5085068,13 C18.5085068,16.3201354 15.8132427,19.0213533 12.5,19.0213533 C10.4549486,19.0213533 8.64564459,17.9918628 7.55998588,16.4233521 L9.30424954,15.4141227 C10.035715,16.384168 11.1959507,17.0124515 12.5,17.0124515 C14.7077476,17.0124515 16.503891,15.2124679 16.503891,13 C16.503891,12.4441593 16.3904042,11.9143138 16.1855557,11.4326361 L17.9298194,10.4234067 C18.3006065,11.2049861 18.5085068,12.0785047 18.5085068,13 Z M9.4726678,13 C9.4726678,11.3271258 10.8306948,9.96619519 12.5,9.96619519 C13.4429896,9.96619519 14.2864159,10.4006608 14.8420245,11.0799793 L9.66893321,14.0730709 C9.54247652,13.7391459 9.4726678,13.3776965 9.4726678,13 L9.4726678,13 Z M15.3312575,11.9269291 C15.4575235,12.2608541 15.5273322,12.6223035 15.5273322,13 C15.5273322,14.6728742 14.1693052,16.0338048 12.5,16.0338048 C11.5572012,16.0338048 10.7137748,15.5995303 10.1581663,14.9200207 L15.3312575,11.9269291 Z M15.6957505,10.5860685 C14.964285,9.61583204 13.8040493,8.98754848 12.5,8.98754848 C10.2922524,8.98754848 8.49610902,10.7875321 8.49610902,13 C8.49610902,13.5558407 8.60959585,14.0856862 8.81444428,14.5673639 L7.07018062,15.5765933 C6.69939346,14.7950139 6.49149323,13.9214953 6.49149323,13 C6.49149323,9.6798646 9.18694809,6.97864671 12.5,6.97864671 C14.5450514,6.97864671 16.3545461,8.0081372 17.4402048,9.57683908 L15.6957505,10.5860685 Z M1.07655114,13 C2.75958916,10.5495604 5.13823458,8.74460707 7.85314424,7.77876688 C6.41920503,9.06152042 5.51493446,10.9268745 5.51493446,13 C5.51493446,14.0994484 5.76956454,15.1404074 6.22217668,16.0672547 L4.96504798,16.7945497 C3.45519656,15.8141827 2.12978506,14.5333406 1.07655114,13 Z M5.92978121,17.3664464 L6.71160045,16.9140134 C7.03718363,17.3960734 7.42113143,17.8349353 7.85314424,18.2214243 C7.19015238,17.9855551 6.54737837,17.6996068 5.92978121,17.3664464 Z M17.1470465,18.2214243 C18.580795,16.9384796 19.4850655,15.0733166 19.4850655,13 C19.4850655,11.9005516 19.2304355,10.8595926 18.7778233,9.93274534 L20.0351427,9.20545029 C21.5449942,10.1860084 22.8704057,11.4666594 23.9236396,13 C22.2404108,15.4504396 19.8617654,17.2553929 17.1470465,18.2214243 Z" transform="translate(0 -6)"/>
</svg>
