<svg xmlns="http://www.w3.org/2000/svg" width="31" height="33" viewBox="0 0 31 33">
  <g fill="#32335A">
    <path d="M30.4675341,15.4293045 C30.1991753,15.0797574 29.7028732,15.0176128 29.3587273,15.2900374 C29.0147107,15.5626592 28.9533438,16.0669109 29.221638,16.416458 C29.4853409,16.7600272 29.4853409,17.2397758 29.221638,17.5833449 C27.289196,20.1003336 24.788868,21.9916717 21.9740105,23.1351722 C23.4534758,21.5259155 24.3593646,19.3679992 24.3593646,16.9998686 C24.3593646,14.6410663 23.4610416,12.4909017 21.9941859,10.8850609 C23.6206989,11.5494697 25.1496974,12.4625884 26.5185212,13.6027386 C26.6883956,13.7441735 26.8577526,13.8908637 27.0222598,14.0388021 C27.3489462,14.3326424 27.8481583,14.3017671 28.1374038,13.9699569 C28.4266493,13.6381466 28.3962568,13.130873 28.0696351,12.8370985 C27.8903197,12.6756932 27.7054431,12.5157332 27.5202432,12.3615541 C24.1434489,9.54895148 19.8744747,8 15.4999677,8 C9.61269296,8 4.1572496,10.7078896 0.532465887,15.4293702 C-0.177488629,16.3541163 -0.177488629,17.645818 0.532465887,18.5706298 C4.1572496,23.2921104 9.61269296,26 15.4999677,26 C21.387113,26 26.8426211,23.2921104 30.4675341,18.5706298 C31.1774886,17.6456866 31.1774886,16.3540506 30.4675341,15.4293045 Z M1.77836202,17.5833449 C1.51465909,17.2397758 1.51465909,16.7600272 1.77836202,16.416458 C3.71035137,13.8999292 6.21016207,12.0088538 9.02450221,10.8652219 C7.54658888,12.4736904 6.64057078,14.6307526 6.64057078,16.9998686 C6.64057078,19.3681306 7.54652422,21.5260469 9.02450221,23.134581 C6.21016207,21.9909491 3.7102867,20.0998737 1.77836202,17.5833449 Z M15.5096027,24.3946848 C15.5064341,24.3946848 15.5032656,24.3946848 15.5000323,24.3946848 C15.4967991,24.3946848 15.4936952,24.3946848 15.4904619,24.3946848 C11.4807935,24.3893637 8.22058978,21.0744144 8.22058978,16.9998686 C8.22058978,12.9253228 11.4807289,9.6103735 15.4904619,9.60505244 C15.4936305,9.60505244 15.4967991,9.60505244 15.5000323,9.60505244 C15.5024896,9.60505244 15.5049469,9.60505244 15.5074041,9.60505244 C19.5180425,9.60912535 22.7794102,12.9245345 22.7794102,16.9998686 C22.7794102,21.0744144 19.5192711,24.3893637 15.5096027,24.3946848 Z"/>
    <path d="M15.5 13C13.5699363 13 12 14.5699363 12 16.5 12 18.4300637 13.5699363 20 15.5 20 17.4300637 20 19 18.4300637 19 16.5 19 14.5699363 17.4300637 13 15.5 13zM15.5 18.3503279C14.4799769 18.3503279 13.6496721 17.5200231 13.6496721 16.5 13.6496721 15.4799769 14.4799769 14.6496721 15.5 14.6496721 16.5200231 14.6496721 17.3503279 15.4799769 17.3503279 16.5 17.3503279 17.5200231 16.5200231 18.3503279 15.5 18.3503279zM15.5 0C15.2238275 0 15 .389269293 15 .869574501L15 4.1304255C15 4.61073071 15.2238275 5 15.5 5 15.7761725 5 16 4.61073071 16 4.1304255L16 .869574501C16 .389269293 15.7761316 0 15.5 0zM15.5 28C15.2238275 28 15 28.3892693 15 28.8695745L15 32.1304255C15 32.6107307 15.2238275 33 15.5 33 15.7761725 33 16 32.6107307 16 32.1304255L16 28.8695745C16 28.3892693 15.7760907 28 15.5 28zM27.7727084 5.22724145C27.4696635 4.92425285 26.9784144 4.92425285 26.675179 5.22724145L25.2272837 6.67517124C24.9242388 6.97822336 24.9242388 7.46954763 25.2272837 7.77272679 25.3788379 7.92422109 25.577332 8 25.7760166 8 25.9745742 8 26.1731318 7.92422109 26.3247496 7.77272679L27.7727719 6.324797C28.0757533 6.02174488 28.0757533 5.53042061 27.7727084 5.22724145zM5.77270839 25.2272194C5.469727 24.9242919 4.97841443 24.9242284 4.67530601 25.2272194L3.22728367 26.6751607C2.92423878 26.9782152 2.92423878 27.4695434 3.22728367 27.772725 3.37883788 27.9242205 3.57745901 28 3.77601662 28 3.97457423 28 4.17313184 27.9242205 4.32474957 27.772725L5.7727719 26.3247837C6.07575328 26.0216657 6.07575328 25.530401 5.77270839 25.2272194zM5.77272859 6.67523476L4.32468326 5.22724145C4.02163355 4.92425285 3.53031318 4.92425285 3.22726346 5.22724145 2.92421375 5.53042061 2.92427727 6.02168136 3.22726346 6.324797L4.67530879 7.77272679C4.82680189 7.92422109 5.02548969 8 5.22405045 8 5.42261122 8 5.62129902 7.92422109 5.77279211 7.77272679 6.07577831 7.46954763 6.07571479 6.97828688 5.77272859 6.67523476zM27.7726644 26.6751712L26.324792 25.2272414C26.0216249 24.9242529 25.5304472 24.9242529 25.2272801 25.2272414 24.92424 25.5304206 24.92424 26.0216814 25.2272801 26.324797L26.6752794 27.7727268C26.8268312 27.9242211 27.0254492 28 27.2240036 28 27.4225581 28 27.6211126 27.9242211 27.7727279 27.7727268 28.075768 27.4695476 28.075768 26.9782234 27.7726644 26.6751712z"/>
  </g>
</svg>
